Kablammov0.9-WildBold.ufo
<glyph name="numbersign" format="2">
  <advance width="743"/>
  <unicode hex="0023"/>
  <outline>
    <contour>
      <point x="269" y="709" type="curve" smooth="yes"/>
      <point x="117" y="15" type="line" smooth="yes"/>
      <point x="107" y="-33"/>
      <point x="172" y="-47"/>
      <point x="184" y="0" type="curve" smooth="yes"/>
      <point x="368" y="702" type="line" smooth="yes"/>
      <point x="379" y="744"/>
      <point x="285" y="783"/>
    </contour>
    <contour>
      <point x="539" y="652" type="curve" smooth="yes"/>
      <point x="397" y="25" type="line" smooth="yes"/>
      <point x="386" y="-25"/>
      <point x="475" y="-37"/>
      <point x="484" y="10" type="curve" smooth="yes"/>
      <point x="606" y="633" type="line" smooth="yes"/>
      <point x="616" y="685"/>
      <point x="549" y="695"/>
    </contour>
    <contour>
      <point x="126" y="486" type="line" smooth="yes"/>
      <point x="72" y="481"/>
      <point x="72" y="410"/>
      <point x="126" y="413" type="curve" smooth="yes"/>
      <point x="687" y="448" type="line" smooth="yes"/>
      <point x="744" y="452"/>
      <point x="745" y="547"/>
      <point x="687" y="541" type="curve" smooth="yes"/>
    </contour>
    <contour>
      <point x="64" y="285" type="line" smooth="yes"/>
      <point x="10" y="292"/>
      <point x="10" y="197"/>
      <point x="64" y="192" type="curve" smooth="yes"/>
      <point x="643" y="140" type="line" smooth="yes"/>
      <point x="700" y="135"/>
      <point x="701" y="206"/>
      <point x="643" y="213" type="curve" smooth="yes"/>
    </contour>
  </outline>
</glyph>
<glyph name="parenleft" format="2">
  <advance width="360"/>
  <unicode hex="0028"/>
  <outline>
    <contour>
      <point x="50" y="341" type="curve" smooth="yes"/>
      <point x="50" y="88"/>
      <point x="146" y="-88"/>
      <point x="259" y="-143" type="curve" smooth="yes"/>
      <point x="322" y="-174"/>
      <point x="370" y="-80"/>
      <point x="311" y="-43" type="curve" smooth="yes"/>
      <point x="180" y="38"/>
      <point x="114" y="157"/>
      <point x="114" y="339" type="curve" smooth="yes"/>
      <point x="114" y="497"/>
      <point x="221" y="594"/>
      <point x="332" y="661" type="curve" smooth="yes"/>
      <point x="421" y="715"/>
      <point x="327" y="887"/>
      <point x="228" y="810" type="curve" smooth="yes"/>
      <point x="138" y="740"/>
      <point x="50" y="586"/>
    </contour>
    <contour>
      <point x="32" y="53" type="line" smooth="yes"/>
      <point x="-4" y="33"/>
      <point x="27" y="-29"/>
      <point x="66" y="-9" type="curve" smooth="yes"/>
      <point x="269" y="95" type="line" smooth="yes"/>
      <point x="302" y="112"/>
      <point x="272" y="185"/>
      <point x="232" y="163" type="curve" smooth="yes"/>
    </contour>
  </outline>
</glyph>
<glyph name="asterisk" format="2">
  <advance width="539"/>
  <unicode hex="002A"/>
  <outline>
    <contour>
      <point x="56" y="516" type="curve" smooth="yes"/>
      <point x="230" y="477" type="line" smooth="yes"/>
      <point x="240" y="475"/>
      <point x="243" y="465"/>
      <point x="236" y="459" type="curve" smooth="yes"/>
      <point x="167" y="403" type="line" smooth="yes"/>
      <point x="114" y="360"/>
      <point x="204" y="292"/>
      <point x="233" y="342" type="curve" smooth="yes"/>
      <point x="280" y="423" type="line" smooth="yes"/>
      <point x="284" y="431"/>
      <point x="295" y="430"/>
      <point x="298" y="421" type="curve" smooth="yes"/>
      <point x="352" y="269" type="line" smooth="yes"/>
      <point x="375" y="204"/>
      <point x="492" y="265"/>
      <point x="449" y="319" type="curve" smooth="yes"/>
      <point x="348" y="447" type="line" smooth="yes"/>
      <point x="341" y="455"/>
      <point x="345" y="465"/>
      <point x="356" y="466" type="curve" smooth="yes"/>
      <point x="482" y="477" type="line" smooth="yes"/>
      <point x="536" y="482"/>
      <point x="522" y="582"/>
      <point x="465" y="563" type="curve" smooth="yes"/>
      <point x="347" y="524" type="line" smooth="yes"/>
      <point x="340" y="522"/>
      <point x="334" y="529"/>
      <point x="335" y="537" type="curve" smooth="yes"/>
      <point x="358" y="698" type="line" smooth="yes"/>
      <point x="365" y="749"/>
      <point x="249" y="755"/>
      <point x="258" y="684" type="curve" smooth="yes"/>
      <point x="276" y="538" type="line" smooth="yes"/>
      <point x="277" y="531"/>
      <point x="271" y="526"/>
      <point x="264" y="529" type="curve" smooth="yes"/>
      <point x="81" y="604" type="line" smooth="yes"/>
      <point x="24" y="627"/>
      <point x="-6" y="530"/>
    </contour>
  </outline>
</glyph>
<glyph name="plus" format="2">
  <advance width="413"/>
  <unicode hex="002B"/>
  <outline>
    <contour>
      <point x="139" y="137" type="line" smooth="yes"/>
      <point x="134" y="90"/>
      <point x="215" y="89"/>
      <point x="218" y="137" type="curve" smooth="yes"/>
      <point x="224" y="246" type="line" smooth="yes"/>
      <point x="225" y="258"/>
      <point x="234" y="264"/>
      <point x="246" y="265" type="curve" smooth="yes"/>
      <point x="360" y="273" type="line" smooth="yes"/>
      <point x="407" y="276"/>
      <point x="402" y="364"/>
      <point x="354" y="358" type="curve" smooth="yes"/>
      <point x="251" y="345" type="line" smooth="yes"/>
      <point x="238" y="343"/>
      <point x="230" y="350"/>
      <point x="231" y="363" type="curve" smooth="yes"/>
      <point x="238" y="485" type="line" smooth="yes"/>
      <point x="241" y="529"/>
      <point x="188" y="531"/>
      <point x="182" y="487" type="curve" smooth="yes"/>
      <point x="163" y="351" type="line" smooth="yes"/>
      <point x="161" y="337"/>
      <point x="155" y="328"/>
      <point x="141" y="326" type="curve" smooth="yes"/>
      <point x="51" y="310" type="line" smooth="yes"/>
      <point x="7" y="302"/>
      <point x="12" y="252"/>
      <point x="56" y="255" type="curve" smooth="yes"/>
      <point x="132" y="261" type="line" smooth="yes"/>
      <point x="146" y="262"/>
      <point x="153" y="253"/>
      <point x="151" y="240" type="curve" smooth="yes"/>
    </contour>
  </outline>
</glyph>
<glyph name="comma" format="2">
  <advance width="266"/>
  <unicode hex="002C"/>
  <outline>
    <contour>
      <point x="22" y="-174" type="curve" smooth="yes"/>
      <point x="-6" y="-205"/>
      <point x="37" y="-244"/>
      <point x="70" y="-211" type="curve" smooth="yes"/>
      <point x="135" y="-145"/>
      <point x="216" y="-28"/>
      <point x="216" y="55" type="curve" smooth="yes"/>
      <point x="216" y="114"/>
      <point x="179" y="153"/>
      <point x="127" y="153" type="curve" smooth="yes"/>
      <point x="80" y="153"/>
      <point x="50" y="131"/>
      <point x="50" y="91" type="curve" smooth="yes"/>
      <point x="50" y="59"/>
      <point x="66" y="38"/>
      <point x="96" y="29" type="curve" smooth="yes"/>
      <point x="125" y="21"/>
      <point x="132" y="7"/>
      <point x="126" y="-14" type="curve" smooth="yes"/>
      <point x="113" y="-58"/>
      <point x="66" y="-124"/>
    </contour>
    <contour>
      <point x="168" y="-21" type="line"/>
      <point x="145" y="-74" type="line"/>
      <point x="222" y="-96" type="line" smooth="yes"/>
      <point x="258" y="-106"/>
      <point x="275" y="-57"/>
      <point x="239" y="-45" type="curve" smooth="yes"/>
    </contour>
    <contour>
      <point x="44" y="-55" type="line" smooth="yes"/>
      <point x="9" y="-37"/>
      <point x="-13" y="-79"/>
      <point x="24" y="-101" type="curve" smooth="yes"/>
      <point x="173" y="-191" type="line" smooth="yes"/>
      <point x="208" y="-212"/>
      <point x="233" y="-152"/>
      <point x="197" y="-134" type="curve" smooth="yes"/>
    </contour>
    <contour>
      <point x="120" y="-117" type="line" smooth="yes"/>
      <point x="138" y="-125"/>
      <point x="153" y="-92"/>
      <point x="137" y="-84" type="curve" smooth="yes"/>
      <point x="120" y="-76" type="line" smooth="yes"/>
      <point x="104" y="-68"/>
      <point x="85" y="-101"/>
      <point x="105" y="-110" type="curve" smooth="yes"/>
    </contour>
  </outline>
</glyph>
<glyph name="period" format="2">
  <advance width="276"/>
  <unicode hex="002E"/>
  <outline>
    <contour>
      <point x="135" y="-19" type="curve" smooth="yes"/>
      <point x="191" y="-19"/>
      <point x="236" y="27"/>
      <point x="236" y="84" type="curve" smooth="yes"/>
      <point x="236" y="145"/>
      <point x="200" y="194"/>
      <point x="140" y="194" type="curve" smooth="yes"/>
      <point x="85" y="194"/>
      <point x="40" y="149"/>
      <point x="40" y="93" type="curve" smooth="yes"/>
      <point x="40" y="25"/>
      <point x="78" y="-19"/>
    </contour>
    <contour>
      <point x="149" y="34" type="curve" smooth="yes"/>
      <point x="126" y="34"/>
      <point x="108" y="52"/>
      <point x="108" y="75" type="curve" smooth="yes"/>
      <point x="108" y="97"/>
      <point x="126" y="116"/>
      <point x="149" y="116" type="curve" smooth="yes"/>
      <point x="171" y="116"/>
      <point x="190" y="97"/>
      <point x="190" y="75" type="curve" smooth="yes"/>
      <point x="190" y="52"/>
      <point x="171" y="34"/>
    </contour>
  </outline>
</glyph>
<glyph name="zero" format="2">
  <advance width="650"/>
  <unicode hex="0030"/>
  <outline>
    <contour>
      <point x="302" y="-14" type="curve" smooth="yes"/>
      <point x="490" y="-14"/>
      <point x="607" y="127"/>
      <point x="607" y="359" type="curve" smooth="yes"/>
      <point x="607" y="600"/>
      <point x="493" y="714"/>
      <point x="331" y="714" type="curve" smooth="yes"/>
      <point x="158" y="714"/>
      <point x="41" y="575"/>
      <point x="41" y="305" type="curve" smooth="yes"/>
      <point x="41" y="110"/>
      <point x="128" y="-14"/>
    </contour>
    <contour>
      <point x="319" y="645" type="curve" smooth="yes"/>
      <point x="372" y="645"/>
      <point x="442" y="621"/>
      <point x="442" y="512" type="curve" smooth="yes"/>
      <point x="442" y="350"/>
      <point x="366" y="105"/>
      <point x="227" y="105" type="curve" smooth="yes"/>
      <point x="151" y="105"/>
      <point x="114" y="190"/>
      <point x="114" y="338" type="curve" smooth="yes"/>
      <point x="114" y="485"/>
      <point x="186" y="645"/>
    </contour>
    <contour>
      <point x="274" y="321" type="curve" smooth="yes"/>
      <point x="308" y="321"/>
      <point x="335" y="348"/>
      <point x="335" y="382" type="curve" smooth="yes"/>
      <point x="335" y="415"/>
      <point x="308" y="443"/>
      <point x="274" y="443" type="curve" smooth="yes"/>
      <point x="241" y="443"/>
      <point x="213" y="415"/>
      <point x="213" y="382" type="curve" smooth="yes"/>
      <point x="213" y="348"/>
      <point x="241" y="321"/>
    </contour>
    <contour>
      <point x="381" y="235" type="curve"/>
      <point x="460" y="167" type="line" smooth="yes"/>
      <point x="496" y="136"/>
      <point x="452" y="94"/>
      <point x="417" y="119" type="curve" smooth="yes"/>
      <point x="342" y="172" type="line"/>
      <point x="362" y="196"/>
      <point x="370" y="213"/>
    </contour>
    <contour>
      <point x="417" y="333" type="curve"/>
      <point x="506" y="301" type="line" smooth="yes"/>
      <point x="551" y="285"/>
      <point x="521" y="213"/>
      <point x="483" y="233" type="curve" smooth="yes"/>
      <point x="399" y="278" type="line"/>
      <point x="407" y="299"/>
      <point x="411" y="312"/>
    </contour>
    <contour>
      <point x="80" y="656" type="line" smooth="yes"/>
      <point x="31" y="690"/>
      <point x="-3" y="621"/>
      <point x="32" y="600" type="curve" smooth="yes"/>
      <point x="197" y="499" type="line" smooth="yes"/>
      <point x="233" y="477"/>
      <point x="270" y="525"/>
      <point x="228" y="554" type="curve" smooth="yes"/>
    </contour>
    <contour>
      <point x="22" y="106" type="line" smooth="yes"/>
      <point x="-22" y="65"/>
      <point x="36" y="16"/>
      <point x="66" y="46" type="curve" smooth="yes"/>
      <point x="215" y="193" type="line" smooth="yes"/>
      <point x="250" y="228"/>
      <point x="208" y="280"/>
      <point x="174" y="248" type="curve" smooth="yes"/>
    </contour>
    <contour>
      <point x="98" y="484" type="line" smooth="yes"/>
      <point x="67" y="494"/>
      <point x="50" y="430"/>
      <point x="77" y="425" type="curve" smooth="yes"/>
      <point x="92" y="422" type="line" smooth="yes"/>
      <point x="120" y="416"/>
      <point x="136" y="472"/>
      <point x="111" y="480" type="curve" smooth="yes"/>
    </contour>
    <contour>
      <point x="491" y="601" type="line" smooth="yes"/>
      <point x="510" y="617"/>
      <point x="481" y="652"/>
      <point x="463" y="632" type="curve" smooth="yes"/>
      <point x="450" y="618" type="line" smooth="yes"/>
      <point x="434" y="601"/>
      <point x="461" y="574"/>
      <point x="475" y="587" type="curve" smooth="yes"/>
    </contour>
    <contour>
      <point x="279" y="379" type="curve" smooth="yes"/>
      <point x="279" y="379"/>
      <point x="279" y="379"/>
      <point x="279" y="379" type="curve" smooth="yes"/>
      <point x="279" y="379"/>
      <point x="279" y="379"/>
      <point x="279" y="379" type="curve" smooth="yes"/>
      <point x="279" y="379"/>
      <point x="279" y="379"/>
      <point x="279" y="379" type="curve" smooth="yes"/>
      <point x="279" y="379"/>
      <point x="279" y="379"/>
    </contour>
    <contour>
      <point x="328" y="155" type="curve"/>
      <point x="328" y="155" type="line"/>
      <point x="317" y="142"/>
      <point x="306" y="134"/>
      <point x="295" y="126" type="curve"/>
      <point x="295" y="126" type="line"/>
      <point x="306" y="134"/>
      <point x="317" y="142"/>
    </contour>
  </outline>
</glyph>
<glyph name="one" format="2">
  <advance width="377"/>
  <unicode hex="0031"/>
  <outline>
    <contour>
      <point x="77" y="573" type="curve" smooth="yes"/>
      <point x="129" y="604" type="line" smooth="yes"/>
      <point x="173" y="630"/>
      <point x="197" y="621"/>
      <point x="187" y="570" type="curve" smooth="yes"/>
      <point x="94" y="94" type="line" smooth="yes"/>
      <point x="60" y="-80"/>
      <point x="342" y="-75"/>
      <point x="332" y="45" type="curve" smooth="yes"/>
      <point x="283" y="610" type="line" smooth="yes"/>
      <point x="274" y="717"/>
      <point x="226" y="723"/>
      <point x="142" y="678" type="curve" smooth="yes"/>
      <point x="54" y="631" type="line" smooth="yes"/>
      <point x="-4" y="600"/>
      <point x="40" y="551"/>
    </contour>
    <contour>
      <point x="322" y="161" type="line"/>
      <point x="327" y="102" type="line"/>
      <point x="252" y="65" type="line" smooth="yes"/>
      <point x="213" y="46"/>
      <point x="182" y="124"/>
      <point x="228" y="136" type="curve" smooth="yes"/>
    </contour>
    <contour>
      <point x="313" y="262" type="line"/>
      <point x="318" y="205" type="line"/>
      <point x="229" y="200" type="line" smooth="yes"/>
      <point x="190" y="198"/>
      <point x="188" y="256"/>
      <point x="228" y="258" type="curve" smooth="yes"/>
    </contour>
    <contour>
      <point x="304" y="366" type="line"/>
      <point x="309" y="308" type="line"/>
      <point x="309" y="308" type="line"/>
      <point x="309" y="308"/>
      <point x="304" y="366"/>
      <point x="304" y="366" type="curve"/>
    </contour>
  </outline>
</glyph>
<glyph name="two" format="2">
  <advance width="485"/>
  <unicode hex="0032"/>
  <outline>
    <contour>
      <point x="453" y="567" type="curve" smooth="yes"/>
      <point x="453" y="675"/>
      <point x="388" y="715"/>
      <point x="262" y="715" type="curve" smooth="yes"/>
      <point x="136" y="715"/>
      <point x="32" y="670"/>
      <point x="32" y="617" type="curve" smooth="yes"/>
      <point x="32" y="588"/>
      <point x="48" y="578"/>
      <point x="69" y="578" type="curve" smooth="yes"/>
      <point x="97" y="578"/>
      <point x="117" y="588"/>
      <point x="168" y="588" type="curve" smooth="yes"/>
      <point x="198" y="588"/>
      <point x="221" y="563"/>
      <point x="221" y="523" type="curve" smooth="yes"/>
      <point x="221" y="472"/>
      <point x="205" y="416"/>
      <point x="178" y="368" type="curve" smooth="yes"/>
      <point x="54" y="152" type="line" smooth="yes"/>
      <point x="4" y="65"/>
      <point x="11" y="-33"/>
      <point x="143" y="-16" type="curve" smooth="yes"/>
      <point x="432" y="21" type="line" smooth="yes"/>
      <point x="480" y="27"/>
      <point x="471" y="124"/>
      <point x="416" y="112" type="curve" smooth="yes"/>
      <point x="133" y="52" type="line" smooth="yes"/>
      <point x="78" y="40"/>
      <point x="78" y="90"/>
      <point x="120" y="130" type="curve" smooth="yes"/>
      <point x="264" y="268" type="line" smooth="yes"/>
      <point x="382" y="381"/>
      <point x="453" y="475"/>
    </contour>
    <contour>
      <point x="257" y="607" type="curve" smooth="yes"/>
      <point x="238" y="607"/>
      <point x="223" y="622"/>
      <point x="223" y="641" type="curve" smooth="yes"/>
      <point x="223" y="659"/>
      <point x="238" y="674"/>
      <point x="257" y="674" type="curve" smooth="yes"/>
      <point x="275" y="674"/>
      <point x="290" y="659"/>
      <point x="290" y="641" type="curve" smooth="yes"/>
      <point x="290" y="622"/>
      <point x="275" y="607"/>
    </contour>
    <contour>
      <point x="335" y="533" type="curve" smooth="yes"/>
      <point x="312" y="533"/>
      <point x="294" y="551"/>
      <point x="294" y="574" type="curve" smooth="yes"/>
      <point x="294" y="597"/>
      <point x="312" y="615"/>
      <point x="335" y="615" type="curve" smooth="yes"/>
      <point x="358" y="615"/>
      <point x="376" y="597"/>
      <point x="376" y="574" type="curve" smooth="yes"/>
      <point x="376" y="551"/>
      <point x="358" y="533"/>
    </contour>
    <contour>
      <point x="319" y="427" type="curve" smooth="yes"/>
      <point x="298" y="427"/>
      <point x="282" y="443"/>
      <point x="282" y="463" type="curve" smooth="yes"/>
      <point x="282" y="484"/>
      <point x="298" y="499"/>
      <point x="319" y="499" type="curve" smooth="yes"/>
      <point x="339" y="499"/>
      <point x="354" y="484"/>
      <point x="354" y="463" type="curve" smooth="yes"/>
      <point x="354" y="443"/>
      <point x="339" y="427"/>
    </contour>
    <contour>
      <point x="365" y="152" type="line" smooth="yes"/>
      <point x="355" y="211"/>
      <point x="291" y="186"/>
      <point x="300" y="146" type="curve" smooth="yes"/>
      <point x="340" y="-42" type="line" smooth="yes"/>
      <point x="349" y="-83"/>
      <point x="402" y="-75"/>
      <point x="394" y="-25" type="curve" smooth="yes"/>
    </contour>
    <contour>
      <point x="283" y="26" type="line" smooth="yes"/>
      <point x="284" y="64"/>
      <point x="218" y="57"/>
      <point x="218" y="24" type="curve" smooth="yes"/>
      <point x="217" y="-75" type="line" smooth="yes"/>
      <point x="217" y="-114"/>
      <point x="280" y="-111"/>
      <point x="281" y="-62" type="curve" smooth="yes"/>
    </contour>
    <contour>
      <point x="309" y="56" type="line" smooth="yes"/>
      <point x="307" y="82"/>
      <point x="254" y="79"/>
      <point x="256" y="52" type="curve" smooth="yes"/>
      <point x="257" y="36" type="line" smooth="yes"/>
      <point x="259" y="2"/>
      <point x="312" y="7"/>
      <point x="310" y="41" type="curve" smooth="yes"/>
    </contour>
    <contour>
      <point x="218" y="354" type="line" smooth="yes"/>
      <point x="186" y="367"/>
      <point x="155" y="307"/>
      <point x="189" y="292" type="curve" smooth="yes"/>
      <point x="212" y="282" type="line" smooth="yes"/>
      <point x="241" y="269"/>
      <point x="275" y="331"/>
      <point x="238" y="346" type="curve" smooth="yes"/>
    </contour>
    <contour>
      <point x="259" y="510" type="curve" smooth="yes"/>
      <point x="272" y="510"/>
      <point x="282" y="520"/>
      <point x="282" y="533" type="curve" smooth="yes"/>
      <point x="282" y="546"/>
      <point x="272" y="556"/>
      <point x="259" y="556" type="curve" smooth="yes"/>
      <point x="246" y="556"/>
      <point x="236" y="546"/>
      <point x="236" y="533" type="curve" smooth="yes"/>
      <point x="236" y="520"/>
      <point x="246" y="510"/>
    </contour>
  </outline>
</glyph>
<glyph name="three" format="2">
  <advance width="493"/>
  <unicode hex="0033"/>
  <outline>
    <contour>
      <point x="187" y="0" type="curve" smooth="yes"/>
      <point x="343" y="0"/>
      <point x="449" y="84"/>
      <point x="449" y="230" type="curve" smooth="yes"/>
      <point x="449" y="317"/>
      <point x="364" y="355"/>
      <point x="248" y="385" type="curve" smooth="yes"/>
      <point x="231" y="389"/>
      <point x="217" y="395"/>
      <point x="243" y="413" type="curve" smooth="yes"/>
      <point x="418" y="533" type="line" smooth="yes"/>
      <point x="476" y="573"/>
      <point x="469" y="642"/>
      <point x="414" y="656" type="curve" smooth="yes"/>
      <point x="135" y="727" type="line" smooth="yes"/>
      <point x="16" y="757"/>
      <point x="-20" y="555"/>
      <point x="89" y="547" type="curve" smooth="yes"/>
      <point x="262" y="534" type="line" smooth="yes"/>
      <point x="286" y="532"/>
      <point x="294" y="508"/>
      <point x="268" y="489" type="curve" smooth="yes"/>
      <point x="189" y="430" type="line" smooth="yes"/>
      <point x="146" y="398"/>
      <point x="148" y="353"/>
      <point x="200" y="343" type="curve" smooth="yes"/>
      <point x="220" y="339" type="line" smooth="yes"/>
      <point x="335" y="316"/>
      <point x="360" y="287"/>
      <point x="360" y="253" type="curve" smooth="yes"/>
      <point x="360" y="190"/>
      <point x="309" y="172"/>
      <point x="260" y="172" type="curve" smooth="yes"/>
      <point x="203" y="172"/>
      <point x="175" y="195"/>
      <point x="108" y="195" type="curve" smooth="yes"/>
      <point x="72" y="195"/>
      <point x="30" y="169"/>
      <point x="30" y="103" type="curve" smooth="yes"/>
      <point x="30" y="33"/>
      <point x="93" y="0"/>
    </contour>
    <contour>
      <point x="133" y="62" type="curve" smooth="yes"/>
      <point x="110" y="62"/>
      <point x="92" y="80"/>
      <point x="92" y="103" type="curve" smooth="yes"/>
      <point x="92" y="126"/>
      <point x="110" y="144"/>
      <point x="133" y="144" type="curve" smooth="yes"/>
      <point x="156" y="144"/>
      <point x="174" y="126"/>
      <point x="174" y="103" type="curve" smooth="yes"/>
      <point x="174" y="80"/>
      <point x="156" y="62"/>
    </contour>
    <contour>
      <point x="244" y="54" type="curve" smooth="yes"/>
      <point x="222" y="54"/>
      <point x="206" y="70"/>
      <point x="206" y="92" type="curve" smooth="yes"/>
      <point x="206" y="113"/>
      <point x="222" y="129"/>
      <point x="244" y="129" type="curve" smooth="yes"/>
      <point x="265" y="129"/>
      <point x="281" y="113"/>
      <point x="281" y="92" type="curve" smooth="yes"/>
      <point x="281" y="70"/>
      <point x="265" y="54"/>
    </contour>
    <contour>
      <point x="168" y="719" type="line"/>
      <point x="225" y="704" type="line"/>
      <point x="197" y="619" type="line" smooth="yes"/>
      <point x="185" y="581"/>
      <point x="130" y="599"/>
      <point x="142" y="638" type="curve" smooth="yes"/>
    </contour>
    <contour>
      <point x="265" y="694" type="line"/>
      <point x="321" y="680" type="line"/>
      <point x="303" y="608" type="line" smooth="yes"/>
      <point x="294" y="570"/>
      <point x="240" y="583"/>
      <point x="249" y="622" type="curve" smooth="yes"/>
    </contour>
    <contour>
      <point x="389" y="174" type="curve" smooth="yes"/>
      <point x="399" y="174"/>
      <point x="409" y="184"/>
      <point x="409" y="195" type="curve" smooth="yes"/>
      <point x="409" y="205"/>
      <point x="399" y="215"/>
      <point x="389" y="215" type="curve" smooth="yes"/>
      <point x="378" y="215"/>
      <point x="368" y="205"/>
      <point x="368" y="195" type="curve" smooth="yes"/>
      <point x="368" y="184"/>
      <point x="378" y="174"/>
    </contour>
    <contour>
      <point x="190" y="162" type="line" smooth="yes"/>
      <point x="185" y="151"/>
      <point x="212" y="136"/>
      <point x="217" y="148" type="curve" smooth="yes"/>
      <point x="220" y="155" type="line" smooth="yes"/>
      <point x="225" y="167"/>
      <point x="200" y="182"/>
      <point x="193" y="168" type="curve" smooth="yes"/>
    </contour>
    <contour>
      <point x="97" y="600" type="line" smooth="yes"/>
      <point x="76" y="613"/>
      <point x="57" y="588"/>
      <point x="78" y="575" type="curve" smooth="yes"/>
      <point x="97" y="563" type="line" smooth="yes"/>
      <point x="115" y="552"/>
      <point x="133" y="578"/>
      <point x="115" y="589" type="curve" smooth="yes"/>
    </contour>
    <contour>
      <point x="355" y="304" type="line" smooth="yes"/>
      <point x="348" y="295"/>
      <point x="368" y="275"/>
      <point x="378" y="283" type="curve" smooth="yes"/>
      <point x="399" y="301" type="line" smooth="yes"/>
      <point x="411" y="311"/>
      <point x="384" y="339"/>
      <point x="372" y="325" type="curve" smooth="yes"/>
    </contour>
    <contour>
      <point x="364" y="547" type="line" smooth="yes"/>
      <point x="347" y="567"/>
      <point x="318" y="540"/>
      <point x="335" y="523" type="curve" smooth="yes"/>
      <point x="348" y="510" type="line" smooth="yes"/>
      <point x="363" y="495"/>
      <point x="387" y="520"/>
      <point x="375" y="534" type="curve" smooth="yes"/>
    </contour>
  </outline>
</glyph>
<glyph name="four" format="2">
  <advance width="577"/>
  <unicode hex="0034"/>
  <outline>
    <contour>
      <point x="139" y="140" type="curve" smooth="yes"/>
      <point x="530" y="183" type="line" smooth="yes"/>
      <point x="572" y="188"/>
      <point x="567" y="257"/>
      <point x="525" y="252" type="curve" smooth="yes"/>
      <point x="156" y="206" type="line" smooth="yes"/>
      <point x="126" y="202"/>
      <point x="120" y="231"/>
      <point x="146" y="251" type="curve" smooth="yes"/>
      <point x="365" y="423" type="line" smooth="yes"/>
      <point x="390" y="442"/>
      <point x="410" y="430"/>
      <point x="408" y="402" type="curve" smooth="yes"/>
      <point x="374" y="-45" type="line" smooth="yes"/>
      <point x="371" y="-90"/>
      <point x="441" y="-91"/>
      <point x="444" y="-44" type="curve" smooth="yes"/>
      <point x="484" y="620" type="line" smooth="yes"/>
      <point x="492" y="756"/>
      <point x="315" y="779"/>
      <point x="259" y="671" type="curve" smooth="yes"/>
      <point x="62" y="291" type="line" smooth="yes"/>
      <point x="21" y="213"/>
      <point x="51" y="130"/>
    </contour>
    <contour>
      <point x="500" y="30" type="line" smooth="yes"/>
      <point x="558" y="34"/>
      <point x="544" y="94"/>
      <point x="500" y="91" type="curve" smooth="yes"/>
      <point x="313" y="78" type="line" smooth="yes"/>
      <point x="271" y="75"/>
      <point x="273" y="16"/>
      <point x="323" y="19" type="curve" smooth="yes"/>
    </contour>
    <contour>
      <point x="218" y="592" type="line"/>
      <point x="250" y="653" type="line"/>
      <point x="339" y="597" type="line" smooth="yes"/>
      <point x="372" y="576"/>
      <point x="345" y="520"/>
      <point x="308" y="541" type="curve" smooth="yes"/>
    </contour>
    <contour>
      <point x="157" y="475" type="line"/>
      <point x="191" y="540" type="line"/>
      <point x="261" y="510" type="line" smooth="yes"/>
      <point x="308" y="490"/>
      <point x="277" y="430"/>
      <point x="236" y="445" type="curve" smooth="yes"/>
    </contour>
    <contour>
      <point x="153" y="286" type="line" smooth="yes"/>
      <point x="178" y="283"/>
      <point x="180" y="319"/>
      <point x="157" y="321" type="curve" smooth="yes"/>
      <point x="146" y="322" type="line" smooth="yes"/>
      <point x="129" y="324"/>
      <point x="124" y="290"/>
      <point x="145" y="287" type="curve" smooth="yes"/>
    </contour>
    <contour>
      <point x="443" y="302" type="line" smooth="yes"/>
      <point x="467" y="302"/>
      <point x="466" y="353"/>
      <point x="443" y="350" type="curve" smooth="yes"/>
      <point x="427" y="348" type="line" smooth="yes"/>
      <point x="407" y="346"/>
      <point x="410" y="302"/>
      <point x="430" y="302" type="curve" smooth="yes"/>
    </contour>
    <contour>
      <point x="444" y="389" type="line" smooth="yes"/>
      <point x="470" y="387"/>
      <point x="474" y="437"/>
      <point x="451" y="437" type="curve" smooth="yes"/>
      <point x="428" y="437" type="line"/>
      <point x="423" y="391" type="line"/>
    </contour>
    <contour>
      <point x="303" y="374" type="line"/>
      <point x="267" y="346" type="line"/>
      <point x="267" y="346" type="line"/>
      <point x="267" y="346"/>
      <point x="303" y="374"/>
      <point x="303" y="374" type="curve"/>
    </contour>
  </outline>
</glyph>
<glyph name="five" format="2">
  <advance width="470"/>
  <unicode hex="0035"/>
  <outline>
    <contour>
      <point x="49" y="427" type="line" smooth="yes"/>
      <point x="64" y="339"/>
      <point x="111" y="308"/>
      <point x="173" y="317" type="curve" smooth="yes"/>
      <point x="250" y="328" type="line" smooth="yes"/>
      <point x="329" y="339"/>
      <point x="371" y="298"/>
      <point x="371" y="233" type="curve" smooth="yes"/>
      <point x="371" y="137"/>
      <point x="330" y="67"/>
      <point x="236" y="67" type="curve" smooth="yes"/>
      <point x="150" y="67"/>
      <point x="96" y="101"/>
      <point x="74" y="101" type="curve" smooth="yes"/>
      <point x="57" y="101"/>
      <point x="49" y="91"/>
      <point x="49" y="67" type="curve" smooth="yes"/>
      <point x="49" y="20"/>
      <point x="154" y="-10"/>
      <point x="230" y="-10" type="curve" smooth="yes"/>
      <point x="349" y="-10"/>
      <point x="443" y="61"/>
      <point x="443" y="219" type="curve" smooth="yes"/>
      <point x="443" y="343"/>
      <point x="371" y="409"/>
      <point x="271" y="395" type="curve" smooth="yes"/>
      <point x="235" y="390" type="line" smooth="yes"/>
      <point x="214" y="387"/>
      <point x="209" y="409"/>
      <point x="216" y="439" type="curve" smooth="yes"/>
      <point x="250" y="588" type="line" smooth="yes"/>
      <point x="257" y="618"/>
      <point x="273" y="629"/>
      <point x="300" y="633" type="curve" smooth="yes"/>
      <point x="372" y="644" type="line" smooth="yes"/>
      <point x="423" y="652"/>
      <point x="414" y="711"/>
      <point x="367" y="704" type="curve" smooth="yes"/>
      <point x="107" y="666" type="line" smooth="yes"/>
      <point x="47" y="657"/>
      <point x="14" y="629"/>
      <point x="27" y="555" type="curve" smooth="yes"/>
    </contour>
    <contour>
      <point x="143" y="522" type="curve" smooth="yes"/>
      <point x="121" y="522"/>
      <point x="103" y="540"/>
      <point x="103" y="562" type="curve" smooth="yes"/>
      <point x="103" y="584"/>
      <point x="121" y="602"/>
      <point x="143" y="602" type="curve" smooth="yes"/>
      <point x="165" y="602"/>
      <point x="183" y="584"/>
      <point x="183" y="562" type="curve" smooth="yes"/>
      <point x="183" y="540"/>
      <point x="165" y="522"/>
    </contour>
    <contour>
      <point x="143" y="413" type="curve" smooth="yes"/>
      <point x="124" y="413"/>
      <point x="108" y="429"/>
      <point x="108" y="448" type="curve" smooth="yes"/>
      <point x="108" y="467"/>
      <point x="124" y="483"/>
      <point x="143" y="483" type="curve" smooth="yes"/>
      <point x="162" y="483"/>
      <point x="178" y="467"/>
      <point x="178" y="448" type="curve" smooth="yes"/>
      <point x="178" y="429"/>
      <point x="162" y="413"/>
    </contour>
    <contour>
      <point x="412" y="21" type="line" smooth="yes"/>
      <point x="457" y="-14"/>
      <point x="487" y="33"/>
      <point x="455" y="60" type="curve" smooth="yes"/>
      <point x="329" y="168" type="line" smooth="yes"/>
      <point x="297" y="196"/>
      <point x="252" y="145"/>
      <point x="290" y="115" type="curve" smooth="yes"/>
    </contour>
    <contour>
      <point x="107" y="-43" type="line" smooth="yes"/>
      <point x="95" y="-98"/>
      <point x="167" y="-101"/>
      <point x="173" y="-59" type="curve" smooth="yes"/>
      <point x="203" y="139" type="line" smooth="yes"/>
      <point x="210" y="182"/>
      <point x="159" y="195"/>
      <point x="148" y="146" type="curve" smooth="yes"/>
    </contour>
    <contour>
      <point x="257" y="-50" type="line" smooth="yes"/>
      <point x="273" y="-105"/>
      <point x="343" y="-77"/>
      <point x="330" y="-34" type="curve" smooth="yes"/>
      <point x="309" y="35" type="line" smooth="yes"/>
      <point x="294" y="84"/>
      <point x="224" y="60"/>
      <point x="239" y="11" type="curve" smooth="yes"/>
    </contour>
    <contour>
      <point x="288" y="655" type="line" smooth="yes"/>
      <point x="292" y="638"/>
      <point x="318" y="646"/>
      <point x="317" y="664" type="curve" smooth="yes"/>
      <point x="316" y="676" type="line" smooth="yes"/>
      <point x="314" y="694"/>
      <point x="282" y="684"/>
      <point x="285" y="669" type="curve" smooth="yes"/>
    </contour>
    <contour>
      <point x="197" y="647" type="line" smooth="yes"/>
      <point x="197" y="629"/>
      <point x="232" y="631"/>
      <point x="232" y="649" type="curve" smooth="yes"/>
      <point x="232" y="659" type="line" smooth="yes"/>
      <point x="232" y="677"/>
      <point x="197" y="675"/>
      <point x="197" y="660" type="curve" smooth="yes"/>
    </contour>
    <contour>
      <point x="289" y="358" type="line"/>
      <point x="318" y="348" type="line"/>
      <point x="325" y="367" type="line" smooth="yes"/>
      <point x="331" y="383"/>
      <point x="305" y="390"/>
      <point x="298" y="376" type="curve" smooth="yes"/>
    </contour>
    <contour>
      <point x="340" y="348" type="line"/>
      <point x="365" y="324" type="line"/>
      <point x="377" y="336" type="line" smooth="yes"/>
      <point x="390" y="349"/>
      <point x="361" y="373"/>
      <point x="350" y="360" type="curve" smooth="yes"/>
    </contour>
    <contour>
      <point x="134" y="631" type="line"/>
      <point x="165" y="634" type="line"/>
      <point x="167" y="649" type="line" smooth="yes"/>
      <point x="169" y="667"/>
      <point x="130" y="662"/>
      <point x="132" y="647" type="curve" smooth="yes"/>
    </contour>
  </outline>
</glyph>
<glyph name="six" format="2">
  <advance width="507"/>
  <unicode hex="0036"/>
  <outline>
    <contour>
      <point x="159" y="193" type="curve" smooth="yes"/>
      <point x="100" y="193"/>
      <point x="81" y="234"/>
      <point x="81" y="295" type="curve" smooth="yes"/>
      <point x="81" y="346"/>
      <point x="139" y="369"/>
      <point x="253" y="369" type="curve" smooth="yes"/>
      <point x="375" y="369"/>
      <point x="407" y="362"/>
      <point x="407" y="306" type="curve" smooth="yes"/>
      <point x="407" y="234"/>
      <point x="253" y="193"/>
    </contour>
    <contour>
      <point x="225" y="-15" type="curve" smooth="yes"/>
      <point x="417" y="-15"/>
      <point x="488" y="55"/>
      <point x="488" y="255" type="curve" smooth="yes"/>
      <point x="488" y="376"/>
      <point x="409" y="433"/>
      <point x="268" y="433" type="curve" smooth="yes"/>
      <point x="252" y="433"/>
      <point x="231" y="431"/>
      <point x="214" y="427" type="curve" smooth="yes"/>
      <point x="188" y="422"/>
      <point x="173" y="433"/>
      <point x="201" y="458" type="curve" smooth="yes"/>
      <point x="432" y="661" type="line" smooth="yes"/>
      <point x="478" y="702"/>
      <point x="416" y="770"/>
      <point x="366" y="720" type="curve" smooth="yes"/>
      <point x="152" y="509" type="line" smooth="yes"/>
      <point x="64" y="423"/>
      <point x="17" y="357"/>
      <point x="17" y="262" type="curve" smooth="yes"/>
      <point x="17" y="95"/>
      <point x="75" y="-15"/>
    </contour>
    <contour>
      <point x="275" y="49" type="curve" smooth="yes"/>
      <point x="251" y="49"/>
      <point x="230" y="70"/>
      <point x="230" y="94" type="curve" smooth="yes"/>
      <point x="230" y="119"/>
      <point x="251" y="140"/>
      <point x="275" y="140" type="curve" smooth="yes"/>
      <point x="300" y="140"/>
      <point x="321" y="119"/>
      <point x="321" y="94" type="curve" smooth="yes"/>
      <point x="321" y="70"/>
      <point x="300" y="49"/>
    </contour>
    <contour>
      <point x="150" y="60" type="curve" smooth="yes"/>
      <point x="129" y="60"/>
      <point x="112" y="77"/>
      <point x="112" y="98" type="curve" smooth="yes"/>
      <point x="112" y="119"/>
      <point x="129" y="136"/>
      <point x="150" y="136" type="curve" smooth="yes"/>
      <point x="171" y="136"/>
      <point x="188" y="119"/>
      <point x="188" y="98" type="curve" smooth="yes"/>
      <point x="188" y="77"/>
      <point x="171" y="60"/>
    </contour>
    <contour>
      <point x="391" y="127" type="curve" smooth="yes"/>
      <point x="370" y="127"/>
      <point x="353" y="144"/>
      <point x="353" y="165" type="curve" smooth="yes"/>
      <point x="353" y="185"/>
      <point x="370" y="202"/>
      <point x="391" y="202" type="curve" smooth="yes"/>
      <point x="411" y="202"/>
      <point x="428" y="185"/>
      <point x="428" y="165" type="curve" smooth="yes"/>
      <point x="428" y="144"/>
      <point x="411" y="127"/>
    </contour>
    <contour>
      <point x="433" y="538" type="line" smooth="yes"/>
      <point x="476" y="501"/>
      <point x="506" y="549"/>
      <point x="475" y="577" type="curve" smooth="yes"/>
      <point x="308" y="729" type="line" smooth="yes"/>
      <point x="276" y="758"/>
      <point x="227" y="715"/>
      <point x="264" y="683" type="curve" smooth="yes"/>
    </contour>
    <contour>
      <point x="308" y="491" type="line" smooth="yes"/>
      <point x="352" y="463"/>
      <point x="386" y="507"/>
      <point x="345" y="537" type="curve" smooth="yes"/>
      <point x="184" y="654" type="line" smooth="yes"/>
      <point x="144" y="683"/>
      <point x="97" y="624"/>
      <point x="142" y="596" type="curve" smooth="yes"/>
    </contour>
    <contour>
      <point x="111" y="367" type="curve" smooth="yes"/>
      <point x="123" y="367"/>
      <point x="134" y="378"/>
      <point x="134" y="391" type="curve" smooth="yes"/>
      <point x="134" y="403"/>
      <point x="123" y="414"/>
      <point x="111" y="414" type="curve" smooth="yes"/>
      <point x="98" y="414"/>
      <point x="87" y="403"/>
      <point x="87" y="391" type="curve" smooth="yes"/>
      <point x="87" y="378"/>
      <point x="98" y="367"/>
    </contour>
    <contour>
      <point x="165" y="461" type="line"/>
      <point x="187" y="482" type="line"/>
      <point x="180" y="491" type="line" smooth="yes"/>
      <point x="169" y="506"/>
      <point x="143" y="483"/>
      <point x="155" y="471" type="curve" smooth="yes"/>
    </contour>
    <contour>
      <point x="300" y="581" type="line"/>
      <point x="323" y="602" type="line"/>
      <point x="310" y="617" type="line" smooth="yes"/>
      <point x="296" y="633"/>
      <point x="269" y="612"/>
      <point x="284" y="597" type="curve" smooth="yes"/>
    </contour>
    <contour>
      <point x="369" y="399" type="line"/>
      <point x="363" y="389" type="line" smooth="yes"/>
      <point x="354" y="374"/>
      <point x="383" y="359"/>
      <point x="390" y="375" type="curve" smooth="yes"/>
      <point x="395" y="386" type="line"/>
    </contour>
    <contour>
      <point x="443" y="322" type="line"/>
      <point x="431" y="319" type="line" smooth="yes"/>
      <point x="417" y="315"/>
      <point x="425" y="282"/>
      <point x="437" y="285" type="curve" smooth="yes"/>
      <point x="450" y="288" type="line"/>
    </contour>
    <contour>
      <point x="88" y="168" type="line"/>
      <point x="100" y="179" type="line" smooth="yes"/>
      <point x="116" y="193"/>
      <point x="86" y="220"/>
      <point x="74" y="207" type="curve" smooth="yes"/>
      <point x="61" y="192" type="line"/>
    </contour>
  </outline>
</glyph>
<glyph name="seven" format="2">
  <advance width="472"/>
  <unicode hex="0037"/>
  <outline>
    <contour>
      <point x="265" y="64" type="curve" smooth="yes"/>
      <point x="426" y="477" type="line" smooth="yes"/>
      <point x="464" y="574"/>
      <point x="429" y="665"/>
      <point x="345" y="680" type="curve" smooth="yes"/>
      <point x="138" y="718" type="line" smooth="yes"/>
      <point x="-17" y="746"/>
      <point x="-30" y="502"/>
      <point x="118" y="517" type="curve" smooth="yes"/>
      <point x="326" y="538" type="line" smooth="yes"/>
      <point x="363" y="542"/>
      <point x="372" y="515"/>
      <point x="361" y="489" type="curve" smooth="yes"/>
      <point x="186" y="96" type="line" smooth="yes"/>
      <point x="158" y="32"/>
      <point x="244" y="10"/>
    </contour>
    <contour>
      <point x="361" y="97" type="line" smooth="yes"/>
      <point x="409" y="64"/>
      <point x="439" y="135"/>
      <point x="403" y="157" type="curve" smooth="yes"/>
      <point x="220" y="272" type="line" smooth="yes"/>
      <point x="187" y="293"/>
      <point x="154" y="240"/>
      <point x="195" y="212" type="curve" smooth="yes"/>
    </contour>
    <contour>
      <point x="401" y="277" type="line" smooth="yes"/>
      <point x="454" y="260"/>
      <point x="479" y="337"/>
      <point x="439" y="348" type="curve" smooth="yes"/>
      <point x="211" y="413" type="line" smooth="yes"/>
      <point x="175" y="423"/>
      <point x="148" y="359"/>
      <point x="193" y="344" type="curve" smooth="yes"/>
    </contour>
    <contour>
      <point x="272" y="693" type="line"/>
      <point x="337" y="681" type="line"/>
      <point x="318" y="593" type="line" smooth="yes"/>
      <point x="310" y="554"/>
      <point x="242" y="563"/>
      <point x="252" y="606" type="curve" smooth="yes"/>
    </contour>
    <contour>
      <point x="145" y="717" type="line"/>
      <point x="210" y="705" type="line"/>
      <point x="195" y="611" type="line" smooth="yes"/>
      <point x="189" y="572"/>
      <point x="134" y="573"/>
      <point x="137" y="611" type="curve" smooth="yes"/>
    </contour>
    <contour>
      <point x="241" y="98" type="line"/>
      <point x="261" y="143" type="line"/>
      <point x="244" y="147" type="line" smooth="yes"/>
      <point x="215" y="154"/>
      <point x="205" y="114"/>
      <point x="230" y="103" type="curve" smooth="yes"/>
    </contour>
    <contour>
      <point x="372" y="416" type="line" smooth="yes"/>
      <point x="398" y="403"/>
      <point x="421" y="454"/>
      <point x="392" y="462" type="curve" smooth="yes"/>
      <point x="378" y="466" type="line" smooth="yes"/>
      <point x="349" y="474"/>
      <point x="333" y="435"/>
      <point x="362" y="421" type="curve" smooth="yes"/>
    </contour>
    <contour>
      <point x="343" y="680" type="line"/>
      <point x="376" y="670" type="line"/>
      <point x="376" y="670" type="line"/>
      <point x="376" y="670"/>
      <point x="343" y="680"/>
      <point x="343" y="680" type="curve"/>
    </contour>
  </outline>
</glyph>
<glyph name="eight" format="2">
  <advance width="544"/>
  <unicode hex="0038"/>
  <outline>
    <contour>
      <point x="283" y="306" type="curve" smooth="yes"/>
      <point x="398" y="306"/>
      <point x="537" y="350"/>
      <point x="537" y="513" type="curve" smooth="yes"/>
      <point x="537" y="656"/>
      <point x="440" y="728"/>
      <point x="283" y="728" type="curve" smooth="yes"/>
      <point x="115" y="728"/>
      <point x="15" y="660"/>
      <point x="15" y="526" type="curve" smooth="yes"/>
      <point x="15" y="362"/>
      <point x="119" y="306"/>
    </contour>
    <contour>
      <point x="278" y="5" type="curve" smooth="yes"/>
      <point x="427" y="5"/>
      <point x="501" y="68"/>
      <point x="501" y="181" type="curve" smooth="yes"/>
      <point x="501" y="300"/>
      <point x="402" y="341"/>
      <point x="293" y="341" type="curve" smooth="yes"/>
      <point x="156" y="341"/>
      <point x="51" y="295"/>
      <point x="51" y="165" type="curve" smooth="yes"/>
      <point x="51" y="53"/>
      <point x="123" y="5"/>
    </contour>
    <contour>
      <point x="185" y="469" type="curve" smooth="yes"/>
      <point x="123" y="469"/>
      <point x="87" y="496"/>
      <point x="87" y="553" type="curve" smooth="yes"/>
      <point x="87" y="635"/>
      <point x="191" y="660"/>
      <point x="275" y="660" type="curve" smooth="yes"/>
      <point x="367" y="660"/>
      <point x="429" y="644"/>
      <point x="429" y="594" type="curve" smooth="yes"/>
      <point x="429" y="527"/>
      <point x="327" y="469"/>
    </contour>
    <contour>
      <point x="284" y="73" type="curve" smooth="yes"/>
      <point x="157" y="73"/>
      <point x="120" y="123"/>
      <point x="120" y="176" type="curve" smooth="yes"/>
      <point x="120" y="246"/>
      <point x="186" y="278"/>
      <point x="301" y="278" type="curve" smooth="yes"/>
      <point x="371" y="278"/>
      <point x="428" y="254"/>
      <point x="428" y="170" type="curve" smooth="yes"/>
      <point x="428" y="109"/>
      <point x="386" y="73"/>
    </contour>
    <contour>
      <point x="160" y="33" type="line" smooth="yes"/>
      <point x="184" y="71"/>
      <point x="133" y="101"/>
      <point x="105" y="66" type="curve" smooth="yes"/>
      <point x="59" y="8" type="line" smooth="yes"/>
      <point x="32" y="-26"/>
      <point x="95" y="-72"/>
      <point x="120" y="-31" type="curve" smooth="yes"/>
    </contour>
    <contour>
      <point x="275" y="24" type="line" smooth="yes"/>
      <point x="269" y="68"/>
      <point x="209" y="66"/>
      <point x="212" y="24" type="curve" smooth="yes"/>
      <point x="221" y="-85" type="line" smooth="yes"/>
      <point x="225" y="-136"/>
      <point x="297" y="-125"/>
      <point x="290" y="-78" type="curve" smooth="yes"/>
    </contour>
    <contour>
      <point x="414" y="46" type="line" smooth="yes"/>
      <point x="397" y="87"/>
      <point x="340" y="66"/>
      <point x="353" y="26" type="curve" smooth="yes"/>
      <point x="377" y="-50" type="line" smooth="yes"/>
      <point x="391" y="-93"/>
      <point x="463" y="-71"/>
      <point x="444" y="-26" type="curve" smooth="yes"/>
    </contour>
    <contour>
      <point x="232" y="434" type="curve" smooth="yes"/>
      <point x="253" y="434"/>
      <point x="270" y="417"/>
      <point x="270" y="396" type="curve" smooth="yes"/>
      <point x="270" y="376"/>
      <point x="253" y="359"/>
      <point x="232" y="359" type="curve" smooth="yes"/>
      <point x="212" y="359"/>
      <point x="195" y="376"/>
      <point x="195" y="396" type="curve" smooth="yes"/>
      <point x="195" y="417"/>
      <point x="212" y="434"/>
    </contour>
    <contour>
      <point x="343" y="446" type="curve" smooth="yes"/>
      <point x="366" y="446"/>
      <point x="385" y="427"/>
      <point x="385" y="404" type="curve" smooth="yes"/>
      <point x="385" y="381"/>
      <point x="366" y="362"/>
      <point x="343" y="362" type="curve" smooth="yes"/>
      <point x="320" y="362"/>
      <point x="301" y="381"/>
      <point x="301" y="404" type="curve" smooth="yes"/>
      <point x="301" y="427"/>
      <point x="320" y="446"/>
    </contour>
    <contour>
      <point x="437" y="493" type="curve" smooth="yes"/>
      <point x="457" y="493"/>
      <point x="473" y="477"/>
      <point x="473" y="457" type="curve" smooth="yes"/>
      <point x="473" y="438"/>
      <point x="457" y="422"/>
      <point x="437" y="422" type="curve" smooth="yes"/>
      <point x="418" y="422"/>
      <point x="402" y="438"/>
      <point x="402" y="457" type="curve" smooth="yes"/>
      <point x="402" y="477"/>
      <point x="418" y="493"/>
    </contour>
    <contour>
      <point x="62" y="498" type="curve" smooth="yes"/>
      <point x="72" y="498"/>
      <point x="79" y="506"/>
      <point x="79" y="516" type="curve" smooth="yes"/>
      <point x="79" y="526"/>
      <point x="72" y="533"/>
      <point x="62" y="533" type="curve" smooth="yes"/>
      <point x="52" y="533"/>
      <point x="44" y="526"/>
      <point x="44" y="516" type="curve" smooth="yes"/>
      <point x="44" y="506"/>
      <point x="52" y="498"/>
    </contour>
    <contour>
      <point x="452" y="176" type="line" smooth="yes"/>
      <point x="435" y="182"/>
      <point x="429" y="151"/>
      <point x="445" y="145" type="curve" smooth="yes"/>
      <point x="456" y="141" type="line" smooth="yes"/>
      <point x="474" y="135"/>
      <point x="481" y="166"/>
      <point x="464" y="172" type="curve" smooth="yes"/>
    </contour>
    <contour>
      <point x="84" y="129" type="line"/>
      <point x="91" y="100" type="line"/>
      <point x="106" y="103" type="line" smooth="yes"/>
      <point x="124" y="107"/>
      <point x="115" y="141"/>
      <point x="100" y="135" type="curve" smooth="yes"/>
    </contour>
    <contour>
      <point x="144" y="292" type="line"/>
      <point x="117" y="267" type="line"/>
      <point x="128" y="256" type="line" smooth="yes"/>
      <point x="141" y="243"/>
      <point x="169" y="269"/>
      <point x="156" y="281" type="curve" smooth="yes"/>
    </contour>
    <contour>
      <point x="119" y="667" type="line" smooth="yes"/>
      <point x="106" y="678"/>
      <point x="81" y="655"/>
      <point x="91" y="643" type="curve" smooth="yes"/>
      <point x="99" y="634" type="line" smooth="yes"/>
      <point x="111" y="621"/>
      <point x="141" y="647"/>
      <point x="130" y="657" type="curve" smooth="yes"/>
    </contour>
    <contour>
      <point x="384" y="687" type="line" smooth="yes"/>
      <point x="392" y="701"/>
      <point x="361" y="715"/>
      <point x="355" y="702" type="curve" smooth="yes"/>
      <point x="349" y="689" type="line" smooth="yes"/>
      <point x="342" y="673"/>
      <point x="369" y="661"/>
      <point x="377" y="675" type="curve" smooth="yes"/>
    </contour>
    <contour>
      <point x="440" y="654" type="line" smooth="yes"/>
      <point x="449" y="671"/>
      <point x="423" y="690"/>
      <point x="414" y="674" type="curve" smooth="yes"/>
      <point x="407" y="662" type="line" smooth="yes"/>
      <point x="397" y="645"/>
      <point x="426" y="628"/>
      <point x="434" y="643" type="curve" smooth="yes"/>
    </contour>
    <contour>
      <point x="62" y="449" type="line"/>
      <point x="87" y="422" type="line"/>
      <point x="105" y="440" type="line" smooth="yes"/>
      <point x="116" y="451"/>
      <point x="90" y="474"/>
      <point x="81" y="466" type="curve" smooth="yes"/>
    </contour>
    <contour>
      <point x="470" y="564" type="line"/>
      <point x="456" y="568" type="line" smooth="yes"/>
      <point x="444" y="571"/>
      <point x="434" y="544"/>
      <point x="447" y="538" type="curve" smooth="yes"/>
      <point x="460" y="532" type="line"/>
    </contour>
  </outline>
</glyph>
<glyph name="nine" format="2">
  <advance width="540"/>
  <unicode hex="0039"/>
  <outline>
    <contour>
      <point x="43" y="496" type="curve" smooth="yes"/>
      <point x="43" y="359"/>
      <point x="144" y="315"/>
      <point x="238" y="315" type="curve" smooth="yes"/>
      <point x="248" y="315"/>
      <point x="255" y="313"/>
      <point x="260" y="310" type="curve" smooth="yes"/>
      <point x="265" y="307"/>
      <point x="269" y="302"/>
      <point x="269" y="298" type="curve" smooth="yes"/>
      <point x="269" y="293"/>
      <point x="267" y="289"/>
      <point x="262" y="284" type="curve" smooth="yes"/>
      <point x="155" y="182" type="line" smooth="yes"/>
      <point x="19" y="52"/>
      <point x="271" y="-94"/>
      <point x="340" y="48" type="curve" smooth="yes"/>
      <point x="465" y="304" type="line" smooth="yes"/>
      <point x="496" y="367"/>
      <point x="519" y="434"/>
      <point x="519" y="506" type="curve" smooth="yes"/>
      <point x="519" y="626"/>
      <point x="430" y="711"/>
      <point x="266" y="711" type="curve" smooth="yes"/>
      <point x="136" y="711"/>
      <point x="43" y="626"/>
    </contour>
    <contour>
      <point x="122" y="503" type="curve" smooth="yes"/>
      <point x="122" y="592"/>
      <point x="185" y="647"/>
      <point x="272" y="647" type="curve" smooth="yes"/>
      <point x="367" y="647"/>
      <point x="435" y="590"/>
      <point x="435" y="510" type="curve" smooth="yes"/>
      <point x="435" y="442"/>
      <point x="379" y="380"/>
      <point x="272" y="380" type="curve" smooth="yes"/>
      <point x="143" y="380"/>
      <point x="122" y="433"/>
    </contour>
    <contour>
      <point x="389" y="149" type="line"/>
      <point x="356" y="81" type="line"/>
      <point x="295" y="110" type="line" smooth="yes"/>
      <point x="259" y="127"/>
      <point x="290" y="197"/>
      <point x="329" y="178" type="curve" smooth="yes"/>
    </contour>
    <contour>
      <point x="446" y="265" type="line"/>
      <point x="417" y="205" type="line"/>
      <point x="348" y="253" type="line" smooth="yes"/>
      <point x="315" y="276"/>
      <point x="339" y="327"/>
      <point x="378" y="304" type="curve" smooth="yes"/>
    </contour>
    <contour>
      <point x="281" y="460" type="curve" smooth="yes"/>
      <point x="313" y="460"/>
      <point x="338" y="485"/>
      <point x="338" y="516" type="curve" smooth="yes"/>
      <point x="338" y="548"/>
      <point x="313" y="573"/>
      <point x="281" y="573" type="curve" smooth="yes"/>
      <point x="250" y="573"/>
      <point x="225" y="548"/>
      <point x="225" y="516" type="curve" smooth="yes"/>
      <point x="225" y="485"/>
      <point x="250" y="460"/>
    </contour>
    <contour>
      <point x="193" y="218" type="line"/>
      <point x="223" y="247" type="line"/>
      <point x="223" y="247" type="line"/>
      <point x="223" y="247"/>
      <point x="193" y="218"/>
      <point x="193" y="218" type="curve"/>
    </contour>
    <contour>
      <point x="212" y="689" type="line" smooth="yes"/>
      <point x="204" y="702"/>
      <point x="178" y="691"/>
      <point x="184" y="678" type="curve" smooth="yes"/>
      <point x="189" y="667" type="line" smooth="yes"/>
      <point x="195" y="655"/>
      <point x="225" y="667"/>
      <point x="218" y="679" type="curve" smooth="yes"/>
    </contour>
    <contour>
      <point x="304" y="689" type="line" smooth="yes"/>
      <point x="306" y="706"/>
      <point x="273" y="707"/>
      <point x="273" y="690" type="curve" smooth="yes"/>
      <point x="273" y="682" type="line" smooth="yes"/>
      <point x="273" y="668"/>
      <point x="302" y="669"/>
      <point x="303" y="681" type="curve" smooth="yes"/>
    </contour>
    <contour>
      <point x="93" y="437" type="line" smooth="yes"/>
      <point x="79" y="430"/>
      <point x="92" y="405"/>
      <point x="106" y="411" type="curve" smooth="yes"/>
      <point x="121" y="418" type="line" smooth="yes"/>
      <point x="135" y="424"/>
      <point x="121" y="451"/>
      <point x="109" y="445" type="curve" smooth="yes"/>
    </contour>
    <contour>
      <point x="393" y="640" type="line" smooth="yes"/>
      <point x="384" y="629"/>
      <point x="403" y="609"/>
      <point x="412" y="620" type="curve" smooth="yes"/>
      <point x="426" y="636" type="line" smooth="yes"/>
      <point x="436" y="648"/>
      <point x="416" y="668"/>
      <point x="407" y="657" type="curve" smooth="yes"/>
    </contour>
    <contour>
      <point x="467" y="524" type="line" smooth="yes"/>
      <point x="454" y="526"/>
      <point x="448" y="498"/>
      <point x="461" y="496" type="curve" smooth="yes"/>
      <point x="478" y="493" type="line"/>
      <point x="483" y="522" type="line"/>
    </contour>
    <contour>
      <point x="103" y="376" type="line" smooth="yes"/>
      <point x="96" y="364"/>
      <point x="125" y="351"/>
      <point x="132" y="361" type="curve" smooth="yes"/>
      <point x="137" y="368" type="line"/>
      <point x="107" y="383" type="line"/>
    </contour>
    <contour>
      <point x="165" y="352" type="line" smooth="yes"/>
      <point x="154" y="340"/>
      <point x="182" y="327"/>
      <point x="189" y="340" type="curve" smooth="yes"/>
      <point x="195" y="351" type="line"/>
      <point x="173" y="361" type="line"/>
    </contour>
    <contour>
      <point x="208" y="338" type="line" smooth="yes"/>
      <point x="206" y="322"/>
      <point x="236" y="323"/>
      <point x="234" y="338" type="curve" smooth="yes"/>
      <point x="232" y="350" type="line"/>
      <point x="209" y="348" type="line"/>
    </contour>
  </outline>
</glyph>
<glyph name="colon" format="2">
  <advance width="276"/>
  <unicode hex="003A"/>
  <outline>
    <contour>
      <point x="132" y="-13" type="curve" smooth="yes"/>
      <point x="185" y="-13"/>
      <point x="226" y="30"/>
      <point x="226" y="83" type="curve" smooth="yes"/>
      <point x="226" y="139"/>
      <point x="193" y="185"/>
      <point x="138" y="185" type="curve" smooth="yes"/>
      <point x="87" y="185"/>
      <point x="45" y="143"/>
      <point x="45" y="91" type="curve" smooth="yes"/>
      <point x="45" y="27"/>
      <point x="80" y="-13"/>
    </contour>
    <contour>
      <point x="143" y="314" type="curve" smooth="yes"/>
      <point x="204" y="314"/>
      <point x="253" y="363"/>
      <point x="253" y="422" type="curve" smooth="yes"/>
      <point x="253" y="486"/>
      <point x="214" y="537"/>
      <point x="149" y="537" type="curve" smooth="yes"/>
      <point x="89" y="537"/>
      <point x="40" y="490"/>
      <point x="40" y="431" type="curve" smooth="yes"/>
      <point x="40" y="360"/>
      <point x="81" y="314"/>
    </contour>
    <contour>
      <point x="143" y="392" type="curve" smooth="yes"/>
      <point x="118" y="392"/>
      <point x="99" y="411"/>
      <point x="99" y="435" type="curve" smooth="yes"/>
      <point x="99" y="458"/>
      <point x="118" y="477"/>
      <point x="143" y="477" type="curve" smooth="yes"/>
      <point x="167" y="477"/>
      <point x="188" y="458"/>
      <point x="188" y="435" type="curve" smooth="yes"/>
      <point x="188" y="411"/>
      <point x="167" y="392"/>
    </contour>
  </outline>
</glyph>
<glyph name="semicolon" format="2">
  <advance width="266"/>
  <unicode hex="003B"/>
  <outline>
    <contour>
      <point x="139" y="337" type="curve" smooth="yes"/>
      <point x="192" y="337"/>
      <point x="234" y="380"/>
      <point x="234" y="434" type="curve" smooth="yes"/>
      <point x="234" y="491"/>
      <point x="200" y="537"/>
      <point x="144" y="537" type="curve" smooth="yes"/>
      <point x="92" y="537"/>
      <point x="50" y="495"/>
      <point x="50" y="442" type="curve" smooth="yes"/>
      <point x="50" y="378"/>
      <point x="86" y="337"/>
    </contour>
    <contour>
      <point x="46" y="-167" type="curve" smooth="yes"/>
      <point x="4" y="-182"/>
      <point x="30" y="-236"/>
      <point x="70" y="-223" type="curve" smooth="yes"/>
      <point x="157" y="-194"/>
      <point x="228" y="-113"/>
      <point x="228" y="41" type="curve" smooth="yes"/>
      <point x="228" y="115"/>
      <point x="198" y="156"/>
      <point x="128" y="156" type="curve" smooth="yes"/>
      <point x="75" y="156"/>
      <point x="38" y="122"/>
      <point x="38" y="71" type="curve" smooth="yes"/>
      <point x="38" y="22"/>
      <point x="66" y="-8"/>
      <point x="105" y="-17" type="curve" smooth="yes"/>
      <point x="131" y="-23"/>
      <point x="137" y="-44"/>
      <point x="139" y="-71" type="curve" smooth="yes"/>
      <point x="140" y="-100"/>
      <point x="109" y="-144"/>
    </contour>
    <contour>
      <point x="132" y="28" type="curve" smooth="yes"/>
      <point x="111" y="28"/>
      <point x="94" y="45"/>
      <point x="94" y="66" type="curve" smooth="yes"/>
      <point x="94" y="87"/>
      <point x="111" y="104"/>
      <point x="132" y="104" type="curve" smooth="yes"/>
      <point x="153" y="104"/>
      <point x="170" y="87"/>
      <point x="170" y="66" type="curve" smooth="yes"/>
      <point x="170" y="45"/>
      <point x="153" y="28"/>
    </contour>
  </outline>
</glyph>
<glyph name="equal" format="2">
  <advance width="438"/>
  <unicode hex="003D"/>
  <outline>
    <contour>
      <point x="53" y="423" type="line" smooth="yes"/>
      <point x="9" y="421"/>
      <point x="10" y="355"/>
      <point x="54" y="354" type="curve" smooth="yes"/>
      <point x="346" y="346" type="line" smooth="yes"/>
      <point x="403" y="344"/>
      <point x="403" y="442"/>
      <point x="347" y="439" type="curve" smooth="yes"/>
    </contour>
    <contour>
      <point x="93" y="272" type="line" smooth="yes"/>
      <point x="37" y="270"/>
      <point x="44" y="172"/>
      <point x="98" y="179" type="curve" smooth="yes"/>
      <point x="384" y="216" type="line" smooth="yes"/>
      <point x="431" y="222"/>
      <point x="429" y="286"/>
      <point x="381" y="284" type="curve" smooth="yes"/>
    </contour>
  </outline>
</glyph>
<glyph name="greater" format="2">
  <advance width="346"/>
  <unicode hex="003E"/>
  <outline>
    <contour>
      <point x="111" y="55" type="curve" smooth="yes"/>
      <point x="289" y="280" type="line" smooth="yes"/>
      <point x="320" y="319"/>
      <point x="326" y="361"/>
      <point x="296" y="386" type="curve" smooth="yes"/>
      <point x="112" y="544" type="line" smooth="yes"/>
      <point x="64" y="585"/>
      <point x="9" y="512"/>
      <point x="58" y="479" type="curve" smooth="yes"/>
      <point x="224" y="368" type="line" smooth="yes"/>
      <point x="246" y="353"/>
      <point x="242" y="334"/>
      <point x="225" y="316" type="curve" smooth="yes"/>
      <point x="39" y="118" type="line" smooth="yes"/>
      <point x="-6" y="71"/>
      <point x="71" y="4"/>
    </contour>
  </outline>
</glyph>
<glyph name="question" format="2">
  <advance width="470"/>
  <unicode hex="003F"/>
  <outline>
    <contour>
      <point x="171" y="-23" type="curve" smooth="yes"/>
      <point x="218" y="-23"/>
      <point x="258" y="17"/>
      <point x="258" y="68" type="curve" smooth="yes"/>
      <point x="258" y="116"/>
      <point x="218" y="156"/>
      <point x="171" y="156" type="curve" smooth="yes"/>
      <point x="119" y="156"/>
      <point x="79" y="116"/>
      <point x="79" y="68" type="curve" smooth="yes"/>
      <point x="79" y="17"/>
      <point x="119" y="-23"/>
    </contour>
    <contour>
      <point x="194" y="220" type="curve" smooth="yes"/>
      <point x="296" y="256"/>
      <point x="405" y="365"/>
      <point x="405" y="480" type="curve" smooth="yes"/>
      <point x="405" y="605"/>
      <point x="316" y="662"/>
      <point x="220" y="662" type="curve" smooth="yes"/>
      <point x="118" y="662"/>
      <point x="21" y="608"/>
      <point x="21" y="563" type="curve" smooth="yes"/>
      <point x="21" y="547"/>
      <point x="30" y="540"/>
      <point x="45" y="540" type="curve" smooth="yes"/>
      <point x="77" y="540"/>
      <point x="119" y="593"/>
      <point x="218" y="593" type="curve" smooth="yes"/>
      <point x="296" y="593"/>
      <point x="331" y="554"/>
      <point x="331" y="503" type="curve" smooth="yes"/>
      <point x="331" y="452"/>
      <point x="254" y="418"/>
      <point x="140" y="391" type="curve" smooth="yes"/>
      <point x="76" y="376"/>
      <point x="50" y="338"/>
      <point x="50" y="300" type="curve" smooth="yes"/>
      <point x="50" y="253"/>
      <point x="85" y="211"/>
      <point x="146" y="211" type="curve" smooth="yes"/>
      <point x="161" y="211"/>
      <point x="177" y="214"/>
    </contour>
    <contour>
      <point x="92" y="710" type="line" smooth="yes"/>
      <point x="76" y="739"/>
      <point x="28" y="716"/>
      <point x="41" y="685" type="curve" smooth="yes"/>
      <point x="76" y="600" type="line"/>
      <point x="134" y="632" type="line"/>
    </contour>
    <contour>
      <point x="269" y="714" type="line" smooth="yes"/>
      <point x="281" y="756"/>
      <point x="201" y="769"/>
      <point x="200" y="724" type="curve" smooth="yes"/>
      <point x="199" y="653" type="line"/>
      <point x="250" y="648" type="line"/>
    </contour>
    <contour>
      <point x="417" y="628" type="line" smooth="yes"/>
      <point x="448" y="657"/>
      <point x="400" y="714"/>
      <point x="365" y="672" type="curve" smooth="yes"/>
      <point x="318" y="615" type="line"/>
      <point x="359" y="573" type="line"/>
    </contour>
    <contour>
      <point x="362" y="511" type="line"/>
      <point x="366" y="449" type="line"/>
      <point x="446" y="449" type="line" smooth="yes"/>
      <point x="484" y="449"/>
      <point x="482" y="514"/>
      <point x="445" y="513" type="curve" smooth="yes"/>
    </contour>
    <contour>
      <point x="340" y="371" type="line"/>
      <point x="302" y="323" type="line"/>
      <point x="363" y="268" type="line" smooth="yes"/>
      <point x="388" y="245"/>
      <point x="430" y="295"/>
      <point x="405" y="316" type="curve" smooth="yes"/>
    </contour>
    <contour>
      <point x="158" y="261" type="curve" smooth="yes"/>
      <point x="136" y="261"/>
      <point x="117" y="280"/>
      <point x="117" y="302" type="curve" smooth="yes"/>
      <point x="117" y="324"/>
      <point x="136" y="342"/>
      <point x="158" y="342" type="curve" smooth="yes"/>
      <point x="180" y="342"/>
      <point x="198" y="324"/>
      <point x="198" y="302" type="curve" smooth="yes"/>
      <point x="198" y="280"/>
      <point x="180" y="261"/>
    </contour>
    <contour>
      <point x="255" y="314" type="curve" smooth="yes"/>
      <point x="236" y="314"/>
      <point x="220" y="330"/>
      <point x="220" y="349" type="curve" smooth="yes"/>
      <point x="220" y="368"/>
      <point x="236" y="382"/>
      <point x="255" y="382" type="curve" smooth="yes"/>
      <point x="274" y="382"/>
      <point x="288" y="368"/>
      <point x="288" y="349" type="curve" smooth="yes"/>
      <point x="288" y="330"/>
      <point x="274" y="314"/>
    </contour>
    <contour>
      <point x="184" y="638" type="line" smooth="yes"/>
      <point x="181" y="654"/>
      <point x="140" y="644"/>
      <point x="145" y="626" type="curve" smooth="yes"/>
      <point x="149" y="612" type="line" smooth="yes"/>
      <point x="154" y="594"/>
      <point x="190" y="605"/>
      <point x="187" y="622" type="curve" smooth="yes"/>
    </contour>
    <contour>
      <point x="378" y="518" type="line" smooth="yes"/>
      <point x="396" y="526"/>
      <point x="377" y="567"/>
      <point x="359" y="557" type="curve" smooth="yes"/>
      <point x="348" y="551" type="line" smooth="yes"/>
      <point x="330" y="541"/>
      <point x="348" y="505"/>
      <point x="364" y="512" type="curve" smooth="yes"/>
    </contour>
  </outline>
</glyph>
<glyph name="at" format="2">
  <advance width="704"/>
  <unicode hex="0040"/>
  <outline>
    <contour>
      <point x="317" y="-54" type="curve" smooth="yes"/>
      <point x="404" y="-54"/>
      <point x="530" y="-1"/>
      <point x="574" y="21" type="curve" smooth="yes"/>
      <point x="607" y="38"/>
      <point x="583" y="97"/>
      <point x="553" y="80" type="curve" smooth="yes"/>
      <point x="490" y="45"/>
      <point x="406" y="9"/>
      <point x="317" y="9" type="curve" smooth="yes"/>
      <point x="150" y="9"/>
      <point x="105" y="202"/>
      <point x="101" y="395" type="curve" smooth="yes"/>
      <point x="101" y="659"/>
      <point x="209" y="724"/>
      <point x="331" y="724" type="curve" smooth="yes"/>
      <point x="518" y="724"/>
      <point x="604" y="649"/>
      <point x="604" y="455" type="curve" smooth="yes"/>
      <point x="604" y="284"/>
      <point x="586" y="212"/>
      <point x="540" y="212" type="curve" smooth="yes"/>
      <point x="511" y="212"/>
      <point x="481" y="235"/>
      <point x="490" y="292" type="curve" smooth="yes"/>
      <point x="512" y="427" type="line" smooth="yes"/>
      <point x="528" y="528"/>
      <point x="476" y="630"/>
      <point x="367" y="630" type="curve" smooth="yes"/>
      <point x="271" y="630"/>
      <point x="202" y="551"/>
      <point x="202" y="354" type="curve" smooth="yes"/>
      <point x="202" y="207"/>
      <point x="271" y="148"/>
      <point x="344" y="148" type="curve" smooth="yes"/>
      <point x="388" y="148"/>
      <point x="417" y="164"/>
      <point x="440" y="198" type="curve" smooth="yes"/>
      <point x="443" y="203"/>
      <point x="448" y="203"/>
      <point x="451" y="198" type="curve" smooth="yes"/>
      <point x="469" y="168"/>
      <point x="502" y="153"/>
      <point x="536" y="153" type="curve" smooth="yes"/>
      <point x="620" y="153"/>
      <point x="669" y="228"/>
      <point x="669" y="459" type="curve" smooth="yes"/>
      <point x="669" y="690"/>
      <point x="548" y="787"/>
      <point x="331" y="787" type="curve" smooth="yes"/>
      <point x="177" y="787"/>
      <point x="34" y="708"/>
      <point x="34" y="404" type="curve" smooth="yes"/>
      <point x="36" y="157"/>
      <point x="106" y="-54"/>
    </contour>
    <contour>
      <point x="279" y="299" type="curve" smooth="yes"/>
      <point x="279" y="382"/>
      <point x="336" y="434"/>
      <point x="397" y="434" type="curve" smooth="yes"/>
      <point x="433" y="434"/>
      <point x="452" y="420"/>
      <point x="445" y="383" type="curve" smooth="yes"/>
      <point x="426" y="278" type="line" smooth="yes"/>
      <point x="418" y="232"/>
      <point x="399" y="213"/>
      <point x="367" y="213" type="curve" smooth="yes"/>
      <point x="316" y="213"/>
      <point x="279" y="233"/>
    </contour>
    <contour>
      <point x="449" y="79" type="line" smooth="yes"/>
      <point x="438" y="129"/>
      <point x="393" y="110"/>
      <point x="399" y="70" type="curve" smooth="yes"/>
      <point x="428" y="-109" type="line" smooth="yes"/>
      <point x="434" y="-147"/>
      <point x="498" y="-147"/>
      <point x="486" y="-93" type="curve" smooth="yes"/>
    </contour>
    <contour>
      <point x="342" y="40" type="line" smooth="yes"/>
      <point x="350" y="91"/>
      <point x="286" y="84"/>
      <point x="280" y="45" type="curve" smooth="yes"/>
      <point x="260" y="-93" type="line" smooth="yes"/>
      <point x="255" y="-130"/>
      <point x="313" y="-148"/>
      <point x="321" y="-94" type="curve" smooth="yes"/>
    </contour>
    <contour>
      <point x="389" y="497" type="curve" smooth="yes"/>
      <point x="372" y="497"/>
      <point x="359" y="510"/>
      <point x="359" y="527" type="curve" smooth="yes"/>
      <point x="359" y="544"/>
      <point x="372" y="556"/>
      <point x="389" y="556" type="curve" smooth="yes"/>
      <point x="406" y="556"/>
      <point x="418" y="544"/>
      <point x="418" y="527" type="curve" smooth="yes"/>
      <point x="418" y="510"/>
      <point x="406" y="497"/>
    </contour>
    <contour>
      <point x="307" y="464" type="curve" smooth="yes"/>
      <point x="290" y="464"/>
      <point x="277" y="477"/>
      <point x="277" y="494" type="curve" smooth="yes"/>
      <point x="277" y="511"/>
      <point x="290" y="523"/>
      <point x="307" y="523" type="curve" smooth="yes"/>
      <point x="324" y="523"/>
      <point x="336" y="511"/>
      <point x="336" y="494" type="curve" smooth="yes"/>
      <point x="336" y="477"/>
      <point x="324" y="464"/>
    </contour>
    <contour>
      <point x="543" y="706" type="line" smooth="yes"/>
      <point x="556" y="725"/>
      <point x="514" y="755"/>
      <point x="504" y="733" type="curve" smooth="yes"/>
      <point x="498" y="720" type="line" smooth="yes"/>
      <point x="489" y="700"/>
      <point x="522" y="676"/>
      <point x="534" y="693" type="curve" smooth="yes"/>
    </contour>
    <contour>
      <point x="608" y="642" type="line" smooth="yes"/>
      <point x="629" y="663"/>
      <point x="589" y="701"/>
      <point x="568" y="680" type="curve" smooth="yes"/>
      <point x="559" y="671" type="line" smooth="yes"/>
      <point x="540" y="652"/>
      <point x="582" y="616"/>
      <point x="602" y="636" type="curve" smooth="yes"/>
    </contour>
    <contour>
      <point x="170" y="725" type="line" smooth="yes"/>
      <point x="156" y="738"/>
      <point x="125" y="705"/>
      <point x="138" y="692" type="curve" smooth="yes"/>
      <point x="156" y="673" type="line" smooth="yes"/>
      <point x="168" y="661"/>
      <point x="201" y="696"/>
      <point x="187" y="709" type="curve" smooth="yes"/>
    </contour>
  </outline>
</glyph>
<glyph name="A" format="2">
  <advance width="525"/>
  <unicode hex="0041"/>
  <anchor x="506" y="-68" name="ogonek"/>
  <anchor x="314" y="672" name="top"/>
  <outline>
    <contour>
      <point x="444" y="-38" type="line" smooth="yes"/>
      <point x="460" y="-88"/>
      <point x="527" y="-73"/>
      <point x="520" y="-29" type="curve" smooth="yes"/>
      <point x="425" y="598" type="line" smooth="yes"/>
      <point x="416" y="658"/>
      <point x="367" y="686"/>
      <point x="318" y="687" type="curve" smooth="yes"/>
      <point x="267" y="688"/>
      <point x="222" y="661"/>
      <point x="201" y="606" type="curve" smooth="yes"/>
      <point x="16" y="119" type="line" smooth="yes"/>
      <point x="-22" y="20"/>
      <point x="107" y="-20"/>
      <point x="128" y="71" type="curve" smooth="yes"/>
      <point x="206" y="404" type="line" smooth="yes"/>
      <point x="212" y="431"/>
      <point x="224" y="450"/>
      <point x="250" y="450" type="curve" smooth="yes"/>
      <point x="275" y="450"/>
      <point x="294" y="430"/>
      <point x="303" y="401" type="curve" smooth="yes"/>
    </contour>
    <contour>
      <point x="117" y="240" type="line"/>
      <point x="358" y="226" type="line" smooth="yes"/>
      <point x="398" y="224"/>
      <point x="399" y="289"/>
      <point x="360" y="289" type="curve" smooth="yes"/>
      <point x="136" y="288" type="line"/>
    </contour>
    <contour>
      <point x="438" y="173" type="line"/>
      <point x="432" y="208" type="line"/>
      <point x="398" y="210" type="line" smooth="yes"/>
      <point x="376" y="211"/>
      <point x="378" y="173"/>
      <point x="398" y="173" type="curve" smooth="yes"/>
    </contour>
    <contour>
      <point x="96" y="135" type="line"/>
      <point x="438" y="99" type="line"/>
      <point x="418" y="155" type="line"/>
      <point x="112" y="187" type="line"/>
    </contour>
    <contour>
      <point x="74" y="80" type="line"/>
      <point x="102" y="80" type="line" smooth="yes"/>
      <point x="128" y="80"/>
      <point x="128" y="117"/>
      <point x="101" y="116" type="curve" smooth="yes"/>
      <point x="76" y="115" type="line"/>
    </contour>
    <contour>
      <point x="169" y="469" type="line"/>
      <point x="201" y="547" type="line"/>
      <point x="106" y="591" type="line" smooth="yes"/>
      <point x="57" y="614"/>
      <point x="23" y="543"/>
      <point x="72" y="518" type="curve" smooth="yes"/>
    </contour>
    <contour>
      <point x="175" y="421" type="line"/>
      <point x="186" y="453" type="line"/>
      <point x="172" y="458" type="line" smooth="yes"/>
      <point x="152" y="465"/>
      <point x="142" y="430"/>
      <point x="164" y="424" type="curve" smooth="yes"/>
    </contour>
    <contour>
      <point x="132" y="357" type="line"/>
      <point x="153" y="424" type="line"/>
      <point x="72" y="450" type="line" smooth="yes"/>
      <point x="28" y="464"/>
      <point x="-2" y="380"/>
      <point x="52" y="371" type="curve" smooth="yes"/>
    </contour>
    <contour>
      <point x="416" y="370" type="line" smooth="yes"/>
      <point x="375" y="361"/>
      <point x="351" y="434"/>
      <point x="402" y="437" type="curve" smooth="yes"/>
      <point x="449" y="440" type="line"/>
      <point x="458" y="379" type="line"/>
    </contour>
    <contour>
      <point x="365" y="473" type="line" smooth="yes"/>
      <point x="327" y="468"/>
      <point x="314" y="526"/>
      <point x="349" y="535" type="curve" smooth="yes"/>
      <point x="431" y="557" type="line"/>
      <point x="442" y="483" type="line"/>
    </contour>
  </outline>
</glyph>
<glyph name="B" format="2">
  <advance width="568"/>
  <unicode hex="0042"/>
  <anchor x="278" y="0" name="bottom"/>
  <anchor x="275" y="733" name="top"/>
  <outline>
    <contour>
      <point x="93" y="115" type="line" smooth="yes"/>
      <point x="103" y="22"/>
      <point x="134" y="-12"/>
      <point x="252" y="-12" type="curve" smooth="yes"/>
      <point x="252" y="-12" type="line" smooth="yes"/>
      <point x="411" y="-12"/>
      <point x="537" y="66"/>
      <point x="537" y="214" type="curve" smooth="yes"/>
      <point x="537" y="342"/>
      <point x="449" y="390"/>
      <point x="365" y="405" type="curve" smooth="yes"/>
      <point x="348" y="408"/>
      <point x="347" y="417"/>
      <point x="361" y="425" type="curve" smooth="yes"/>
      <point x="400" y="446"/>
      <point x="430" y="471"/>
      <point x="430" y="516" type="curve" smooth="yes"/>
      <point x="430" y="612"/>
      <point x="357" y="659"/>
      <point x="267" y="651" type="curve" smooth="yes"/>
      <point x="138" y="639" type="line" smooth="yes"/>
      <point x="80" y="634"/>
      <point x="42" y="611"/>
      <point x="49" y="545" type="curve" smooth="yes"/>
    </contour>
    <contour>
      <point x="267" y="590" type="line" smooth="yes"/>
      <point x="331" y="598"/>
      <point x="359" y="576"/>
      <point x="359" y="532" type="curve" smooth="yes"/>
      <point x="359" y="490"/>
      <point x="343" y="453"/>
      <point x="275" y="419" type="curve" smooth="yes"/>
      <point x="275" y="419" type="line" smooth="yes"/>
      <point x="235" y="399"/>
      <point x="204" y="411"/>
      <point x="210" y="446" type="curve" smooth="yes"/>
      <point x="224" y="535" type="line" smooth="yes"/>
      <point x="229" y="564"/>
      <point x="235" y="586"/>
      <point x="267" y="590" type="curve" smooth="yes"/>
    </contour>
    <contour>
      <point x="160" y="126" type="curve" smooth="yes"/>
      <point x="160" y="166" type="line" smooth="yes"/>
      <point x="160" y="305"/>
      <point x="238" y="356"/>
      <point x="301" y="357" type="curve" smooth="yes"/>
      <point x="301" y="357" type="line" smooth="yes"/>
      <point x="354" y="357"/>
      <point x="399" y="305"/>
      <point x="331" y="192" type="curve" smooth="yes"/>
      <point x="262" y="77"/>
      <point x="230" y="57"/>
      <point x="195" y="56" type="curve" smooth="yes"/>
      <point x="195" y="56" type="line" smooth="yes"/>
      <point x="181" y="56"/>
      <point x="160" y="66"/>
    </contour>
    <contour>
      <point x="448" y="200" type="curve" smooth="yes"/>
      <point x="431" y="200"/>
      <point x="416" y="215"/>
      <point x="416" y="232" type="curve" smooth="yes"/>
      <point x="416" y="249"/>
      <point x="431" y="264"/>
      <point x="448" y="264" type="curve" smooth="yes"/>
      <point x="465" y="264"/>
      <point x="480" y="249"/>
      <point x="480" y="232" type="curve" smooth="yes"/>
      <point x="480" y="215"/>
      <point x="465" y="200"/>
    </contour>
    <contour>
      <point x="413" y="111" type="curve" smooth="yes"/>
      <point x="391" y="111"/>
      <point x="375" y="127"/>
      <point x="375" y="148" type="curve" smooth="yes"/>
      <point x="375" y="168"/>
      <point x="391" y="184"/>
      <point x="413" y="184" type="curve" smooth="yes"/>
      <point x="434" y="184"/>
      <point x="450" y="168"/>
      <point x="450" y="148" type="curve" smooth="yes"/>
      <point x="450" y="127"/>
      <point x="434" y="111"/>
    </contour>
    <contour>
      <point x="350" y="47" type="curve" smooth="yes"/>
      <point x="333" y="47"/>
      <point x="318" y="62"/>
      <point x="318" y="79" type="curve" smooth="yes"/>
      <point x="318" y="96"/>
      <point x="333" y="111"/>
      <point x="350" y="111" type="curve" smooth="yes"/>
      <point x="367" y="111"/>
      <point x="382" y="96"/>
      <point x="382" y="79" type="curve" smooth="yes"/>
      <point x="382" y="62"/>
      <point x="367" y="47"/>
    </contour>
    <contour>
      <point x="163" y="714" type="line" smooth="yes"/>
      <point x="161" y="754"/>
      <point x="90" y="741"/>
      <point x="97" y="703" type="curve" smooth="yes"/>
      <point x="114" y="611" type="line"/>
      <point x="167" y="622" type="line"/>
    </contour>
    <contour>
      <point x="223" y="626" type="line" smooth="yes"/>
      <point x="220" y="648"/>
      <point x="179" y="643"/>
      <point x="180" y="621" type="curve" smooth="yes"/>
      <point x="182" y="591" type="line" smooth="yes"/>
      <point x="183" y="569"/>
      <point x="230" y="575"/>
      <point x="227" y="597" type="curve" smooth="yes"/>
    </contour>
    <contour>
      <point x="317" y="712" type="line" smooth="yes"/>
      <point x="325" y="750"/>
      <point x="253" y="758"/>
      <point x="251" y="722" type="curve" smooth="yes"/>
      <point x="245" y="633" type="line"/>
      <point x="299" y="629" type="line"/>
    </contour>
    <contour>
      <point x="359" y="607" type="line" smooth="yes"/>
      <point x="370" y="634"/>
      <point x="315" y="649"/>
      <point x="310" y="623" type="curve" smooth="yes"/>
      <point x="307" y="607" type="line"/>
      <point x="354" y="595" type="line"/>
    </contour>
    <contour>
      <point x="470" y="632" type="line" smooth="yes"/>
      <point x="501" y="654"/>
      <point x="457" y="712"/>
      <point x="425" y="682" type="curve" smooth="yes"/>
      <point x="358" y="618" type="line"/>
      <point x="389" y="576" type="line"/>
    </contour>
    <contour>
      <point x="408" y="534" type="line" smooth="yes"/>
      <point x="429" y="535"/>
      <point x="423" y="579"/>
      <point x="400" y="575" type="curve" smooth="yes"/>
      <point x="374" y="570" type="line" smooth="yes"/>
      <point x="354" y="566"/>
      <point x="360" y="531"/>
      <point x="378" y="532" type="curve" smooth="yes"/>
    </contour>
    <contour>
      <point x="472" y="446" type="line" smooth="yes"/>
      <point x="501" y="437"/>
      <point x="523" y="505"/>
      <point x="478" y="513" type="curve" smooth="yes"/>
      <point x="416" y="524" type="line"/>
      <point x="393" y="470" type="line"/>
    </contour>
    <contour>
      <point x="142" y="119" type="line" smooth="yes"/>
      <point x="158" y="128"/>
      <point x="147" y="150"/>
      <point x="129" y="145" type="curve" smooth="yes"/>
      <point x="115" y="141" type="line" smooth="yes"/>
      <point x="93" y="135"/>
      <point x="108" y="100"/>
      <point x="126" y="110" type="curve" smooth="yes"/>
    </contour>
    <contour>
      <point x="195" y="30" type="line" smooth="yes"/>
      <point x="204" y="42"/>
      <point x="175" y="58"/>
      <point x="168" y="46" type="curve" smooth="yes"/>
      <point x="157" y="26" type="line" smooth="yes"/>
      <point x="149" y="11"/>
      <point x="170" y="-5"/>
      <point x="180" y="9" type="curve" smooth="yes"/>
    </contour>
    <contour>
      <point x="137" y="44" type="curve" smooth="yes"/>
      <point x="150" y="44"/>
      <point x="160" y="55"/>
      <point x="160" y="69" type="curve" smooth="yes"/>
      <point x="160" y="83"/>
      <point x="150" y="93"/>
      <point x="137" y="93" type="curve" smooth="yes"/>
      <point x="123" y="93"/>
      <point x="111" y="83"/>
      <point x="111" y="69" type="curve" smooth="yes"/>
      <point x="111" y="55"/>
      <point x="123" y="44"/>
    </contour>
  </outline>
</glyph>
<glyph name="C" format="2">
  <advance width="509"/>
  <unicode hex="0043"/>
  <anchor x="226" y="0" name="cedilla"/>
  <anchor x="315" y="778" name="top"/>
  <outline>
    <contour>
      <point x="24" y="291" type="curve" smooth="yes"/>
      <point x="24" y="102"/>
      <point x="126" y="-12"/>
      <point x="269" y="-12" type="curve" smooth="yes"/>
      <point x="345" y="-12"/>
      <point x="396" y="13"/>
      <point x="427" y="46" type="curve" smooth="yes"/>
      <point x="484" y="106"/>
      <point x="452" y="237"/>
      <point x="385" y="237" type="curve" smooth="yes"/>
      <point x="345" y="237"/>
      <point x="314" y="218"/>
      <point x="239" y="217" type="curve" smooth="yes"/>
      <point x="142" y="216"/>
      <point x="82" y="255"/>
      <point x="82" y="337" type="curve" smooth="yes"/>
      <point x="82" y="462"/>
      <point x="173" y="584"/>
      <point x="331" y="584" type="curve" smooth="yes"/>
      <point x="382" y="584"/>
      <point x="432" y="563"/>
      <point x="459" y="563" type="curve" smooth="yes"/>
      <point x="499" y="563"/>
      <point x="511" y="619"/>
      <point x="487" y="654" type="curve" smooth="yes"/>
      <point x="464" y="688"/>
      <point x="403" y="711"/>
      <point x="344" y="711" type="curve" smooth="yes"/>
      <point x="166" y="711"/>
      <point x="24" y="539"/>
    </contour>
    <contour>
      <point x="263" y="332" type="curve" smooth="yes"/>
      <point x="292" y="332"/>
      <point x="316" y="356"/>
      <point x="316" y="387" type="curve" smooth="yes"/>
      <point x="316" y="416"/>
      <point x="292" y="440"/>
      <point x="263" y="440" type="curve" smooth="yes"/>
      <point x="232" y="440"/>
      <point x="208" y="416"/>
      <point x="208" y="387" type="curve" smooth="yes"/>
      <point x="208" y="356"/>
      <point x="232" y="332"/>
    </contour>
    <contour>
      <point x="277" y="392" type="curve" smooth="yes"/>
      <point x="277" y="392"/>
      <point x="277" y="392"/>
      <point x="277" y="392" type="curve" smooth="yes"/>
      <point x="277" y="392"/>
      <point x="277" y="392"/>
      <point x="277" y="392" type="curve" smooth="yes"/>
      <point x="277" y="392"/>
      <point x="277" y="392"/>
      <point x="277" y="392" type="curve" smooth="yes"/>
      <point x="277" y="392"/>
      <point x="277" y="392"/>
    </contour>
    <contour>
      <point x="211" y="122" type="line" smooth="yes"/>
      <point x="211" y="89"/>
      <point x="154" y="90"/>
      <point x="158" y="129" type="curve" smooth="yes"/>
      <point x="169" y="225" type="line"/>
      <point x="180" y="222"/>
      <point x="194" y="219"/>
      <point x="212" y="218" type="curve"/>
    </contour>
    <contour>
      <point x="258" y="217" type="line"/>
      <point x="246" y="216"/>
      <point x="227" y="216"/>
      <point x="218" y="217" type="curve"/>
      <point x="218" y="217" type="line"/>
      <point x="227" y="216"/>
      <point x="246" y="216"/>
      <point x="258" y="217" type="curve"/>
    </contour>
    <contour>
      <point x="326" y="80" type="line" smooth="yes"/>
      <point x="328" y="51"/>
      <point x="285" y="40"/>
      <point x="281" y="75" type="curve" smooth="yes"/>
      <point x="265" y="218" type="line"/>
      <point x="281" y="219"/>
      <point x="297" y="222"/>
      <point x="314" y="225" type="curve"/>
    </contour>
    <contour>
      <point x="142" y="693" type="line" smooth="yes"/>
      <point x="120" y="738"/>
      <point x="51" y="692"/>
      <point x="85" y="649" type="curve" smooth="yes"/>
      <point x="148" y="568" type="line" smooth="yes"/>
      <point x="172" y="537"/>
      <point x="202" y="571"/>
      <point x="188" y="600" type="curve" smooth="yes"/>
    </contour>
    <contour>
      <point x="208" y="618" type="line"/>
      <point x="258" y="644" type="line"/>
      <point x="251" y="660" type="line" smooth="yes"/>
      <point x="238" y="691"/>
      <point x="181" y="664"/>
      <point x="198" y="635" type="curve" smooth="yes"/>
    </contour>
    <contour>
      <point x="315" y="767" type="line" smooth="yes"/>
      <point x="307" y="817"/>
      <point x="246" y="798"/>
      <point x="254" y="757" type="curve" smooth="yes"/>
      <point x="301" y="528" type="line" smooth="yes"/>
      <point x="308" y="492"/>
      <point x="355" y="505"/>
      <point x="350" y="537" type="curve" smooth="yes"/>
    </contour>
  </outline>
</glyph>
<glyph name="D" format="2">
  <advance width="598"/>
  <unicode hex="0044"/>
  <anchor x="278" y="0" name="bottom"/>
  <anchor x="300" y="681" name="top"/>
  <outline>
    <contour>
      <point x="109" y="79" type="line" smooth="yes"/>
      <point x="113" y="11"/>
      <point x="140" y="-10"/>
      <point x="234" y="-10" type="curve" smooth="yes"/>
      <point x="253" y="-10" type="line" smooth="yes"/>
      <point x="420" y="-10"/>
      <point x="589" y="117"/>
      <point x="540" y="446" type="curve" smooth="yes"/>
      <point x="515" y="615"/>
      <point x="415" y="681"/>
      <point x="259" y="698" type="curve" smooth="yes"/>
      <point x="193" y="705" type="line" smooth="yes"/>
      <point x="108" y="714"/>
      <point x="71" y="671"/>
      <point x="75" y="603" type="curve" smooth="yes"/>
    </contour>
    <contour>
      <point x="176" y="186" type="curve" smooth="yes"/>
      <point x="163" y="551" type="line" smooth="yes"/>
      <point x="160" y="635"/>
      <point x="227" y="654"/>
      <point x="304" y="626" type="curve"/>
      <point x="304" y="626" type="line"/>
      <point x="390" y="594"/>
      <point x="482" y="492"/>
      <point x="364" y="264" type="curve" smooth="yes"/>
      <point x="320" y="179"/>
      <point x="257" y="151"/>
      <point x="217" y="151" type="curve"/>
      <point x="217" y="151" type="line"/>
      <point x="193" y="151"/>
      <point x="177" y="160"/>
    </contour>
    <contour>
      <point x="408" y="119" type="curve" smooth="yes"/>
      <point x="384" y="119"/>
      <point x="363" y="140"/>
      <point x="363" y="164" type="curve" smooth="yes"/>
      <point x="363" y="188"/>
      <point x="384" y="207"/>
      <point x="408" y="207" type="curve" smooth="yes"/>
      <point x="432" y="207"/>
      <point x="451" y="188"/>
      <point x="451" y="164" type="curve" smooth="yes"/>
      <point x="451" y="140"/>
      <point x="432" y="119"/>
    </contour>
    <contour>
      <point x="314" y="55" type="curve" smooth="yes"/>
      <point x="295" y="55"/>
      <point x="278" y="72"/>
      <point x="278" y="91" type="curve" smooth="yes"/>
      <point x="278" y="111"/>
      <point x="295" y="126"/>
      <point x="314" y="126" type="curve" smooth="yes"/>
      <point x="334" y="126"/>
      <point x="349" y="111"/>
      <point x="349" y="91" type="curve" smooth="yes"/>
      <point x="349" y="72"/>
      <point x="334" y="55"/>
    </contour>
    <contour>
      <point x="460" y="231" type="curve" smooth="yes"/>
      <point x="441" y="231"/>
      <point x="424" y="248"/>
      <point x="424" y="267" type="curve" smooth="yes"/>
      <point x="424" y="287"/>
      <point x="441" y="302"/>
      <point x="460" y="302" type="curve" smooth="yes"/>
      <point x="480" y="302"/>
      <point x="495" y="287"/>
      <point x="495" y="267" type="curve" smooth="yes"/>
      <point x="495" y="248"/>
      <point x="480" y="231"/>
    </contour>
    <contour>
      <point x="38" y="543" type="line" smooth="yes"/>
      <point x="-1" y="546"/>
      <point x="-3" y="479"/>
      <point x="28" y="478" type="curve" smooth="yes"/>
      <point x="230" y="473" type="line" smooth="yes"/>
      <point x="263" y="472"/>
      <point x="265" y="528"/>
      <point x="232" y="530" type="curve" smooth="yes"/>
    </contour>
    <contour>
      <point x="27" y="402" type="line" smooth="yes"/>
      <point x="-8" y="397"/>
      <point x="-4" y="344"/>
      <point x="30" y="347" type="curve" smooth="yes"/>
      <point x="230" y="367" type="line" smooth="yes"/>
      <point x="259" y="370"/>
      <point x="259" y="433"/>
      <point x="223" y="428" type="curve" smooth="yes"/>
    </contour>
    <contour>
      <point x="141" y="217" type="line" smooth="yes"/>
      <point x="182" y="221"/>
      <point x="179" y="285"/>
      <point x="138" y="279" type="curve" smooth="yes"/>
      <point x="131" y="278" type="line" smooth="yes"/>
      <point x="97" y="273"/>
      <point x="91" y="212"/>
      <point x="131" y="216" type="curve" smooth="yes"/>
    </contour>
    <contour>
      <point x="425" y="561" type="line" smooth="yes"/>
      <point x="395" y="543"/>
      <point x="419" y="497"/>
      <point x="447" y="511" type="curve" smooth="yes"/>
      <point x="477" y="526" type="line" smooth="yes"/>
      <point x="504" y="539"/>
      <point x="482" y="595"/>
      <point x="452" y="577" type="curve" smooth="yes"/>
    </contour>
    <contour>
      <point x="384" y="608" type="line"/>
      <point x="429" y="576" type="line"/>
      <point x="443" y="596" type="line" smooth="yes"/>
      <point x="460" y="621"/>
      <point x="422" y="654"/>
      <point x="403" y="631" type="curve" smooth="yes"/>
    </contour>
  </outline>
</glyph>
<glyph name="E" format="2">
  <advance width="486"/>
  <unicode hex="0045"/>
  <anchor x="249" y="31" name="cedilla"/>
  <anchor x="399" y="57" name="ogonek"/>
  <anchor x="284" y="693" name="top"/>
  <outline>
    <contour>
      <point x="25" y="81" type="line" smooth="yes"/>
      <point x="20" y="40"/>
      <point x="49" y="13"/>
      <point x="106" y="18" type="curve" smooth="yes"/>
      <point x="409" y="46" type="line" smooth="yes"/>
      <point x="455" y="50"/>
      <point x="443" y="159"/>
      <point x="385" y="141" type="curve" smooth="yes"/>
      <point x="236" y="95" type="line" smooth="yes"/>
      <point x="211" y="87"/>
      <point x="204" y="98"/>
      <point x="198" y="125" type="curve" smooth="yes"/>
      <point x="189" y="165" type="line" smooth="yes"/>
      <point x="185" y="182"/>
      <point x="193" y="195"/>
      <point x="208" y="199" type="curve" smooth="yes"/>
      <point x="322" y="228" type="line" smooth="yes"/>
      <point x="368" y="240"/>
      <point x="348" y="304"/>
      <point x="306" y="292" type="curve" smooth="yes"/>
      <point x="159" y="249" type="line" smooth="yes"/>
      <point x="144" y="245"/>
      <point x="134" y="253"/>
      <point x="134" y="269" type="curve" smooth="yes"/>
      <point x="136" y="484" type="line" smooth="yes"/>
      <point x="136" y="512"/>
      <point x="152" y="524"/>
      <point x="173" y="518" type="curve" smooth="yes"/>
      <point x="369" y="457" type="line" smooth="yes"/>
      <point x="485" y="421"/>
      <point x="520" y="760"/>
      <point x="348" y="714" type="curve" smooth="yes"/>
      <point x="155" y="662" type="line" smooth="yes"/>
      <point x="111" y="650"/>
      <point x="88" y="623"/>
      <point x="83" y="577" type="curve" smooth="yes"/>
    </contour>
    <contour>
      <point x="236" y="343" type="curve" smooth="yes"/>
      <point x="260" y="343"/>
      <point x="279" y="362"/>
      <point x="279" y="387" type="curve" smooth="yes"/>
      <point x="279" y="411"/>
      <point x="260" y="430"/>
      <point x="236" y="430" type="curve" smooth="yes"/>
      <point x="211" y="430"/>
      <point x="192" y="411"/>
      <point x="192" y="387" type="curve" smooth="yes"/>
      <point x="192" y="362"/>
      <point x="211" y="343"/>
    </contour>
    <contour>
      <point x="292" y="481" type="line"/>
      <point x="311" y="581" type="line" smooth="yes"/>
      <point x="319" y="624"/>
      <point x="383" y="613"/>
      <point x="371" y="572" type="curve" smooth="yes"/>
      <point x="340" y="466" type="line"/>
    </contour>
    <contour>
      <point x="209" y="507" type="line"/>
      <point x="209" y="572" type="line" smooth="yes"/>
      <point x="209" y="614"/>
      <point x="266" y="611"/>
      <point x="263" y="575" type="curve" smooth="yes"/>
      <point x="257" y="492" type="line"/>
    </contour>
    <contour>
      <point x="339" y="85" type="line" smooth="yes"/>
      <point x="338" y="57"/>
      <point x="374" y="58"/>
      <point x="377" y="86" type="curve" smooth="yes"/>
      <point x="379" y="108" type="line" smooth="yes"/>
      <point x="381" y="133"/>
      <point x="341" y="132"/>
      <point x="340" y="110" type="curve" smooth="yes"/>
    </contour>
    <contour>
      <point x="227" y="57" type="line" smooth="yes"/>
      <point x="226" y="29"/>
      <point x="272" y="38"/>
      <point x="270" y="65" type="curve" smooth="yes"/>
      <point x="269" y="81" type="line" smooth="yes"/>
      <point x="268" y="103"/>
      <point x="229" y="97"/>
      <point x="228" y="77" type="curve" smooth="yes"/>
    </contour>
    <contour>
      <point x="92" y="481" type="line" smooth="yes"/>
      <point x="75" y="485"/>
      <point x="67" y="449"/>
      <point x="86" y="444" type="curve" smooth="yes"/>
      <point x="111" y="437" type="line" smooth="yes"/>
      <point x="132" y="431"/>
      <point x="142" y="469"/>
      <point x="118" y="475" type="curve" smooth="yes"/>
    </contour>
    <contour>
      <point x="92" y="417" type="line" smooth="yes"/>
      <point x="72" y="425"/>
      <point x="57" y="379"/>
      <point x="79" y="374" type="curve" smooth="yes"/>
      <point x="102" y="369" type="line" smooth="yes"/>
      <point x="119" y="365"/>
      <point x="129" y="403"/>
      <point x="110" y="410" type="curve" smooth="yes"/>
    </contour>
    <contour>
      <point x="248" y="263" type="line"/>
      <point x="209" y="250" type="line"/>
      <point x="217" y="229" type="line" smooth="yes"/>
      <point x="223" y="212"/>
      <point x="258" y="221"/>
      <point x="253" y="242" type="curve" smooth="yes"/>
    </contour>
    <contour>
      <point x="304" y="270" type="line" smooth="yes"/>
      <point x="299" y="292"/>
      <point x="260" y="283"/>
      <point x="264" y="263" type="curve" smooth="yes"/>
      <point x="268" y="243" type="line" smooth="yes"/>
      <point x="272" y="225"/>
      <point x="313" y="232"/>
      <point x="308" y="254" type="curve" smooth="yes"/>
    </contour>
  </outline>
</glyph>
<glyph name="F" format="2">
  <advance width="462"/>
  <unicode hex="0046"/>
  <anchor x="159" y="0" name="bottom"/>
  <anchor x="270" y="700" name="top"/>
  <outline>
    <contour>
      <point x="37" y="54" type="line" smooth="yes"/>
      <point x="27" y="-83"/>
      <point x="337" y="-24"/>
      <point x="264" y="109" type="curve" smooth="yes"/>
      <point x="171" y="277" type="line" smooth="yes"/>
      <point x="159" y="299"/>
      <point x="170" y="317"/>
      <point x="193" y="311" type="curve" smooth="yes"/>
      <point x="321" y="275" type="line" smooth="yes"/>
      <point x="361" y="264"/>
      <point x="382" y="346"/>
      <point x="335" y="351" type="curve" smooth="yes"/>
      <point x="233" y="362" type="line" smooth="yes"/>
      <point x="210" y="364"/>
      <point x="199" y="404"/>
      <point x="237" y="405" type="curve" smooth="yes"/>
      <point x="378" y="409" type="line" smooth="yes"/>
      <point x="424" y="410"/>
      <point x="413" y="494"/>
      <point x="370" y="485" type="curve" smooth="yes"/>
      <point x="170" y="443" type="line" smooth="yes"/>
      <point x="143" y="437"/>
      <point x="131" y="452"/>
      <point x="139" y="477" type="curve" smooth="yes"/>
      <point x="165" y="558" type="line" smooth="yes"/>
      <point x="175" y="588"/>
      <point x="195" y="604"/>
      <point x="222" y="602" type="curve" smooth="yes"/>
      <point x="406" y="590" type="line" smooth="yes"/>
      <point x="492" y="584"/>
      <point x="488" y="735"/>
      <point x="414" y="723" type="curve" smooth="yes"/>
      <point x="139" y="679" type="line" smooth="yes"/>
      <point x="97" y="672"/>
      <point x="80" y="648"/>
      <point x="77" y="606" type="curve" smooth="yes"/>
    </contour>
    <contour>
      <point x="50" y="233" type="line"/>
      <point x="102" y="244" type="line" smooth="yes"/>
      <point x="142" y="252"/>
      <point x="160" y="175"/>
      <point x="109" y="170" type="curve" smooth="yes"/>
      <point x="45" y="164" type="line"/>
    </contour>
    <contour>
      <point x="42" y="125" type="line"/>
      <point x="140" y="133" type="line" smooth="yes"/>
      <point x="181" y="136"/>
      <point x="186" y="64"/>
      <point x="140" y="66" type="curve" smooth="yes"/>
      <point x="38" y="70" type="line"/>
    </contour>
    <contour>
      <point x="58" y="346" type="line"/>
      <point x="58" y="346" type="line" smooth="yes"/>
      <point x="58" y="346"/>
      <point x="53" y="275"/>
      <point x="53" y="275" type="curve" smooth="yes"/>
      <point x="53" y="275" type="line"/>
    </contour>
    <contour>
      <point x="306" y="673" type="curve" smooth="yes"/>
      <point x="302" y="647" type="line"/>
      <point x="349" y="643" type="line"/>
      <point x="351" y="670" type="line" smooth="yes"/>
      <point x="353" y="693"/>
      <point x="310" y="696"/>
    </contour>
    <contour>
      <point x="127" y="530" type="line" smooth="yes"/>
      <point x="154" y="528"/>
      <point x="161" y="575"/>
      <point x="133" y="575" type="curve" smooth="yes"/>
      <point x="110" y="575" type="line" smooth="yes"/>
      <point x="84" y="575"/>
      <point x="79" y="534"/>
      <point x="104" y="532" type="curve" smooth="yes"/>
    </contour>
    <contour>
      <point x="232" y="671" type="curve" smooth="yes"/>
      <point x="242" y="626" type="line" smooth="yes"/>
      <point x="247" y="605"/>
      <point x="295" y="614"/>
      <point x="288" y="634" type="curve" smooth="yes"/>
      <point x="273" y="678" type="line" smooth="yes"/>
      <point x="267" y="696"/>
      <point x="228" y="689"/>
    </contour>
  </outline>
</glyph>
<glyph name="G" format="2">
  <advance width="607"/>
  <unicode hex="0047"/>
  <anchor x="287" y="0" name="bottom"/>
  <anchor x="328" y="700" name="top"/>
  <outline>
    <contour>
      <point x="24" y="275" type="curve" smooth="yes"/>
      <point x="24" y="74"/>
      <point x="160" y="16"/>
      <point x="284" y="16" type="curve" smooth="yes"/>
      <point x="336" y="16"/>
      <point x="402" y="38"/>
      <point x="429" y="63" type="curve" smooth="yes"/>
      <point x="445" y="78"/>
      <point x="456" y="58"/>
      <point x="452" y="42" type="curve" smooth="yes"/>
      <point x="428" y="-57" type="line" smooth="yes"/>
      <point x="406" y="-148"/>
      <point x="616" y="-143"/>
      <point x="600" y="-26" type="curve" smooth="yes"/>
      <point x="560" y="265" type="line" smooth="yes"/>
      <point x="554" y="306"/>
      <point x="529" y="328"/>
      <point x="500" y="332" type="curve" smooth="yes"/>
      <point x="373" y="351" type="line" smooth="yes"/>
      <point x="329" y="358"/>
      <point x="314" y="286"/>
      <point x="371" y="285" type="curve" smooth="yes"/>
      <point x="451" y="284" type="line" smooth="yes"/>
      <point x="484" y="284"/>
      <point x="492" y="268"/>
      <point x="492" y="223" type="curve" smooth="yes"/>
      <point x="492" y="133"/>
      <point x="392" y="85"/>
      <point x="286" y="85" type="curve" smooth="yes"/>
      <point x="186" y="85"/>
      <point x="125" y="132"/>
      <point x="125" y="210" type="curve" smooth="yes"/>
      <point x="125" y="293"/>
      <point x="188" y="372"/>
      <point x="259" y="426" type="curve" smooth="yes"/>
      <point x="333" y="483"/>
      <point x="395" y="507"/>
      <point x="443" y="530" type="curve" smooth="yes"/>
      <point x="501" y="558"/>
      <point x="507" y="595"/>
      <point x="507" y="626" type="curve" smooth="yes"/>
      <point x="507" y="671"/>
      <point x="470" y="712"/>
      <point x="373" y="712" type="curve" smooth="yes"/>
      <point x="200" y="712"/>
      <point x="24" y="635"/>
    </contour>
    <contour>
      <point x="341" y="576" type="curve" smooth="yes"/>
      <point x="321" y="576"/>
      <point x="305" y="592"/>
      <point x="305" y="612" type="curve" smooth="yes"/>
      <point x="305" y="630"/>
      <point x="321" y="647"/>
      <point x="341" y="647" type="curve" smooth="yes"/>
      <point x="359" y="647"/>
      <point x="376" y="630"/>
      <point x="376" y="612" type="curve" smooth="yes"/>
      <point x="376" y="592"/>
      <point x="359" y="576"/>
    </contour>
    <contour>
      <point x="235" y="509" type="curve" smooth="yes"/>
      <point x="210" y="509"/>
      <point x="189" y="530"/>
      <point x="189" y="555" type="curve" smooth="yes"/>
      <point x="189" y="579"/>
      <point x="210" y="600"/>
      <point x="235" y="600" type="curve" smooth="yes"/>
      <point x="259" y="600"/>
      <point x="280" y="579"/>
      <point x="280" y="555" type="curve" smooth="yes"/>
      <point x="280" y="530"/>
      <point x="259" y="509"/>
    </contour>
    <contour>
      <point x="154" y="430" type="curve" smooth="yes"/>
      <point x="134" y="430"/>
      <point x="118" y="446"/>
      <point x="118" y="466" type="curve" smooth="yes"/>
      <point x="118" y="484"/>
      <point x="134" y="501"/>
      <point x="154" y="501" type="curve" smooth="yes"/>
      <point x="172" y="501"/>
      <point x="189" y="484"/>
      <point x="189" y="466" type="curve" smooth="yes"/>
      <point x="189" y="446"/>
      <point x="172" y="430"/>
    </contour>
    <contour>
      <point x="412" y="191" type="line" smooth="yes"/>
      <point x="443" y="196"/>
      <point x="443" y="240"/>
      <point x="408" y="239" type="curve" smooth="yes"/>
      <point x="294" y="237" type="line" smooth="yes"/>
      <point x="256" y="236"/>
      <point x="255" y="166"/>
      <point x="300" y="173" type="curve" smooth="yes"/>
    </contour>
    <contour>
      <point x="416" y="287" type="line" smooth="yes"/>
      <point x="450" y="285"/>
      <point x="452" y="335"/>
      <point x="419" y="339" type="curve" smooth="yes"/>
      <point x="371" y="345" type="line" smooth="yes"/>
      <point x="334" y="350"/>
      <point x="328" y="293"/>
      <point x="369" y="290" type="curve" smooth="yes"/>
    </contour>
    <contour>
      <point x="408" y="199" type="curve" smooth="yes"/>
      <point x="417" y="199"/>
      <point x="424" y="205"/>
      <point x="424" y="216" type="curve" smooth="yes"/>
      <point x="424" y="225"/>
      <point x="417" y="232"/>
      <point x="408" y="232" type="curve" smooth="yes"/>
      <point x="397" y="232"/>
      <point x="391" y="225"/>
      <point x="391" y="216" type="curve" smooth="yes"/>
      <point x="391" y="205"/>
      <point x="397" y="199"/>
    </contour>
    <contour>
      <point x="147" y="106" type="line" smooth="yes"/>
      <point x="162" y="127"/>
      <point x="122" y="164"/>
      <point x="105" y="140" type="curve" smooth="yes"/>
      <point x="90" y="119" type="line" smooth="yes"/>
      <point x="73" y="95"/>
      <point x="117" y="65"/>
      <point x="133" y="87" type="curve" smooth="yes"/>
    </contour>
    <contour>
      <point x="244" y="65" type="line" smooth="yes"/>
      <point x="249" y="85"/>
      <point x="208" y="98"/>
      <point x="199" y="77" type="curve" smooth="yes"/>
      <point x="192" y="60" type="line" smooth="yes"/>
      <point x="181" y="32"/>
      <point x="232" y="18"/>
      <point x="240" y="49" type="curve" smooth="yes"/>
    </contour>
  </outline>
</glyph>
<glyph name="H" format="2">
  <advance width="551"/>
  <unicode hex="0048"/>
  <anchor x="248" y="-20" name="bottom"/>
  <anchor x="320" y="710" name="top"/>
  <outline>
    <contour>
      <point x="379" y="193" type="line" smooth="yes"/>
      <point x="396" y="191"/>
      <point x="405" y="186"/>
      <point x="402" y="169" type="curve" smooth="yes"/>
      <point x="375" y="2" type="line" smooth="yes"/>
      <point x="365" y="-59"/>
      <point x="477" y="-63"/>
      <point x="480" y="-6" type="curve" smooth="yes"/>
      <point x="508" y="595" type="line" smooth="yes"/>
      <point x="512" y="679"/>
      <point x="397" y="676"/>
      <point x="388" y="584" type="curve" smooth="yes"/>
      <point x="375" y="451" type="line" smooth="yes"/>
      <point x="373" y="435"/>
      <point x="368" y="427"/>
      <point x="351" y="423" type="curve" smooth="yes"/>
      <point x="155" y="382" type="line" smooth="yes"/>
      <point x="138" y="378"/>
      <point x="129" y="394"/>
      <point x="131" y="410" type="curve" smooth="yes"/>
      <point x="159" y="692" type="line" smooth="yes"/>
      <point x="163" y="734"/>
      <point x="83" y="736"/>
      <point x="81" y="692" type="curve" smooth="yes"/>
      <point x="47" y="65" type="line" smooth="yes"/>
      <point x="45" y="19"/>
      <point x="131" y="23"/>
      <point x="131" y="66" type="curve" smooth="yes"/>
      <point x="132" y="199" type="line" smooth="yes"/>
      <point x="132" y="216"/>
      <point x="138" y="225"/>
      <point x="155" y="223" type="curve" smooth="yes"/>
    </contour>
    <contour>
      <point x="295" y="204" type="line"/>
      <point x="306" y="288" type="line" smooth="yes"/>
      <point x="311" y="324"/>
      <point x="357" y="325"/>
      <point x="358" y="290" type="curve" smooth="yes"/>
      <point x="360" y="196" type="line"/>
    </contour>
    <contour>
      <point x="190" y="218" type="line"/>
      <point x="176" y="291" type="line" smooth="yes"/>
      <point x="167" y="339"/>
      <point x="238" y="346"/>
      <point x="242" y="304" type="curve" smooth="yes"/>
      <point x="251" y="210" type="line"/>
    </contour>
    <contour>
      <point x="272" y="476" type="curve" smooth="yes"/>
      <point x="302" y="476"/>
      <point x="328" y="502"/>
      <point x="328" y="532" type="curve" smooth="yes"/>
      <point x="328" y="562"/>
      <point x="302" y="588"/>
      <point x="272" y="588" type="curve" smooth="yes"/>
      <point x="242" y="588"/>
      <point x="216" y="562"/>
      <point x="216" y="532" type="curve" smooth="yes"/>
      <point x="216" y="502"/>
      <point x="242" y="476"/>
    </contour>
    <contour>
      <point x="271" y="499" type="curve" smooth="yes"/>
      <point x="284" y="499"/>
      <point x="298" y="511"/>
      <point x="298" y="526" type="curve" smooth="yes"/>
      <point x="298" y="541"/>
      <point x="284" y="555"/>
      <point x="271" y="555" type="curve" smooth="yes"/>
      <point x="254" y="555"/>
      <point x="242" y="541"/>
      <point x="242" y="526" type="curve" smooth="yes"/>
      <point x="242" y="511"/>
      <point x="254" y="499"/>
    </contour>
    <contour>
      <point x="271" y="507" type="curve" smooth="yes"/>
      <point x="281" y="507"/>
      <point x="289" y="515"/>
      <point x="289" y="525" type="curve" smooth="yes"/>
      <point x="289" y="535"/>
      <point x="281" y="543"/>
      <point x="271" y="543" type="curve" smooth="yes"/>
      <point x="261" y="543"/>
      <point x="253" y="535"/>
      <point x="253" y="525" type="curve" smooth="yes"/>
      <point x="253" y="515"/>
      <point x="261" y="507"/>
    </contour>
    <contour>
      <point x="426" y="149" type="line" smooth="yes"/>
      <point x="398" y="150"/>
      <point x="397" y="109"/>
      <point x="421" y="108" type="curve" smooth="yes"/>
      <point x="457" y="106" type="line" smooth="yes"/>
      <point x="475" y="105"/>
      <point x="480" y="147"/>
      <point x="455" y="148" type="curve" smooth="yes"/>
    </contour>
    <contour>
      <point x="405" y="72" type="line" smooth="yes"/>
      <point x="377" y="70"/>
      <point x="383" y="30"/>
      <point x="407" y="33" type="curve" smooth="yes"/>
      <point x="465" y="40" type="line" smooth="yes"/>
      <point x="483" y="42"/>
      <point x="484" y="78"/>
      <point x="459" y="76" type="curve" smooth="yes"/>
    </contour>
    <contour>
      <point x="83" y="192" type="line" smooth="yes"/>
      <point x="55" y="192"/>
      <point x="57" y="147"/>
      <point x="81" y="146" type="curve" smooth="yes"/>
      <point x="105" y="145" type="line" smooth="yes"/>
      <point x="133" y="144"/>
      <point x="135" y="192"/>
      <point x="103" y="192" type="curve" smooth="yes"/>
    </contour>
  </outline>
</glyph>
<glyph name="I" format="2">
  <advance width="474"/>
  <unicode hex="0049"/>
  <anchor x="346" y="10" name="ogonek"/>
  <anchor x="260" y="715" name="top"/>
  <outline>
    <contour>
      <point x="100" y="-28" type="curve" smooth="yes"/>
      <point x="399" y="-28" type="line" smooth="yes"/>
      <point x="476" y="-28"/>
      <point x="470" y="110"/>
      <point x="386" y="98" type="curve" smooth="yes"/>
      <point x="324" y="89" type="line" smooth="yes"/>
      <point x="304" y="86"/>
      <point x="297" y="96"/>
      <point x="296" y="117" type="curve" smooth="yes"/>
      <point x="286" y="466" type="line" smooth="yes"/>
      <point x="285" y="491"/>
      <point x="292" y="502"/>
      <point x="309" y="503" type="curve" smooth="yes"/>
      <point x="373" y="505" type="line" smooth="yes"/>
      <point x="466" y="508"/>
      <point x="479" y="684"/>
      <point x="374" y="698" type="curve" smooth="yes"/>
      <point x="126" y="731" type="line" smooth="yes"/>
      <point x="-19" y="750"/>
      <point x="-27" y="516"/>
      <point x="102" y="511" type="curve" smooth="yes"/>
      <point x="158" y="509" type="line" smooth="yes"/>
      <point x="182" y="508"/>
      <point x="192" y="495"/>
      <point x="196" y="464" type="curve" smooth="yes"/>
      <point x="244" y="105" type="line" smooth="yes"/>
      <point x="247" y="86"/>
      <point x="242" y="79"/>
      <point x="224" y="76" type="curve" smooth="yes"/>
      <point x="97" y="56" type="line" smooth="yes"/>
      <point x="38" y="47"/>
      <point x="43" y="-28"/>
    </contour>
    <contour>
      <point x="223" y="456" type="line"/>
      <point x="227" y="406" type="line"/>
      <point x="255" y="409" type="line" smooth="yes"/>
      <point x="286" y="412"/>
      <point x="283" y="460"/>
      <point x="250" y="458" type="curve" smooth="yes"/>
    </contour>
    <contour>
      <point x="158" y="398" type="line" smooth="yes"/>
      <point x="118" y="400"/>
      <point x="114" y="350"/>
      <point x="154" y="345" type="curve" smooth="yes"/>
      <point x="385" y="317" type="line" smooth="yes"/>
      <point x="424" y="312"/>
      <point x="427" y="383"/>
      <point x="387" y="385" type="curve" smooth="yes"/>
    </contour>
    <contour>
      <point x="251" y="330" type="line" smooth="yes"/>
      <point x="217" y="330"/>
      <point x="222" y="277"/>
      <point x="254" y="283" type="curve" smooth="yes"/>
      <point x="271" y="286" type="line"/>
      <point x="267" y="330" type="line"/>
    </contour>
    <contour>
      <point x="148" y="240" type="line" smooth="yes"/>
      <point x="109" y="232"/>
      <point x="119" y="160"/>
      <point x="168" y="174" type="curve" smooth="yes"/>
      <point x="338" y="222" type="line" smooth="yes"/>
      <point x="373" y="232"/>
      <point x="362" y="286"/>
      <point x="324" y="278" type="curve" smooth="yes"/>
    </contour>
    <contour>
      <point x="149" y="728" type="line"/>
      <point x="201" y="721" type="line"/>
      <point x="198" y="634" type="line" smooth="yes"/>
      <point x="197" y="603"/>
      <point x="138" y="601"/>
      <point x="141" y="637" type="curve" smooth="yes"/>
    </contour>
    <contour>
      <point x="239" y="716" type="line"/>
      <point x="299" y="708" type="line"/>
      <point x="302" y="650" type="line" smooth="yes"/>
      <point x="304" y="606"/>
      <point x="244" y="604"/>
      <point x="242" y="648" type="curve" smooth="yes"/>
    </contour>
    <contour>
      <point x="328" y="704" type="line"/>
      <point x="366" y="699" type="line"/>
      <point x="366" y="699" type="line"/>
      <point x="366" y="699"/>
      <point x="328" y="704"/>
      <point x="328" y="704" type="curve"/>
    </contour>
    <contour>
      <point x="265" y="-28" type="line"/>
      <point x="265" y="-28" type="line"/>
      <point x="265" y="-28"/>
      <point x="305" y="-28"/>
      <point x="305" y="-28" type="curve"/>
      <point x="305" y="-28" type="line"/>
    </contour>
    <contour>
      <point x="331" y="-28" type="line"/>
      <point x="331" y="-28" type="line"/>
      <point x="331" y="-28"/>
      <point x="372" y="-28"/>
      <point x="372" y="-28" type="curve"/>
      <point x="372" y="-28" type="line"/>
    </contour>
  </outline>
</glyph>
<glyph name="J" format="2">
  <advance width="506"/>
  <unicode hex="004A"/>
  <anchor x="228" y="0" name="bottom"/>
  <anchor x="240" y="718" name="top"/>
  <outline>
    <contour>
      <point x="212" y="-17" type="curve" smooth="yes"/>
      <point x="342" y="-17"/>
      <point x="454" y="63"/>
      <point x="430" y="281" type="curve" smooth="yes"/>
      <point x="394" y="607" type="line" smooth="yes"/>
      <point x="387" y="666"/>
      <point x="383" y="704"/>
      <point x="325" y="708" type="curve" smooth="yes"/>
      <point x="106" y="725" type="line" smooth="yes"/>
      <point x="52" y="729"/>
      <point x="51" y="642"/>
      <point x="102" y="644" type="curve" smooth="yes"/>
      <point x="293" y="653" type="line" smooth="yes"/>
      <point x="322" y="654"/>
      <point x="334" y="644"/>
      <point x="338" y="603" type="curve" smooth="yes"/>
      <point x="365" y="338" type="line" smooth="yes"/>
      <point x="372" y="267"/>
      <point x="319" y="224"/>
      <point x="224" y="224" type="curve" smooth="yes"/>
      <point x="158" y="224"/>
      <point x="141" y="236"/>
      <point x="106" y="236" type="curve" smooth="yes"/>
      <point x="21" y="236"/>
      <point x="-2" y="104"/>
      <point x="47" y="45" type="curve" smooth="yes"/>
      <point x="84" y="0"/>
      <point x="140" y="-17"/>
    </contour>
    <contour>
      <point x="468" y="580" type="line" smooth="yes"/>
      <point x="505" y="588"/>
      <point x="499" y="636"/>
      <point x="463" y="631" type="curve" smooth="yes"/>
      <point x="84" y="578" type="line" smooth="yes"/>
      <point x="20" y="569"/>
      <point x="42" y="487"/>
      <point x="96" y="499" type="curve" smooth="yes"/>
    </contour>
    <contour>
      <point x="389" y="532" type="line"/>
      <point x="386" y="570" type="line"/>
      <point x="370" y="567" type="line" smooth="yes"/>
      <point x="343" y="562"/>
      <point x="345" y="527"/>
      <point x="370" y="530" type="curve" smooth="yes"/>
    </contour>
    <contour>
      <point x="386" y="479" type="line" smooth="yes"/>
      <point x="408" y="483"/>
      <point x="401" y="521"/>
      <point x="381" y="518" type="curve" smooth="yes"/>
      <point x="368" y="516" type="line" smooth="yes"/>
      <point x="347" y="513"/>
      <point x="352" y="472"/>
      <point x="371" y="476" type="curve" smooth="yes"/>
    </contour>
    <contour>
      <point x="392" y="511" type="line"/>
      <point x="392" y="450" type="line"/>
      <point x="465" y="445" type="line" smooth="yes"/>
      <point x="512" y="442"/>
      <point x="514" y="523"/>
      <point x="465" y="518" type="curve" smooth="yes"/>
    </contour>
    <contour>
      <point x="205" y="312" type="curve" smooth="yes"/>
      <point x="237" y="312"/>
      <point x="264" y="339"/>
      <point x="264" y="372" type="curve" smooth="yes"/>
      <point x="264" y="404"/>
      <point x="237" y="431"/>
      <point x="205" y="431" type="curve" smooth="yes"/>
      <point x="172" y="431"/>
      <point x="145" y="404"/>
      <point x="145" y="372" type="curve" smooth="yes"/>
      <point x="145" y="339"/>
      <point x="172" y="312"/>
    </contour>
    <contour>
      <point x="221" y="386" type="curve" smooth="yes"/>
      <point x="221" y="386"/>
      <point x="221" y="386"/>
      <point x="221" y="386" type="curve" smooth="yes"/>
      <point x="221" y="386"/>
      <point x="221" y="386"/>
      <point x="221" y="386" type="curve" smooth="yes"/>
      <point x="221" y="386"/>
      <point x="221" y="386"/>
      <point x="221" y="386" type="curve" smooth="yes"/>
      <point x="221" y="386"/>
      <point x="221" y="386"/>
    </contour>
    <contour>
      <point x="123" y="89" type="curve" smooth="yes"/>
      <point x="106" y="89"/>
      <point x="92" y="103"/>
      <point x="92" y="120" type="curve" smooth="yes"/>
      <point x="92" y="138"/>
      <point x="106" y="151"/>
      <point x="123" y="151" type="curve" smooth="yes"/>
      <point x="141" y="151"/>
      <point x="154" y="138"/>
      <point x="154" y="120" type="curve" smooth="yes"/>
      <point x="154" y="103"/>
      <point x="141" y="89"/>
    </contour>
    <contour>
      <point x="217" y="62" type="curve" smooth="yes"/>
      <point x="195" y="62"/>
      <point x="178" y="79"/>
      <point x="178" y="101" type="curve" smooth="yes"/>
      <point x="178" y="123"/>
      <point x="195" y="139"/>
      <point x="217" y="139" type="curve" smooth="yes"/>
      <point x="239" y="139"/>
      <point x="255" y="123"/>
      <point x="255" y="101" type="curve" smooth="yes"/>
      <point x="255" y="79"/>
      <point x="239" y="62"/>
    </contour>
    <contour>
      <point x="311" y="94" type="curve" smooth="yes"/>
      <point x="292" y="94"/>
      <point x="277" y="109"/>
      <point x="277" y="128" type="curve" smooth="yes"/>
      <point x="277" y="147"/>
      <point x="292" y="161"/>
      <point x="311" y="161" type="curve" smooth="yes"/>
      <point x="330" y="161"/>
      <point x="344" y="147"/>
      <point x="344" y="128" type="curve" smooth="yes"/>
      <point x="344" y="109"/>
      <point x="330" y="94"/>
    </contour>
  </outline>
</glyph>
<glyph name="K" format="2">
  <advance width="609"/>
  <unicode hex="004B"/>
  <anchor x="280" y="-17" name="bottom"/>
  <anchor x="300" y="670" name="top"/>
  <outline>
    <contour>
      <point x="75" y="8" type="line" smooth="yes"/>
      <point x="78" y="-37"/>
      <point x="147" y="-30"/>
      <point x="146" y="14" type="curve" smooth="yes"/>
      <point x="140" y="223" type="line" smooth="yes"/>
      <point x="139" y="249"/>
      <point x="156" y="253"/>
      <point x="174" y="233" type="curve" smooth="yes"/>
      <point x="368" y="20" type="line" smooth="yes"/>
      <point x="454" y="-75"/>
      <point x="582" y="-10"/>
      <point x="582" y="96" type="curve" smooth="yes"/>
      <point x="582" y="181"/>
      <point x="567" y="222"/>
      <point x="514" y="233" type="curve" smooth="yes"/>
      <point x="500" y="236" type="line"/>
      <point x="493" y="108" type="line" smooth="yes"/>
      <point x="491" y="64"/>
      <point x="432" y="75"/>
      <point x="437" y="114" type="curve" smooth="yes"/>
      <point x="453" y="247" type="line"/>
      <point x="403" y="259" type="line"/>
      <point x="386" y="196" type="line" smooth="yes"/>
      <point x="376" y="159"/>
      <point x="309" y="186"/>
      <point x="326" y="222" type="curve" smooth="yes"/>
      <point x="349" y="272" type="line"/>
      <point x="225" y="302" type="line" smooth="yes"/>
      <point x="205" y="307"/>
      <point x="200" y="330"/>
      <point x="220" y="349" type="curve" smooth="yes"/>
      <point x="540" y="647" type="line" smooth="yes"/>
      <point x="581" y="685"/>
      <point x="522" y="746"/>
      <point x="484" y="708" type="curve" smooth="yes"/>
      <point x="166" y="383" type="line" smooth="yes"/>
      <point x="147" y="364"/>
      <point x="133" y="366"/>
      <point x="132" y="388" type="curve" smooth="yes"/>
      <point x="117" y="653" type="line" smooth="yes"/>
      <point x="114" y="706"/>
      <point x="29" y="703"/>
      <point x="33" y="647" type="curve" smooth="yes"/>
    </contour>
    <contour>
      <point x="427" y="324" type="curve" smooth="yes"/>
      <point x="457" y="324"/>
      <point x="482" y="349"/>
      <point x="482" y="380" type="curve" smooth="yes"/>
      <point x="482" y="410"/>
      <point x="457" y="435"/>
      <point x="427" y="435" type="curve" smooth="yes"/>
      <point x="396" y="435"/>
      <point x="371" y="410"/>
      <point x="371" y="380" type="curve" smooth="yes"/>
      <point x="371" y="349"/>
      <point x="396" y="324"/>
    </contour>
    <contour>
      <point x="370" y="652" type="line" smooth="yes"/>
      <point x="335" y="678"/>
      <point x="303" y="629"/>
      <point x="333" y="603" type="curve" smooth="yes"/>
      <point x="458" y="494" type="line" smooth="yes"/>
      <point x="492" y="465"/>
      <point x="543" y="526"/>
      <point x="499" y="558" type="curve" smooth="yes"/>
    </contour>
    <contour>
      <point x="266" y="596" type="line" smooth="yes"/>
      <point x="226" y="630"/>
      <point x="176" y="562"/>
      <point x="224" y="533" type="curve" smooth="yes"/>
      <point x="320" y="474" type="line" smooth="yes"/>
      <point x="340" y="462"/>
      <point x="375" y="504"/>
      <point x="347" y="527" type="curve" smooth="yes"/>
    </contour>
    <contour>
      <point x="83" y="195" type="line" smooth="yes"/>
      <point x="62" y="194"/>
      <point x="66" y="154"/>
      <point x="88" y="156" type="curve" smooth="yes"/>
      <point x="122" y="159" type="line" smooth="yes"/>
      <point x="142" y="161"/>
      <point x="140" y="197"/>
      <point x="116" y="196" type="curve" smooth="yes"/>
    </contour>
    <contour>
      <point x="92" y="88" type="line" smooth="yes"/>
      <point x="69" y="88"/>
      <point x="67" y="51"/>
      <point x="92" y="51" type="curve" smooth="yes"/>
      <point x="120" y="51" type="line" smooth="yes"/>
      <point x="147" y="51"/>
      <point x="148" y="88"/>
      <point x="123" y="88" type="curve" smooth="yes"/>
    </contour>
    <contour>
      <point x="89" y="402" type="curve" smooth="yes"/>
      <point x="101" y="402"/>
      <point x="112" y="413"/>
      <point x="112" y="426" type="curve" smooth="yes"/>
      <point x="112" y="438"/>
      <point x="101" y="449"/>
      <point x="89" y="449" type="curve" smooth="yes"/>
      <point x="76" y="449"/>
      <point x="65" y="438"/>
      <point x="65" y="426" type="curve" smooth="yes"/>
      <point x="65" y="413"/>
      <point x="76" y="402"/>
    </contour>
    <contour>
      <point x="80" y="560" type="curve" smooth="yes"/>
      <point x="91" y="560"/>
      <point x="101" y="570"/>
      <point x="101" y="583" type="curve" smooth="yes"/>
      <point x="101" y="594"/>
      <point x="91" y="604"/>
      <point x="80" y="604" type="curve" smooth="yes"/>
      <point x="67" y="604"/>
      <point x="57" y="594"/>
      <point x="57" y="583" type="curve" smooth="yes"/>
      <point x="57" y="570"/>
      <point x="67" y="560"/>
    </contour>
  </outline>
</glyph>
<glyph name="L" format="2">
  <advance width="527"/>
  <unicode hex="004C"/>
  <anchor x="264" y="0" name="bottom"/>
  <anchor x="191" y="720" name="top"/>
  <outline>
    <contour>
      <point x="72" y="102" type="line" smooth="yes"/>
      <point x="62" y="16"/>
      <point x="98" y="-27"/>
      <point x="165" y="-22" type="curve" smooth="yes"/>
      <point x="391" y="-4" type="line" smooth="yes"/>
      <point x="579" y="11"/>
      <point x="507" y="387"/>
      <point x="339" y="248" type="curve" smooth="yes"/>
      <point x="183" y="119" type="line" smooth="yes"/>
      <point x="164" y="103"/>
      <point x="138" y="113"/>
      <point x="143" y="146" type="curve" smooth="yes"/>
      <point x="227" y="681" type="line" smooth="yes"/>
      <point x="235" y="733"/>
      <point x="146" y="744"/>
      <point x="140" y="691" type="curve" smooth="yes"/>
    </contour>
    <contour>
      <point x="164" y="562" type="line"/>
      <point x="177" y="634" type="line"/>
      <point x="69" y="644" type="line" smooth="yes"/>
      <point x="19" y="649"/>
      <point x="11" y="581"/>
      <point x="66" y="574" type="curve" smooth="yes"/>
    </contour>
    <contour>
      <point x="147" y="571" type="line" smooth="yes"/>
      <point x="119" y="567"/>
      <point x="126" y="519"/>
      <point x="153" y="525" type="curve" smooth="yes"/>
      <point x="188" y="533" type="line" smooth="yes"/>
      <point x="208" y="538"/>
      <point x="203" y="578"/>
      <point x="179" y="575" type="curve" smooth="yes"/>
    </contour>
    <contour>
      <point x="181" y="515" type="line"/>
      <point x="176" y="449" type="line"/>
      <point x="283" y="434" type="line" smooth="yes"/>
      <point x="332" y="427"/>
      <point x="346" y="513"/>
      <point x="286" y="514" type="curve" smooth="yes"/>
    </contour>
    <contour>
      <point x="116" y="303" type="line"/>
      <point x="146" y="309" type="line" smooth="yes"/>
      <point x="169" y="314"/>
      <point x="164" y="357"/>
      <point x="142" y="354" type="curve" smooth="yes"/>
      <point x="112" y="350" type="line"/>
    </contour>
    <contour>
      <point x="202" y="135" type="line"/>
      <point x="202" y="135" type="line"/>
      <point x="202" y="135"/>
      <point x="185" y="121"/>
      <point x="185" y="121" type="curve"/>
      <point x="185" y="121" type="line"/>
    </contour>
    <contour>
      <point x="257" y="180" type="line"/>
      <point x="279" y="129" type="line" smooth="yes"/>
      <point x="293" y="96"/>
      <point x="248" y="77"/>
      <point x="232" y="110" type="curve" smooth="yes"/>
      <point x="215" y="145" type="line"/>
    </contour>
    <contour>
      <point x="328" y="239" type="line"/>
      <point x="382" y="179" type="line" smooth="yes"/>
      <point x="411" y="147"/>
      <point x="359" y="106"/>
      <point x="333" y="142" type="curve" smooth="yes"/>
      <point x="287" y="205" type="line"/>
    </contour>
  </outline>
</glyph>
<glyph name="M" format="2">
  <advance width="749"/>
  <unicode hex="004D"/>
  <anchor x="373" y="0" name="bottom"/>
  <anchor x="385" y="700" name="top"/>
  <outline>
    <contour>
      <point x="21" y="70" type="line" smooth="yes"/>
      <point x="13" y="6"/>
      <point x="93" y="15"/>
      <point x="98" y="59" type="curve" smooth="yes"/>
      <point x="125" y="307" type="line" smooth="yes"/>
      <point x="130" y="351"/>
      <point x="159" y="356"/>
      <point x="190" y="325" type="curve" smooth="yes"/>
      <point x="325" y="191" type="line" smooth="yes"/>
      <point x="363" y="153"/>
      <point x="414" y="149"/>
      <point x="445" y="190" type="curve" smooth="yes"/>
      <point x="557" y="338" type="line" smooth="yes"/>
      <point x="585" y="375"/>
      <point x="629" y="357"/>
      <point x="632" y="308" type="curve" smooth="yes"/>
      <point x="649" y="30" type="line" smooth="yes"/>
      <point x="652" y="-26"/>
      <point x="733" y="-11"/>
      <point x="728" y="41" type="curve" smooth="yes"/>
      <point x="669" y="621" type="line" smooth="yes"/>
      <point x="659" y="716"/>
      <point x="515" y="718"/>
      <point x="495" y="642" type="curve" smooth="yes"/>
      <point x="401" y="289" type="line" smooth="yes"/>
      <point x="389" y="243"/>
      <point x="367" y="245"/>
      <point x="355" y="288" type="curve" smooth="yes"/>
      <point x="245" y="676" type="line" smooth="yes"/>
      <point x="221" y="761"/>
      <point x="106" y="749"/>
      <point x="97" y="675" type="curve" smooth="yes"/>
    </contour>
    <contour>
      <point x="257" y="633" type="line"/>
      <point x="275" y="570" type="line"/>
      <point x="189" y="548" type="line" smooth="yes"/>
      <point x="156" y="540"/>
      <point x="142" y="591"/>
      <point x="175" y="603" type="curve" smooth="yes"/>
    </contour>
    <contour>
      <point x="291" y="514" type="line"/>
      <point x="305" y="465" type="line"/>
      <point x="201" y="437" type="line" smooth="yes"/>
      <point x="151" y="424"/>
      <point x="129" y="498"/>
      <point x="183" y="503" type="curve" smooth="yes"/>
    </contour>
    <contour>
      <point x="560" y="471" type="curve" smooth="yes"/>
      <point x="534" y="471"/>
      <point x="514" y="491"/>
      <point x="514" y="517" type="curve" smooth="yes"/>
      <point x="514" y="542"/>
      <point x="534" y="562"/>
      <point x="560" y="562" type="curve" smooth="yes"/>
      <point x="585" y="562"/>
      <point x="605" y="542"/>
      <point x="605" y="517" type="curve" smooth="yes"/>
      <point x="605" y="491"/>
      <point x="585" y="471"/>
    </contour>
    <contour>
      <point x="385" y="182" type="curve" smooth="yes"/>
      <point x="400" y="182"/>
      <point x="414" y="195"/>
      <point x="414" y="212" type="curve" smooth="yes"/>
      <point x="414" y="228"/>
      <point x="400" y="242"/>
      <point x="385" y="242" type="curve" smooth="yes"/>
      <point x="367" y="242"/>
      <point x="354" y="228"/>
      <point x="354" y="212" type="curve" smooth="yes"/>
      <point x="354" y="195"/>
      <point x="367" y="182"/>
    </contour>
    <contour>
      <point x="692" y="74" type="line" smooth="yes"/>
      <point x="721" y="74"/>
      <point x="715" y="116"/>
      <point x="691" y="112" type="curve" smooth="yes"/>
      <point x="678" y="110" type="line" smooth="yes"/>
      <point x="655" y="106"/>
      <point x="657" y="74"/>
      <point x="679" y="74" type="curve" smooth="yes"/>
    </contour>
    <contour>
      <point x="669" y="194" type="curve" smooth="yes"/>
      <point x="691" y="196" type="line" smooth="yes"/>
      <point x="712" y="198"/>
      <point x="714" y="229"/>
      <point x="692" y="230" type="curve" smooth="yes"/>
      <point x="668" y="231" type="line" smooth="yes"/>
      <point x="647" y="232"/>
      <point x="643" y="192"/>
    </contour>
    <contour>
      <point x="73" y="131" type="line" smooth="yes"/>
      <point x="104" y="131"/>
      <point x="98" y="170"/>
      <point x="73" y="168" type="curve" smooth="yes"/>
      <point x="57" y="167" type="line" smooth="yes"/>
      <point x="33" y="165"/>
      <point x="34" y="131"/>
      <point x="58" y="131" type="curve" smooth="yes"/>
    </contour>
    <contour>
      <point x="73" y="232" type="curve" smooth="yes"/>
      <point x="90" y="232" type="line" smooth="yes"/>
      <point x="115" y="232"/>
      <point x="117" y="263"/>
      <point x="91" y="263" type="curve" smooth="yes"/>
      <point x="68" y="263" type="line" smooth="yes"/>
      <point x="48" y="263"/>
      <point x="48" y="232"/>
    </contour>
    <contour>
      <point x="501" y="264" type="line"/>
      <point x="501" y="264" type="line"/>
      <point x="501" y="264"/>
      <point x="538" y="313"/>
      <point x="538" y="313" type="curve"/>
      <point x="538" y="313" type="line"/>
    </contour>
  </outline>
</glyph>
<glyph name="N" format="2">
  <advance width="665"/>
  <unicode hex="004E"/>
  <anchor x="388" y="71" name="bottom"/>
  <anchor x="357" y="700" name="top"/>
  <outline>
    <contour>
      <point x="40" y="80" type="line" smooth="yes"/>
      <point x="34" y="-68"/>
      <point x="303" y="-57"/>
      <point x="266" y="112" type="curve" smooth="yes"/>
      <point x="184" y="488" type="line" smooth="yes"/>
      <point x="168" y="561"/>
      <point x="249" y="575"/>
      <point x="269" y="526" type="curve" smooth="yes"/>
      <point x="413" y="177" type="line" smooth="yes"/>
      <point x="447" y="95"/>
      <point x="560" y="113"/>
      <point x="565" y="202" type="curve" smooth="yes"/>
      <point x="595" y="719" type="line" smooth="yes"/>
      <point x="598" y="763"/>
      <point x="525" y="766"/>
      <point x="524" y="720" type="curve" smooth="yes"/>
      <point x="510" y="271" type="line" smooth="yes"/>
      <point x="509" y="225"/>
      <point x="462" y="217"/>
      <point x="446" y="261" type="curve" smooth="yes"/>
      <point x="313" y="630" type="line" smooth="yes"/>
      <point x="262" y="771"/>
      <point x="68" y="733"/>
      <point x="61" y="572" type="curve" smooth="yes"/>
    </contour>
    <contour>
      <point x="445" y="664" type="line" smooth="yes"/>
      <point x="391" y="669"/>
      <point x="391" y="584"/>
      <point x="445" y="584" type="curve" smooth="yes"/>
      <point x="630" y="585" type="line" smooth="yes"/>
      <point x="670" y="585"/>
      <point x="670" y="643"/>
      <point x="630" y="647" type="curve" smooth="yes"/>
    </contour>
    <contour>
      <point x="449" y="506" type="line" smooth="yes"/>
      <point x="413" y="503"/>
      <point x="413" y="450"/>
      <point x="449" y="450" type="curve" smooth="yes"/>
      <point x="627" y="450" type="line" smooth="yes"/>
      <point x="667" y="450"/>
      <point x="669" y="525"/>
      <point x="625" y="521" type="curve" smooth="yes"/>
    </contour>
    <contour>
      <point x="535" y="406" type="line" smooth="yes"/>
      <point x="512" y="407"/>
      <point x="513" y="370"/>
      <point x="533" y="368" type="curve" smooth="yes"/>
      <point x="553" y="366" type="line" smooth="yes"/>
      <point x="577" y="364"/>
      <point x="579" y="403"/>
      <point x="552" y="405" type="curve" smooth="yes"/>
    </contour>
    <contour>
      <point x="51" y="327" type="line"/>
      <point x="136" y="350" type="line" smooth="yes"/>
      <point x="170" y="359"/>
      <point x="187" y="294"/>
      <point x="137" y="284" type="curve" smooth="yes"/>
      <point x="48" y="267" type="line"/>
    </contour>
    <contour>
      <point x="48" y="259" type="line"/>
      <point x="48" y="259" type="line"/>
      <point x="48" y="259"/>
      <point x="46" y="224"/>
      <point x="46" y="224" type="curve"/>
      <point x="46" y="224" type="line"/>
    </contour>
    <contour>
      <point x="46" y="219" type="line"/>
      <point x="129" y="222" type="line" smooth="yes"/>
      <point x="182" y="224"/>
      <point x="186" y="134"/>
      <point x="132" y="139" type="curve" smooth="yes"/>
      <point x="43" y="148" type="line"/>
    </contour>
    <contour>
      <point x="497" y="147" type="curve" smooth="yes"/>
      <point x="511" y="147"/>
      <point x="524" y="160"/>
      <point x="524" y="175" type="curve" smooth="yes"/>
      <point x="524" y="189"/>
      <point x="511" y="202"/>
      <point x="497" y="202" type="curve" smooth="yes"/>
      <point x="482" y="202"/>
      <point x="469" y="189"/>
      <point x="469" y="175" type="curve" smooth="yes"/>
      <point x="469" y="160"/>
      <point x="482" y="147"/>
    </contour>
    <contour>
      <point x="187" y="602" type="curve" smooth="yes"/>
      <point x="199" y="602"/>
      <point x="209" y="612"/>
      <point x="209" y="625" type="curve" smooth="yes"/>
      <point x="209" y="637"/>
      <point x="199" y="647"/>
      <point x="187" y="647" type="curve" smooth="yes"/>
      <point x="174" y="647"/>
      <point x="164" y="637"/>
      <point x="164" y="625" type="curve" smooth="yes"/>
      <point x="164" y="612"/>
      <point x="174" y="602"/>
    </contour>
    <contour>
      <point x="328" y="465" type="line" smooth="yes"/>
      <point x="309" y="454"/>
      <point x="326" y="419"/>
      <point x="345" y="428" type="curve" smooth="yes"/>
      <point x="360" y="435" type="line"/>
      <point x="343" y="474" type="line"/>
    </contour>
    <contour>
      <point x="350" y="386" type="line" smooth="yes"/>
      <point x="330" y="374"/>
      <point x="354" y="328"/>
      <point x="373" y="340" type="curve" smooth="yes"/>
      <point x="394" y="354" type="line" smooth="yes"/>
      <point x="410" y="364"/>
      <point x="387" y="408"/>
      <point x="367" y="396" type="curve" smooth="yes"/>
    </contour>
  </outline>
</glyph>
<glyph name="O" format="2">
  <advance width="621"/>
  <unicode hex="004F"/>
  <anchor x="307" y="0" name="bottom"/>
  <anchor x="320" y="700" name="top"/>
  <outline>
    <contour>
      <point x="297" y="-12" type="curve" smooth="yes"/>
      <point x="492" y="-12"/>
      <point x="597" y="165"/>
      <point x="597" y="379" type="curve" smooth="yes"/>
      <point x="598" y="570"/>
      <point x="491" y="718"/>
      <point x="316" y="718" type="curve" smooth="yes"/>
      <point x="137" y="718"/>
      <point x="24" y="536"/>
      <point x="24" y="333" type="curve" smooth="yes"/>
      <point x="24" y="141"/>
      <point x="121" y="-12"/>
    </contour>
    <contour>
      <point x="273" y="218" type="curve" smooth="yes"/>
      <point x="161" y="218"/>
      <point x="100" y="293"/>
      <point x="100" y="412" type="curve" smooth="yes"/>
      <point x="100" y="531"/>
      <point x="188" y="661"/>
      <point x="320" y="661" type="curve" smooth="yes"/>
      <point x="439" y="661"/>
      <point x="513" y="577"/>
      <point x="513" y="472" type="curve" smooth="yes"/>
      <point x="513" y="347"/>
      <point x="387" y="218"/>
    </contour>
    <contour>
      <point x="447" y="208" type="curve" smooth="yes"/>
      <point x="468" y="208"/>
      <point x="483" y="193"/>
      <point x="483" y="172" type="curve" smooth="yes"/>
      <point x="483" y="152"/>
      <point x="468" y="137"/>
      <point x="447" y="137" type="curve" smooth="yes"/>
      <point x="427" y="137"/>
      <point x="412" y="152"/>
      <point x="412" y="172" type="curve" smooth="yes"/>
      <point x="412" y="193"/>
      <point x="427" y="208"/>
    </contour>
    <contour>
      <point x="340" y="159" type="curve" smooth="yes"/>
      <point x="364" y="159"/>
      <point x="383" y="140"/>
      <point x="383" y="114" type="curve" smooth="yes"/>
      <point x="383" y="90"/>
      <point x="364" y="71"/>
      <point x="340" y="71" type="curve" smooth="yes"/>
      <point x="314" y="71"/>
      <point x="295" y="90"/>
      <point x="295" y="114" type="curve" smooth="yes"/>
      <point x="295" y="140"/>
      <point x="314" y="159"/>
    </contour>
    <contour>
      <point x="219" y="152" type="curve" smooth="yes"/>
      <point x="240" y="152"/>
      <point x="255" y="137"/>
      <point x="255" y="116" type="curve" smooth="yes"/>
      <point x="255" y="96"/>
      <point x="240" y="81"/>
      <point x="219" y="81" type="curve" smooth="yes"/>
      <point x="199" y="81"/>
      <point x="184" y="96"/>
      <point x="184" y="116" type="curve" smooth="yes"/>
      <point x="184" y="137"/>
      <point x="199" y="152"/>
    </contour>
    <contour>
      <point x="429" y="654" type="line" smooth="yes"/>
      <point x="437" y="681"/>
      <point x="388" y="701"/>
      <point x="378" y="670" type="curve" smooth="yes"/>
      <point x="354" y="593" type="line" smooth="yes"/>
      <point x="339" y="545"/>
      <point x="394" y="528"/>
      <point x="406" y="571" type="curve" smooth="yes"/>
    </contour>
    <contour>
      <point x="215" y="641" type="line" smooth="yes"/>
      <point x="183" y="670"/>
      <point x="148" y="625"/>
      <point x="167" y="605" type="curve" smooth="yes"/>
      <point x="240" y="531" type="line" smooth="yes"/>
      <point x="271" y="500"/>
      <point x="319" y="547"/>
      <point x="283" y="579" type="curve" smooth="yes"/>
    </contour>
    <contour>
      <point x="106" y="514" type="line" smooth="yes"/>
      <point x="77" y="521"/>
      <point x="63" y="464"/>
      <point x="93" y="459" type="curve" smooth="yes"/>
      <point x="239" y="434" type="line" smooth="yes"/>
      <point x="267" y="429"/>
      <point x="279" y="472"/>
      <point x="246" y="480" type="curve" smooth="yes"/>
    </contour>
    <contour>
      <point x="108" y="307" type="line" smooth="yes"/>
      <point x="75" y="288"/>
      <point x="95" y="243"/>
      <point x="129" y="259" type="curve" smooth="yes"/>
      <point x="193" y="289" type="line" smooth="yes"/>
      <point x="231" y="307"/>
      <point x="205" y="364"/>
      <point x="167" y="342" type="curve" smooth="yes"/>
    </contour>
    <contour>
      <point x="227" y="188" type="line" smooth="yes"/>
      <point x="218" y="165"/>
      <point x="263" y="155"/>
      <point x="268" y="176" type="curve" smooth="yes"/>
      <point x="271" y="188" type="line" smooth="yes"/>
      <point x="276" y="208"/>
      <point x="241" y="224"/>
      <point x="232" y="201" type="curve" smooth="yes"/>
    </contour>
    <contour>
      <point x="411" y="243" type="line" smooth="yes"/>
      <point x="394" y="262"/>
      <point x="362" y="237"/>
      <point x="376" y="218" type="curve" smooth="yes"/>
      <point x="381" y="211" type="line" smooth="yes"/>
      <point x="397" y="189"/>
      <point x="435" y="216"/>
      <point x="418" y="235" type="curve" smooth="yes"/>
    </contour>
    <contour>
      <point x="503" y="356" type="line" smooth="yes"/>
      <point x="479" y="364"/>
      <point x="468" y="328"/>
      <point x="490" y="318" type="curve" smooth="yes"/>
      <point x="512" y="308" type="line" smooth="yes"/>
      <point x="539" y="296"/>
      <point x="552" y="340"/>
      <point x="525" y="349" type="curve" smooth="yes"/>
    </contour>
    <contour>
      <point x="536" y="516" type="line" smooth="yes"/>
      <point x="510" y="506"/>
      <point x="520" y="471"/>
      <point x="543" y="477" type="curve" smooth="yes"/>
      <point x="563" y="482" type="line" smooth="yes"/>
      <point x="581" y="486"/>
      <point x="572" y="530"/>
      <point x="549" y="521" type="curve" smooth="yes"/>
    </contour>
    <contour>
      <point x="481" y="286" type="curve" smooth="yes"/>
      <point x="467" y="286"/>
      <point x="456" y="274"/>
      <point x="456" y="260" type="curve" smooth="yes"/>
      <point x="456" y="246"/>
      <point x="467" y="236"/>
      <point x="481" y="236" type="curve" smooth="yes"/>
      <point x="495" y="236"/>
      <point x="506" y="246"/>
      <point x="506" y="260" type="curve" smooth="yes"/>
      <point x="506" y="274"/>
      <point x="495" y="286"/>
    </contour>
  </outline>
</glyph>
<glyph name="P" format="2">
  <advance width="542"/>
  <unicode hex="0050"/>
  <anchor x="128" y="0" name="bottom"/>
  <anchor x="262" y="701" name="top"/>
  <outline>
    <contour>
      <point x="151" y="568"/>
      <point x="174" y="590"/>
      <point x="217" y="596" type="curve" smooth="yes"/>
      <point x="326" y="612" type="line" smooth="yes"/>
      <point x="399" y="623"/>
      <point x="430" y="550"/>
      <point x="431" y="463" type="curve" smooth="yes"/>
      <point x="432" y="366"/>
      <point x="359" y="313"/>
      <point x="272" y="313" type="curve" smooth="yes"/>
      <point x="177" y="313" type="line" smooth="yes"/>
      <point x="144" y="313"/>
      <point x="124" y="332"/>
      <point x="128" y="368" type="curve" smooth="yes"/>
      <point x="144" y="508" type="line" smooth="yes"/>
    </contour>
    <contour>
      <point x="48" y="56" type="line" smooth="yes"/>
      <point x="43" y="-58"/>
      <point x="203" y="-56"/>
      <point x="221" y="34" type="curve" smooth="yes"/>
      <point x="261" y="230" type="line" smooth="yes"/>
      <point x="266" y="253"/>
      <point x="280" y="265"/>
      <point x="298" y="265" type="curve" smooth="yes"/>
      <point x="337" y="265" type="line" smooth="yes"/>
      <point x="418" y="265"/>
      <point x="495" y="327"/>
      <point x="495" y="465" type="curve" smooth="yes"/>
      <point x="495" y="620"/>
      <point x="419" y="684"/>
      <point x="311" y="695" type="curve" smooth="yes"/>
      <point x="173" y="709" type="line" smooth="yes"/>
      <point x="117" y="715"/>
      <point x="77" y="682"/>
      <point x="75" y="629" type="curve" smooth="yes"/>
    </contour>
    <contour>
      <point x="462" y="251" type="curve" smooth="yes"/>
      <point x="306" y="399" type="line" smooth="yes"/>
      <point x="277" y="427"/>
      <point x="248" y="391"/>
      <point x="272" y="365" type="curve" smooth="yes"/>
      <point x="417" y="207" type="line" smooth="yes"/>
      <point x="450" y="171"/>
      <point x="497" y="217"/>
    </contour>
    <contour>
      <point x="523" y="457" type="curve" smooth="yes"/>
      <point x="382" y="471" type="line" smooth="yes"/>
      <point x="346" y="475"/>
      <point x="335" y="411"/>
      <point x="377" y="410" type="curve" smooth="yes"/>
      <point x="521" y="407" type="line" smooth="yes"/>
      <point x="562" y="406"/>
      <point x="561" y="453"/>
    </contour>
    <contour>
      <point x="173" y="220" type="curve" smooth="yes"/>
      <point x="173" y="220"/>
      <point x="173" y="220"/>
      <point x="173" y="220" type="curve" smooth="yes"/>
      <point x="173" y="220"/>
      <point x="173" y="220"/>
      <point x="173" y="220" type="curve" smooth="yes"/>
      <point x="173" y="220"/>
      <point x="173" y="220"/>
      <point x="173" y="220" type="curve" smooth="yes"/>
      <point x="173" y="220"/>
      <point x="173" y="220"/>
    </contour>
    <contour>
      <point x="144" y="45" type="curve" smooth="yes"/>
      <point x="118" y="45"/>
      <point x="97" y="66"/>
      <point x="97" y="92" type="curve" smooth="yes"/>
      <point x="97" y="117"/>
      <point x="118" y="138"/>
      <point x="144" y="138" type="curve" smooth="yes"/>
      <point x="169" y="138"/>
      <point x="190" y="117"/>
      <point x="190" y="92" type="curve" smooth="yes"/>
      <point x="190" y="66"/>
      <point x="169" y="45"/>
    </contour>
    <contour>
      <point x="125" y="568" type="curve" smooth="yes"/>
      <point x="97" y="567" type="line" smooth="yes"/>
      <point x="74" y="566"/>
      <point x="74" y="518"/>
      <point x="97" y="523" type="curve" smooth="yes"/>
      <point x="125" y="529" type="line" smooth="yes"/>
      <point x="148" y="534"/>
      <point x="153" y="569"/>
    </contour>
    <contour>
      <point x="111" y="477" type="curve" smooth="yes"/>
      <point x="87" y="474" type="line" smooth="yes"/>
      <point x="64" y="471"/>
      <point x="70" y="423"/>
      <point x="93" y="429" type="curve" smooth="yes"/>
      <point x="118" y="435" type="line" smooth="yes"/>
      <point x="140" y="440"/>
      <point x="136" y="480"/>
    </contour>
    <contour>
      <point x="411" y="632" type="curve" smooth="yes"/>
      <point x="399" y="624" type="line" smooth="yes"/>
      <point x="381" y="612"/>
      <point x="410" y="572"/>
      <point x="427" y="581" type="curve" smooth="yes"/>
      <point x="440" y="588" type="line" smooth="yes"/>
      <point x="459" y="598"/>
      <point x="428" y="643"/>
    </contour>
  </outline>
</glyph>
<glyph name="Q" format="2">
  <advance width="627"/>
  <unicode hex="0051"/>
  <anchor x="258" y="0" name="bottom"/>
  <anchor x="333" y="700" name="top"/>
  <outline>
    <contour>
      <point x="182" y="0" type="curve" smooth="yes"/>
      <point x="447" y="-205" type="line" smooth="yes"/>
      <point x="534" y="-272"/>
      <point x="622" y="-146"/>
      <point x="516" y="-105" type="curve" smooth="yes"/>
      <point x="328" y="-33" type="line" smooth="yes"/>
      <point x="303" y="-23"/>
      <point x="306" y="7"/>
      <point x="329" y="12" type="curve" smooth="yes"/>
      <point x="547" y="58"/>
      <point x="603" y="163"/>
      <point x="603" y="361" type="curve" smooth="yes"/>
      <point x="603" y="596"/>
      <point x="499" y="718"/>
      <point x="339" y="718" type="curve" smooth="yes"/>
      <point x="152" y="718"/>
      <point x="24" y="584"/>
      <point x="24" y="317" type="curve" smooth="yes"/>
      <point x="24" y="151"/>
      <point x="78" y="81"/>
    </contour>
    <contour>
      <point x="275" y="66" type="curve" smooth="yes"/>
      <point x="180" y="66"/>
      <point x="100" y="138"/>
      <point x="100" y="224" type="curve" smooth="yes"/>
      <point x="101" y="361"/>
      <point x="276" y="481"/>
      <point x="417" y="481" type="curve" smooth="yes"/>
      <point x="496" y="481"/>
      <point x="532" y="401"/>
      <point x="532" y="256" type="curve" smooth="yes"/>
      <point x="532" y="151"/>
      <point x="419" y="66"/>
    </contour>
    <contour>
      <point x="139" y="445" type="curve" smooth="yes"/>
      <point x="118" y="445"/>
      <point x="101" y="462"/>
      <point x="101" y="483" type="curve" smooth="yes"/>
      <point x="101" y="502"/>
      <point x="118" y="519"/>
      <point x="139" y="519" type="curve" smooth="yes"/>
      <point x="158" y="519"/>
      <point x="175" y="502"/>
      <point x="175" y="483" type="curve" smooth="yes"/>
      <point x="175" y="462"/>
      <point x="158" y="445"/>
    </contour>
    <contour>
      <point x="239" y="520" type="curve" smooth="yes"/>
      <point x="213" y="520"/>
      <point x="192" y="541"/>
      <point x="192" y="567" type="curve" smooth="yes"/>
      <point x="192" y="593"/>
      <point x="213" y="614"/>
      <point x="239" y="614" type="curve" smooth="yes"/>
      <point x="265" y="614"/>
      <point x="286" y="593"/>
      <point x="286" y="567" type="curve" smooth="yes"/>
      <point x="286" y="541"/>
      <point x="265" y="520"/>
    </contour>
    <contour>
      <point x="376" y="560" type="curve" smooth="yes"/>
      <point x="354" y="560"/>
      <point x="337" y="577"/>
      <point x="337" y="599" type="curve" smooth="yes"/>
      <point x="337" y="620"/>
      <point x="354" y="637"/>
      <point x="376" y="637" type="curve" smooth="yes"/>
      <point x="397" y="637"/>
      <point x="414" y="620"/>
      <point x="414" y="599" type="curve" smooth="yes"/>
      <point x="414" y="577"/>
      <point x="397" y="560"/>
    </contour>
    <contour>
      <point x="385" y="93" type="curve" smooth="yes"/>
      <point x="347" y="180" type="line" smooth="yes"/>
      <point x="328" y="224"/>
      <point x="278" y="195"/>
      <point x="294" y="155" type="curve" smooth="yes"/>
      <point x="330" y="62" type="line" smooth="yes"/>
      <point x="347" y="19"/>
      <point x="404" y="50"/>
    </contour>
    <contour>
      <point x="528" y="181" type="curve" smooth="yes"/>
      <point x="405" y="285" type="line" smooth="yes"/>
      <point x="368" y="317"/>
      <point x="334" y="269"/>
      <point x="368" y="239" type="curve" smooth="yes"/>
      <point x="491" y="130" type="line" smooth="yes"/>
      <point x="526" y="99"/>
      <point x="565" y="150"/>
    </contour>
    <contour>
      <point x="546" y="516" type="curve" smooth="yes"/>
      <point x="507" y="495" type="line" smooth="yes"/>
      <point x="476" y="478"/>
      <point x="505" y="437"/>
      <point x="530" y="453" type="curve" smooth="yes"/>
      <point x="567" y="477" type="line" smooth="yes"/>
      <point x="594" y="495"/>
      <point x="576" y="532"/>
    </contour>
    <contour>
      <point x="579" y="364" type="curve" smooth="yes"/>
      <point x="554" y="365" type="line" smooth="yes"/>
      <point x="522" y="366"/>
      <point x="525" y="314"/>
      <point x="556" y="314" type="curve" smooth="yes"/>
      <point x="581" y="314" type="line" smooth="yes"/>
      <point x="605" y="314"/>
      <point x="605" y="363"/>
    </contour>
    <contour>
      <point x="374" y="-111" type="curve" smooth="yes"/>
      <point x="379" y="-101" type="line" smooth="yes"/>
      <point x="387" y="-86"/>
      <point x="354" y="-66"/>
      <point x="342" y="-81" type="curve" smooth="yes"/>
      <point x="334" y="-91" type="line" smooth="yes"/>
      <point x="317" y="-112"/>
      <point x="362" y="-135"/>
    </contour>
    <contour>
      <point x="483" y="-147" type="curve" smooth="yes"/>
      <point x="495" y="-126" type="line" smooth="yes"/>
      <point x="505" y="-109"/>
      <point x="461" y="-92"/>
      <point x="454" y="-112" type="curve" smooth="yes"/>
      <point x="446" y="-134" type="line" smooth="yes"/>
      <point x="438" y="-156"/>
      <point x="472" y="-167"/>
    </contour>
  </outline>
</glyph>
<glyph name="R" format="2">
  <advance width="600"/>
  <unicode hex="0052"/>
  <anchor x="270" y="0" name="bottom"/>
  <anchor x="302" y="700" name="top"/>
  <outline>
    <contour>
      <point x="66" y="34" type="line" smooth="yes"/>
      <point x="69" y="-24"/>
      <point x="181" y="-15"/>
      <point x="174" y="35" type="curve" smooth="yes"/>
      <point x="159" y="149" type="line" smooth="yes"/>
      <point x="158" y="155"/>
      <point x="161" y="163"/>
      <point x="168" y="163" type="curve" smooth="yes"/>
      <point x="169" y="163" type="line" smooth="yes"/>
      <point x="179" y="163"/>
      <point x="189" y="157"/>
      <point x="201" y="145" type="curve" smooth="yes"/>
      <point x="379" y="-37" type="line" smooth="yes"/>
      <point x="470" y="-130"/>
      <point x="572" y="-36"/>
      <point x="572" y="60" type="curve" smooth="yes"/>
      <point x="572" y="116"/>
      <point x="551" y="180"/>
      <point x="489" y="195" type="curve" smooth="yes"/>
      <point x="160" y="272" type="line" smooth="yes"/>
      <point x="118" y="282"/>
      <point x="127" y="345"/>
      <point x="163" y="337" type="curve" smooth="yes"/>
      <point x="213" y="325"/>
      <point x="261" y="319"/>
      <point x="317" y="319" type="curve" smooth="yes"/>
      <point x="450" y="319"/>
      <point x="543" y="379"/>
      <point x="544" y="497" type="curve" smooth="yes"/>
      <point x="545" y="628"/>
      <point x="461" y="716"/>
      <point x="292" y="716" type="curve" smooth="yes"/>
      <point x="292" y="716" type="line" smooth="yes"/>
      <point x="178" y="716"/>
      <point x="35" y="661"/>
      <point x="44" y="485" type="curve" smooth="yes"/>
    </contour>
    <contour>
      <point x="115" y="482" type="curve" smooth="yes"/>
      <point x="115" y="482" type="line" smooth="yes"/>
      <point x="115" y="579"/>
      <point x="192" y="639"/>
      <point x="286" y="639" type="curve" smooth="yes"/>
      <point x="290" y="639" type="line" smooth="yes"/>
      <point x="413" y="639"/>
      <point x="466" y="583"/>
      <point x="466" y="496" type="curve" smooth="yes"/>
      <point x="466" y="426"/>
      <point x="371" y="379"/>
      <point x="315" y="379" type="curve" smooth="yes"/>
      <point x="315" y="379" type="line" smooth="yes"/>
      <point x="189" y="380"/>
      <point x="115" y="398"/>
    </contour>
    <contour>
      <point x="450" y="204" type="line"/>
      <point x="439" y="105" type="line" smooth="yes"/>
      <point x="436" y="74"/>
      <point x="385" y="70"/>
      <point x="388" y="110" type="curve" smooth="yes"/>
      <point x="395" y="217" type="line"/>
    </contour>
    <contour>
      <point x="344" y="229" type="line"/>
      <point x="337" y="184" type="line" smooth="yes"/>
      <point x="331" y="146"/>
      <point x="265" y="160"/>
      <point x="276" y="199" type="curve" smooth="yes"/>
      <point x="288" y="242" type="line"/>
    </contour>
    <contour>
      <point x="513" y="47" type="curve" smooth="yes"/>
      <point x="529" y="47"/>
      <point x="542" y="60"/>
      <point x="542" y="76" type="curve" smooth="yes"/>
      <point x="542" y="92"/>
      <point x="529" y="105"/>
      <point x="513" y="105" type="curve" smooth="yes"/>
      <point x="497" y="105"/>
      <point x="484" y="92"/>
      <point x="484" y="76" type="curve" smooth="yes"/>
      <point x="484" y="60"/>
      <point x="497" y="47"/>
    </contour>
    <contour>
      <point x="141" y="16" type="line" smooth="yes"/>
      <point x="171" y="17"/>
      <point x="166" y="69"/>
      <point x="140" y="67" type="curve" smooth="yes"/>
      <point x="97" y="64" type="line" smooth="yes"/>
      <point x="66" y="62"/>
      <point x="71" y="13"/>
      <point x="99" y="14" type="curve" smooth="yes"/>
    </contour>
    <contour>
      <point x="132" y="99" type="line" smooth="yes"/>
      <point x="161" y="99"/>
      <point x="156" y="156"/>
      <point x="130" y="156" type="curve" smooth="yes"/>
      <point x="89" y="156" type="line" smooth="yes"/>
      <point x="58" y="156"/>
      <point x="58" y="99"/>
      <point x="86" y="99" type="curve" smooth="yes"/>
    </contour>
  </outline>
</glyph>
<glyph name="S" format="2">
  <advance width="461"/>
  <unicode hex="0053"/>
  <anchor x="219" y="0" name="bottom"/>
  <anchor x="190" y="0" name="cedilla"/>
  <anchor x="257" y="710" name="top"/>
  <outline>
    <contour>
      <point x="210" y="-11" type="curve" smooth="yes"/>
      <point x="368" y="-11"/>
      <point x="441" y="69"/>
      <point x="441" y="193" type="curve" smooth="yes"/>
      <point x="441" y="298"/>
      <point x="369" y="354"/>
      <point x="283" y="390" type="curve" smooth="yes"/>
      <point x="212" y="420" type="line" smooth="yes"/>
      <point x="153" y="445"/>
      <point x="111" y="476"/>
      <point x="111" y="526" type="curve" smooth="yes"/>
      <point x="111" y="604"/>
      <point x="176" y="640"/>
      <point x="251" y="640" type="curve" smooth="yes"/>
      <point x="298" y="640"/>
      <point x="328" y="625"/>
      <point x="355" y="625" type="curve" smooth="yes"/>
      <point x="374" y="625"/>
      <point x="393" y="633"/>
      <point x="393" y="663" type="curve" smooth="yes"/>
      <point x="393" y="699"/>
      <point x="336" y="731"/>
      <point x="257" y="731" type="curve" smooth="yes"/>
      <point x="143" y="731"/>
      <point x="29" y="655"/>
      <point x="29" y="509" type="curve" smooth="yes"/>
      <point x="29" y="439"/>
      <point x="71" y="374"/>
      <point x="120" y="328" type="curve" smooth="yes"/>
      <point x="182" y="270" type="line" smooth="yes"/>
      <point x="229" y="226"/>
      <point x="246" y="183"/>
      <point x="246" y="150" type="curve" smooth="yes"/>
      <point x="246" y="105"/>
      <point x="216" y="88"/>
      <point x="169" y="88" type="curve" smooth="yes"/>
      <point x="106" y="88"/>
      <point x="85" y="115"/>
      <point x="57" y="114" type="curve" smooth="yes"/>
      <point x="30" y="113"/>
      <point x="17" y="72"/>
      <point x="38" y="46" type="curve" smooth="yes"/>
      <point x="62" y="16"/>
      <point x="133" y="-11"/>
    </contour>
    <contour>
      <point x="334" y="97" type="curve" smooth="yes"/>
      <point x="316" y="97"/>
      <point x="303" y="110"/>
      <point x="303" y="128" type="curve" smooth="yes"/>
      <point x="303" y="145"/>
      <point x="316" y="158"/>
      <point x="334" y="158" type="curve" smooth="yes"/>
      <point x="351" y="158"/>
      <point x="364" y="145"/>
      <point x="364" y="128" type="curve" smooth="yes"/>
      <point x="364" y="110"/>
      <point x="351" y="97"/>
    </contour>
    <contour>
      <point x="332" y="187" type="curve" smooth="yes"/>
      <point x="310" y="187"/>
      <point x="294" y="203"/>
      <point x="294" y="225" type="curve" smooth="yes"/>
      <point x="294" y="246"/>
      <point x="310" y="262"/>
      <point x="332" y="262" type="curve" smooth="yes"/>
      <point x="353" y="262"/>
      <point x="369" y="246"/>
      <point x="369" y="225" type="curve" smooth="yes"/>
      <point x="369" y="203"/>
      <point x="353" y="187"/>
    </contour>
    <contour>
      <point x="273" y="278" type="curve" smooth="yes"/>
      <point x="256" y="278"/>
      <point x="243" y="291"/>
      <point x="243" y="308" type="curve" smooth="yes"/>
      <point x="243" y="325"/>
      <point x="256" y="337"/>
      <point x="273" y="337" type="curve" smooth="yes"/>
      <point x="290" y="337"/>
      <point x="302" y="325"/>
      <point x="302" y="308" type="curve" smooth="yes"/>
      <point x="302" y="291"/>
      <point x="290" y="278"/>
    </contour>
    <contour>
      <point x="253" y="475" type="curve" smooth="yes"/>
      <point x="280" y="475"/>
      <point x="301" y="497"/>
      <point x="301" y="523" type="curve" smooth="yes"/>
      <point x="301" y="551"/>
      <point x="280" y="572"/>
      <point x="253" y="572" type="curve" smooth="yes"/>
      <point x="226" y="572"/>
      <point x="204" y="551"/>
      <point x="204" y="523" type="curve" smooth="yes"/>
      <point x="204" y="497"/>
      <point x="226" y="475"/>
    </contour>
    <contour>
      <point x="144" y="24" type="curve" smooth="yes"/>
      <point x="146" y="40" type="line" smooth="yes"/>
      <point x="149" y="64"/>
      <point x="106" y="72"/>
      <point x="99" y="49" type="curve" smooth="yes"/>
      <point x="94" y="33" type="line" smooth="yes"/>
      <point x="85" y="4"/>
      <point x="141" y="-3"/>
    </contour>
    <contour>
      <point x="240" y="60" type="curve" smooth="yes"/>
      <point x="234" y="74" type="line" smooth="yes"/>
      <point x="225" y="95"/>
      <point x="183" y="82"/>
      <point x="188" y="62" type="curve" smooth="yes"/>
      <point x="192" y="46" type="line" smooth="yes"/>
      <point x="199" y="17"/>
      <point x="251" y="35"/>
    </contour>
    <contour>
      <point x="153" y="353" type="curve" smooth="yes"/>
      <point x="170" y="381" type="line"/>
      <point x="128" y="413" type="line"/>
      <point x="103" y="390" type="line" smooth="yes"/>
      <point x="77" y="366"/>
      <point x="134" y="322"/>
    </contour>
    <contour>
      <point x="78" y="579" type="curve" smooth="yes"/>
      <point x="90" y="573" type="line" smooth="yes"/>
      <point x="111" y="562"/>
      <point x="132" y="604"/>
      <point x="112" y="616" type="curve" smooth="yes"/>
      <point x="98" y="624" type="line" smooth="yes"/>
      <point x="71" y="640"/>
      <point x="46" y="595"/>
    </contour>
    <contour>
      <point x="139" y="660" type="curve" smooth="yes"/>
      <point x="151" y="645" type="line"/>
      <point x="188" y="670" type="line"/>
      <point x="176" y="685" type="line" smooth="yes"/>
      <point x="162" y="703"/>
      <point x="122" y="681"/>
    </contour>
  </outline>
</glyph>
<glyph name="T" format="2">
  <advance width="478"/>
  <unicode hex="0054"/>
  <anchor x="277" y="50" name="bottom"/>
  <anchor x="255" y="40" name="cedilla"/>
  <anchor x="234" y="684" name="top"/>
  <outline>
    <contour>
      <point x="153" y="117" type="line" smooth="yes"/>
      <point x="143" y="-15"/>
      <point x="425" y="2"/>
      <point x="388" y="144" type="curve" smooth="yes"/>
      <point x="271" y="590" type="line" smooth="yes"/>
      <point x="266" y="608"/>
      <point x="276" y="616"/>
      <point x="296" y="621" type="curve" smooth="yes"/>
      <point x="431" y="653" type="line" smooth="yes"/>
      <point x="460" y="660"/>
      <point x="473" y="674"/>
      <point x="473" y="691" type="curve" smooth="yes"/>
      <point x="473" y="712"/>
      <point x="457" y="724"/>
      <point x="425" y="720" type="curve" smooth="yes"/>
      <point x="72" y="681" type="line" smooth="yes"/>
      <point x="23" y="676"/>
      <point x="5" y="660"/>
      <point x="5" y="628" type="curve" smooth="yes"/>
      <point x="5" y="589"/>
      <point x="28" y="569"/>
      <point x="74" y="579" type="curve" smooth="yes"/>
      <point x="162" y="598" type="line" smooth="yes"/>
      <point x="181" y="602"/>
      <point x="188" y="592"/>
      <point x="186" y="571" type="curve" smooth="yes"/>
    </contour>
    <contour>
      <point x="325" y="384" type="line"/>
      <point x="325" y="384" type="line"/>
      <point x="325" y="384"/>
      <point x="308" y="448"/>
      <point x="308" y="448" type="curve"/>
      <point x="308" y="448" type="line"/>
    </contour>
    <contour>
      <point x="168" y="328" type="line"/>
      <point x="236" y="341" type="line" smooth="yes"/>
      <point x="280" y="349"/>
      <point x="296" y="264"/>
      <point x="245" y="257" type="curve" smooth="yes"/>
      <point x="162" y="245" type="line"/>
    </contour>
    <contour>
      <point x="159" y="197" type="line"/>
      <point x="246" y="191" type="line" smooth="yes"/>
      <point x="306" y="187"/>
      <point x="294" y="101"/>
      <point x="236" y="117" type="curve" smooth="yes"/>
      <point x="155" y="139" type="line"/>
    </contour>
    <contour>
      <point x="225" y="624" type="curve" smooth="yes"/>
      <point x="238" y="624"/>
      <point x="249" y="635"/>
      <point x="249" y="648" type="curve" smooth="yes"/>
      <point x="249" y="661"/>
      <point x="238" y="672"/>
      <point x="225" y="672" type="curve" smooth="yes"/>
      <point x="212" y="672"/>
      <point x="201" y="661"/>
      <point x="201" y="648" type="curve" smooth="yes"/>
      <point x="201" y="635"/>
      <point x="212" y="624"/>
    </contour>
    <contour>
      <point x="239" y="530" type="line"/>
      <point x="216" y="528" type="line" smooth="yes"/>
      <point x="186" y="525"/>
      <point x="186" y="467"/>
      <point x="216" y="470" type="curve" smooth="yes"/>
      <point x="244" y="473" type="line"/>
    </contour>
    <contour>
      <point x="234" y="447" type="line"/>
      <point x="216" y="447" type="line" smooth="yes"/>
      <point x="188" y="447"/>
      <point x="189" y="389"/>
      <point x="216" y="388" type="curve" smooth="yes"/>
      <point x="236" y="387" type="line"/>
    </contour>
  </outline>
</glyph>
<glyph name="U" format="2">
  <advance width="645"/>
  <unicode hex="0055"/>
  <anchor x="371" y="0" name="ogonek"/>
  <anchor x="331" y="702" name="top"/>
  <outline>
    <contour>
      <point x="292" y="3" type="curve" smooth="yes"/>
      <point x="508" y="3"/>
      <point x="596" y="122"/>
      <point x="602" y="293" type="curve" smooth="yes"/>
      <point x="613" y="591" type="line" smooth="yes"/>
      <point x="618" y="717"/>
      <point x="336" y="727"/>
      <point x="369" y="581" type="curve" smooth="yes"/>
      <point x="452" y="210" type="line" smooth="yes"/>
      <point x="470" y="130"/>
      <point x="419" y="86"/>
      <point x="339" y="86" type="curve" smooth="yes"/>
      <point x="229" y="86"/>
      <point x="168" y="146"/>
      <point x="172" y="278" type="curve" smooth="yes"/>
      <point x="186" y="703" type="line" smooth="yes"/>
      <point x="187" y="746"/>
      <point x="121" y="746"/>
      <point x="116" y="703" type="curve" smooth="yes"/>
      <point x="64" y="257" type="line" smooth="yes"/>
      <point x="45" y="98"/>
      <point x="140" y="3"/>
    </contour>
    <contour>
      <point x="377" y="544" type="line"/>
      <point x="472" y="552" type="line" smooth="yes"/>
      <point x="502" y="555"/>
      <point x="516" y="493"/>
      <point x="472" y="489" type="curve" smooth="yes"/>
      <point x="391" y="482" type="line"/>
    </contour>
    <contour>
      <point x="399" y="446" type="line"/>
      <point x="485" y="450" type="line" smooth="yes"/>
      <point x="529" y="452"/>
      <point x="524" y="374"/>
      <point x="492" y="376" type="curve" smooth="yes"/>
      <point x="414" y="381" type="line"/>
    </contour>
    <contour>
      <point x="606" y="399" type="line"/>
      <point x="604" y="349" type="line"/>
      <point x="604" y="349" type="line"/>
      <point x="604" y="349"/>
      <point x="606" y="399"/>
      <point x="606" y="399" type="curve"/>
    </contour>
    <contour>
      <point x="282" y="239" type="curve" smooth="yes"/>
      <point x="311" y="239"/>
      <point x="334" y="262"/>
      <point x="334" y="291" type="curve" smooth="yes"/>
      <point x="334" y="320"/>
      <point x="311" y="343"/>
      <point x="282" y="343" type="curve" smooth="yes"/>
      <point x="253" y="343"/>
      <point x="230" y="320"/>
      <point x="230" y="291" type="curve" smooth="yes"/>
      <point x="230" y="262"/>
      <point x="253" y="239"/>
    </contour>
    <contour>
      <point x="250" y="599" type="curve" smooth="yes"/>
      <point x="47" y="589" type="line" smooth="yes"/>
      <point x="11" y="587"/>
      <point x="6" y="525"/>
      <point x="48" y="528" type="curve" smooth="yes"/>
      <point x="252" y="544" type="line" smooth="yes"/>
      <point x="293" y="547"/>
      <point x="288" y="601"/>
    </contour>
    <contour>
      <point x="264" y="485" type="curve" smooth="yes"/>
      <point x="137" y="490" type="line"/>
      <point x="138" y="429" type="line"/>
      <point x="262" y="420" type="line" smooth="yes"/>
      <point x="303" y="417"/>
      <point x="302" y="484"/>
    </contour>
    <contour>
      <point x="467" y="362" type="curve" smooth="yes"/>
      <point x="454" y="361" type="line" smooth="yes"/>
      <point x="422" y="359"/>
      <point x="423" y="311"/>
      <point x="459" y="311" type="curve" smooth="yes"/>
      <point x="466" y="311" type="line" smooth="yes"/>
      <point x="501" y="311"/>
      <point x="497" y="364"/>
    </contour>
    <contour>
      <point x="467" y="80" type="curve" smooth="yes"/>
      <point x="460" y="95" type="line" smooth="yes"/>
      <point x="448" y="122"/>
      <point x="398" y="96"/>
      <point x="413" y="67" type="curve" smooth="yes"/>
      <point x="418" y="57" type="line" smooth="yes"/>
      <point x="434" y="26"/>
      <point x="480" y="51"/>
    </contour>
  </outline>
</glyph>
<glyph name="V" format="2">
  <advance width="626"/>
  <unicode hex="0056"/>
  <anchor x="327" y="0" name="bottom"/>
  <anchor x="369" y="700" name="top"/>
  <outline>
    <contour>
      <point x="22" y="573" type="curve" smooth="yes"/>
      <point x="187" y="126" type="line" smooth="yes"/>
      <point x="226" y="20"/>
      <point x="260" y="-22"/>
      <point x="330" y="-22" type="curve" smooth="yes"/>
      <point x="406" y="-22"/>
      <point x="449" y="26"/>
      <point x="465" y="101" type="curve" smooth="yes"/>
      <point x="584" y="649" type="line" smooth="yes"/>
      <point x="596" y="703"/>
      <point x="517" y="716"/>
      <point x="506" y="658" type="curve" smooth="yes"/>
      <point x="410" y="141" type="line" smooth="yes"/>
      <point x="398" y="77"/>
      <point x="387" y="49"/>
      <point x="352" y="49" type="curve" smooth="yes"/>
      <point x="326" y="49"/>
      <point x="305" y="63"/>
      <point x="301" y="105" type="curve" smooth="yes"/>
      <point x="253" y="655" type="line" smooth="yes"/>
      <point x="243" y="774"/>
      <point x="-42" y="746"/>
    </contour>
    <contour>
      <point x="38" y="529" type="line"/>
      <point x="122" y="549" type="line" smooth="yes"/>
      <point x="160" y="558"/>
      <point x="174" y="492"/>
      <point x="130" y="485" type="curve" smooth="yes"/>
      <point x="59" y="474" type="line"/>
    </contour>
    <contour>
      <point x="80" y="416" type="line"/>
      <point x="155" y="438" type="line" smooth="yes"/>
      <point x="197" y="450"/>
      <point x="211" y="392"/>
      <point x="173" y="380" type="curve" smooth="yes"/>
      <point x="102" y="357" type="line"/>
    </contour>
    <contour>
      <point x="125" y="295" type="line"/>
      <point x="125" y="295" type="line" smooth="yes"/>
      <point x="125" y="295"/>
      <point x="147" y="235"/>
      <point x="147" y="235" type="curve" smooth="yes"/>
      <point x="147" y="235" type="line"/>
    </contour>
    <contour>
      <point x="380" y="501" type="curve" smooth="yes"/>
      <point x="411" y="501"/>
      <point x="436" y="526"/>
      <point x="436" y="558" type="curve" smooth="yes"/>
      <point x="436" y="589"/>
      <point x="411" y="614"/>
      <point x="380" y="614" type="curve" smooth="yes"/>
      <point x="348" y="614"/>
      <point x="323" y="589"/>
      <point x="323" y="558" type="curve" smooth="yes"/>
      <point x="323" y="526"/>
      <point x="348" y="501"/>
    </contour>
    <contour>
      <point x="559" y="609" type="line"/>
      <point x="536" y="615" type="line" smooth="yes"/>
      <point x="512" y="621"/>
      <point x="506" y="569"/>
      <point x="528" y="563" type="curve" smooth="yes"/>
      <point x="546" y="558" type="line"/>
    </contour>
    <contour>
      <point x="518" y="533" type="curve" smooth="yes"/>
      <point x="502" y="536" type="line"/>
      <point x="488" y="479" type="line"/>
      <point x="509" y="476" type="line" smooth="yes"/>
      <point x="532" y="473"/>
      <point x="537" y="529"/>
    </contour>
    <contour>
      <point x="523" y="450" type="curve" smooth="yes"/>
      <point x="506" y="455" type="line"/>
      <point x="491" y="405" type="line"/>
      <point x="509" y="399" type="line" smooth="yes"/>
      <point x="531" y="392"/>
      <point x="542" y="444"/>
    </contour>
    <contour>
      <point x="581" y="397" type="curve" smooth="yes"/>
      <point x="347" y="379" type="line" smooth="yes"/>
      <point x="303" y="376"/>
      <point x="309" y="314"/>
      <point x="351" y="318" type="curve" smooth="yes"/>
      <point x="583" y="340" type="line" smooth="yes"/>
      <point x="624" y="344"/>
      <point x="619" y="400"/>
    </contour>
    <contour>
      <point x="451" y="149" type="curve" smooth="yes"/>
      <point x="440" y="152" type="line" smooth="yes"/>
      <point x="416" y="159"/>
      <point x="401" y="105"/>
      <point x="424" y="99" type="curve" smooth="yes"/>
      <point x="435" y="96" type="line" smooth="yes"/>
      <point x="458" y="90"/>
      <point x="471" y="144"/>
    </contour>
    <contour>
      <point x="477" y="264" type="curve" smooth="yes"/>
      <point x="459" y="270" type="line"/>
      <point x="441" y="220" type="line"/>
      <point x="462" y="215" type="line" smooth="yes"/>
      <point x="485" y="210"/>
      <point x="496" y="258"/>
    </contour>
  </outline>
</glyph>
<glyph name="W" format="2">
  <advance width="872"/>
  <unicode hex="0057"/>
  <anchor x="419" y="12" name="bottom"/>
  <anchor x="409" y="685" name="top"/>
  <outline>
    <contour>
      <point x="36" y="610" type="curve" smooth="yes"/>
      <point x="153" y="89" type="line" smooth="yes"/>
      <point x="162" y="50"/>
      <point x="186" y="23"/>
      <point x="219" y="23" type="curve" smooth="yes"/>
      <point x="252" y="23"/>
      <point x="280" y="48"/>
      <point x="318" y="107" type="curve" smooth="yes"/>
      <point x="448" y="308" type="line" smooth="yes"/>
      <point x="462" y="329"/>
      <point x="480" y="331"/>
      <point x="487" y="309" type="curve" smooth="yes"/>
      <point x="569" y="59" type="line" smooth="yes"/>
      <point x="584" y="13"/>
      <point x="608" y="-12"/>
      <point x="648" y="-12" type="curve" smooth="yes"/>
      <point x="689" y="-12"/>
      <point x="717" y="17"/>
      <point x="729" y="67" type="curve" smooth="yes"/>
      <point x="859" y="621" type="line" smooth="yes"/>
      <point x="887" y="741"/>
      <point x="671" y="767"/>
      <point x="670" y="638" type="curve" smooth="yes"/>
      <point x="664" y="96" type="line" smooth="yes"/>
      <point x="664" y="61"/>
      <point x="631" y="61"/>
      <point x="622" y="95" type="curve" smooth="yes"/>
      <point x="484" y="621" type="line" smooth="yes"/>
      <point x="460" y="711"/>
      <point x="351" y="706"/>
      <point x="332" y="614" type="curve" smooth="yes"/>
      <point x="254" y="232" type="line" smooth="yes"/>
      <point x="245" y="188"/>
      <point x="209" y="190"/>
      <point x="199" y="234" type="curve" smooth="yes"/>
      <point x="112" y="619" type="line" smooth="yes"/>
      <point x="101" y="667"/>
      <point x="25" y="657"/>
    </contour>
    <contour>
      <point x="180" y="508" type="curve" smooth="yes"/>
      <point x="17" y="485" type="line" smooth="yes"/>
      <point x="-27" y="479"/>
      <point x="-16" y="414"/>
      <point x="27" y="422" type="curve" smooth="yes"/>
      <point x="185" y="453" type="line" smooth="yes"/>
      <point x="223" y="460"/>
      <point x="218" y="513"/>
    </contour>
    <contour>
      <point x="141" y="359" type="line"/>
      <point x="53" y="353" type="line" smooth="yes"/>
      <point x="9" y="350"/>
      <point x="15" y="288"/>
      <point x="57" y="293" type="curve" smooth="yes"/>
      <point x="148" y="304" type="line"/>
    </contour>
    <contour>
      <point x="765" y="555" type="curve" smooth="yes"/>
      <point x="739" y="555"/>
      <point x="719" y="575"/>
      <point x="719" y="601" type="curve" smooth="yes"/>
      <point x="719" y="625"/>
      <point x="739" y="645"/>
      <point x="765" y="645" type="curve" smooth="yes"/>
      <point x="789" y="645"/>
      <point x="809" y="625"/>
      <point x="809" y="601" type="curve" smooth="yes"/>
      <point x="809" y="575"/>
      <point x="789" y="555"/>
    </contour>
    <contour>
      <point x="506" y="537" type="line"/>
      <point x="435" y="522" type="line" smooth="yes"/>
      <point x="392" y="513"/>
      <point x="381" y="578"/>
      <point x="423" y="582" type="curve" smooth="yes"/>
      <point x="492" y="589" type="line"/>
    </contour>
    <contour>
      <point x="530" y="446" type="line"/>
      <point x="481" y="430" type="line" smooth="yes"/>
      <point x="439" y="416"/>
      <point x="427" y="483"/>
      <point x="469" y="490" type="curve" smooth="yes"/>
      <point x="516" y="498" type="line"/>
    </contour>
    <contour>
      <point x="342" y="333" type="curve" smooth="yes"/>
      <point x="316" y="324" type="line" smooth="yes"/>
      <point x="290" y="315"/>
      <point x="305" y="274"/>
      <point x="329" y="283" type="curve" smooth="yes"/>
      <point x="356" y="293" type="line" smooth="yes"/>
      <point x="379" y="302"/>
      <point x="366" y="341"/>
    </contour>
    <contour>
      <point x="290" y="187" type="line"/>
      <point x="318" y="174" type="line" smooth="yes"/>
      <point x="341" y="163"/>
      <point x="361" y="209"/>
      <point x="336" y="219" type="curve" smooth="yes"/>
      <point x="306" y="231" type="line"/>
    </contour>
    <contour>
      <point x="358" y="381" type="curve" smooth="yes"/>
      <point x="372" y="381"/>
      <point x="384" y="393"/>
      <point x="384" y="409" type="curve" smooth="yes"/>
      <point x="384" y="423"/>
      <point x="372" y="435"/>
      <point x="358" y="435" type="curve" smooth="yes"/>
      <point x="342" y="435"/>
      <point x="330" y="423"/>
      <point x="330" y="409" type="curve" smooth="yes"/>
      <point x="330" y="393"/>
      <point x="342" y="381"/>
    </contour>
    <contour>
      <point x="603" y="124" type="line"/>
      <point x="584" y="177" type="line"/>
      <point x="561" y="170" type="line" smooth="yes"/>
      <point x="539" y="163"/>
      <point x="551" y="110"/>
      <point x="574" y="116" type="curve" smooth="yes"/>
    </contour>
    <contour>
      <point x="744" y="431" type="curve" smooth="yes"/>
      <point x="744" y="431"/>
      <point x="744" y="431"/>
      <point x="744" y="431" type="curve" smooth="yes"/>
      <point x="744" y="431"/>
      <point x="744" y="431"/>
      <point x="744" y="431" type="curve" smooth="yes"/>
      <point x="744" y="431"/>
      <point x="744" y="431"/>
      <point x="744" y="431" type="curve" smooth="yes"/>
      <point x="744" y="431"/>
      <point x="744" y="431"/>
    </contour>
    <contour>
      <point x="731" y="341" type="curve" smooth="yes"/>
      <point x="731" y="341"/>
      <point x="731" y="341"/>
      <point x="731" y="341" type="curve" smooth="yes"/>
      <point x="731" y="341"/>
      <point x="731" y="341"/>
      <point x="731" y="341" type="curve" smooth="yes"/>
      <point x="731" y="341"/>
      <point x="731" y="341"/>
      <point x="731" y="341" type="curve" smooth="yes"/>
      <point x="731" y="341"/>
      <point x="731" y="341"/>
    </contour>
  </outline>
</glyph>
<glyph name="X" format="2">
  <advance width="576"/>
  <unicode hex="0058"/>
  <anchor x="289" y="-8" name="bottom"/>
  <anchor x="349" y="707" name="top"/>
  <outline>
    <contour>
      <point x="41" y="2" type="line" smooth="yes"/>
      <point x="28" y="-37"/>
      <point x="91" y="-54"/>
      <point x="104" y="-18" type="curve" smooth="yes"/>
      <point x="190" y="224" type="line" smooth="yes"/>
      <point x="206" y="269"/>
      <point x="229" y="288"/>
      <point x="294" y="288" type="curve" smooth="yes"/>
      <point x="349" y="288"/>
      <point x="380" y="264"/>
      <point x="392" y="217" type="curve" smooth="yes"/>
      <point x="435" y="47" type="line" smooth="yes"/>
      <point x="455" y="-32"/>
      <point x="570" y="16"/>
      <point x="542" y="74" type="curve" smooth="yes"/>
      <point x="447" y="274" type="line" smooth="yes"/>
      <point x="431" y="307"/>
      <point x="414" y="327"/>
      <point x="401" y="333" type="curve" smooth="yes"/>
      <point x="392" y="337"/>
      <point x="390" y="349"/>
      <point x="399" y="355" type="curve" smooth="yes"/>
      <point x="414" y="365"/>
      <point x="426" y="383"/>
      <point x="433" y="404" type="curve" smooth="yes"/>
      <point x="513" y="645" type="line" smooth="yes"/>
      <point x="526" y="685"/>
      <point x="463" y="703"/>
      <point x="450" y="665" type="curve" smooth="yes"/>
      <point x="368" y="426" type="line" smooth="yes"/>
      <point x="356" y="390"/>
      <point x="333" y="378"/>
      <point x="304" y="378" type="curve" smooth="yes"/>
      <point x="276" y="378"/>
      <point x="248" y="386"/>
      <point x="247" y="441" type="curve" smooth="yes"/>
      <point x="244" y="684" type="line" smooth="yes"/>
      <point x="242" y="821"/>
      <point x="-54" y="763"/>
      <point x="19" y="606" type="curve" smooth="yes"/>
      <point x="118" y="392" type="line" smooth="yes"/>
      <point x="129" y="368"/>
      <point x="148" y="350"/>
      <point x="166" y="340" type="curve" smooth="yes"/>
      <point x="173" y="336"/>
      <point x="173" y="319"/>
      <point x="164" y="313" type="curve" smooth="yes"/>
      <point x="152" y="305"/>
      <point x="135" y="280"/>
      <point x="129" y="261" type="curve" smooth="yes"/>
    </contour>
    <contour>
      <point x="545" y="531" type="line" smooth="yes"/>
      <point x="581" y="527"/>
      <point x="586" y="576"/>
      <point x="550" y="582" type="curve" smooth="yes"/>
      <point x="363" y="612" type="line" smooth="yes"/>
      <point x="329" y="617"/>
      <point x="316" y="554"/>
      <point x="354" y="550" type="curve" smooth="yes"/>
    </contour>
    <contour>
      <point x="499" y="407" type="line" smooth="yes"/>
      <point x="536" y="395"/>
      <point x="556" y="457"/>
      <point x="519" y="466" type="curve" smooth="yes"/>
      <point x="427" y="488" type="line"/>
      <point x="410" y="435" type="line"/>
    </contour>
    <contour>
      <point x="244" y="666" type="line"/>
      <point x="245" y="614" type="line"/>
      <point x="145" y="595" type="line" smooth="yes"/>
      <point x="103" y="587"/>
      <point x="91" y="655"/>
      <point x="137" y="658" type="curve" smooth="yes"/>
    </contour>
    <contour>
      <point x="245" y="570" type="line"/>
      <point x="246" y="520" type="line"/>
      <point x="182" y="515" type="line" smooth="yes"/>
      <point x="137" y="511"/>
      <point x="135" y="567"/>
      <point x="173" y="568" type="curve" smooth="yes"/>
    </contour>
    <contour>
      <point x="291" y="67" type="curve" smooth="yes"/>
      <point x="317" y="67"/>
      <point x="339" y="89"/>
      <point x="339" y="116" type="curve" smooth="yes"/>
      <point x="339" y="142"/>
      <point x="317" y="164"/>
      <point x="291" y="164" type="curve" smooth="yes"/>
      <point x="264" y="164"/>
      <point x="242" y="142"/>
      <point x="242" y="116" type="curve" smooth="yes"/>
      <point x="242" y="89"/>
      <point x="264" y="67"/>
    </contour>
    <contour>
      <point x="96" y="32" type="line" smooth="yes"/>
      <point x="116" y="22"/>
      <point x="132" y="59"/>
      <point x="113" y="69" type="curve" smooth="yes"/>
      <point x="94" y="79" type="line" smooth="yes"/>
      <point x="75" y="89"/>
      <point x="57" y="50"/>
      <point x="77" y="41" type="curve" smooth="yes"/>
    </contour>
    <contour>
      <point x="129" y="129" type="line" smooth="yes"/>
      <point x="150" y="122"/>
      <point x="162" y="167"/>
      <point x="142" y="171" type="curve" smooth="yes"/>
      <point x="125" y="174" type="line" smooth="yes"/>
      <point x="106" y="177"/>
      <point x="95" y="141"/>
      <point x="112" y="135" type="curve" smooth="yes"/>
    </contour>
    <contour>
      <point x="407" y="255" type="curve" smooth="yes"/>
      <point x="418" y="255"/>
      <point x="428" y="264"/>
      <point x="428" y="275" type="curve" smooth="yes"/>
      <point x="428" y="286"/>
      <point x="418" y="296"/>
      <point x="407" y="296" type="curve" smooth="yes"/>
      <point x="396" y="296"/>
      <point x="387" y="286"/>
      <point x="387" y="275" type="curve" smooth="yes"/>
      <point x="387" y="264"/>
      <point x="396" y="255"/>
    </contour>
    <contour>
      <point x="159" y="202" type="line"/>
      <point x="176" y="250" type="line"/>
      <point x="157" y="259" type="line" smooth="yes"/>
      <point x="139" y="267"/>
      <point x="118" y="227"/>
      <point x="133" y="218" type="curve" smooth="yes"/>
    </contour>
  </outline>
</glyph>
<glyph name="Y" format="2">
  <advance width="592"/>
  <unicode hex="0059"/>
  <anchor x="329" y="0" name="bottom"/>
  <anchor x="326" y="700" name="top"/>
  <outline>
    <contour>
      <point x="119" y="588" type="curve" smooth="yes"/>
      <point x="99" y="588"/>
      <point x="83" y="604"/>
      <point x="83" y="624" type="curve" smooth="yes"/>
      <point x="83" y="643"/>
      <point x="99" y="659"/>
      <point x="119" y="659" type="curve" smooth="yes"/>
      <point x="138" y="659"/>
      <point x="154" y="643"/>
      <point x="154" y="624" type="curve" smooth="yes"/>
      <point x="154" y="604"/>
      <point x="138" y="588"/>
    </contour>
    <contour>
      <point x="174" y="488" type="curve" smooth="yes"/>
      <point x="149" y="488"/>
      <point x="129" y="507"/>
      <point x="129" y="531" type="curve" smooth="yes"/>
      <point x="129" y="555"/>
      <point x="149" y="575"/>
      <point x="174" y="575" type="curve" smooth="yes"/>
      <point x="197" y="575"/>
      <point x="216" y="555"/>
      <point x="216" y="531" type="curve" smooth="yes"/>
      <point x="216" y="507"/>
      <point x="197" y="488"/>
    </contour>
    <contour>
      <point x="224" y="403" type="curve" smooth="yes"/>
      <point x="205" y="403"/>
      <point x="190" y="417"/>
      <point x="190" y="435" type="curve" smooth="yes"/>
      <point x="190" y="453"/>
      <point x="205" y="468"/>
      <point x="224" y="468" type="curve" smooth="yes"/>
      <point x="241" y="468"/>
      <point x="255" y="453"/>
      <point x="255" y="435" type="curve" smooth="yes"/>
      <point x="255" y="417"/>
      <point x="241" y="403"/>
    </contour>
    <contour>
      <point x="572" y="523" type="line" smooth="yes"/>
      <point x="602" y="507"/>
      <point x="624" y="546"/>
      <point x="595" y="564" type="curve" smooth="yes"/>
      <point x="439" y="661" type="line" smooth="yes"/>
      <point x="405" y="682"/>
      <point x="370" y="632"/>
      <point x="408" y="611" type="curve" smooth="yes"/>
    </contour>
    <contour>
      <point x="510" y="398" type="line" smooth="yes"/>
      <point x="535" y="374"/>
      <point x="572" y="417"/>
      <point x="543" y="440" type="curve" smooth="yes"/>
      <point x="403" y="554" type="line" smooth="yes"/>
      <point x="378" y="575"/>
      <point x="349" y="548"/>
      <point x="375" y="523" type="curve" smooth="yes"/>
    </contour>
    <contour>
      <point x="42" y="527" type="curve" smooth="yes"/>
      <point x="260" y="220" type="line" smooth="yes"/>
      <point x="272" y="203"/>
      <point x="277" y="186"/>
      <point x="278" y="162" type="curve" smooth="yes"/>
      <point x="284" y="17" type="line" smooth="yes"/>
      <point x="286" y="-43"/>
      <point x="384" y="-40"/>
      <point x="376" y="20" type="curve" smooth="yes"/>
      <point x="343" y="258" type="line" smooth="yes"/>
      <point x="340" y="282"/>
      <point x="340" y="303"/>
      <point x="354" y="321" type="curve" smooth="yes"/>
      <point x="587" y="629" type="line" smooth="yes"/>
      <point x="633" y="689"/>
      <point x="550" y="741"/>
      <point x="518" y="685" type="curve" smooth="yes"/>
      <point x="372" y="425" type="line" smooth="yes"/>
      <point x="352" y="389"/>
      <point x="320" y="391"/>
      <point x="308" y="418" type="curve" smooth="yes"/>
      <point x="202" y="661" type="line" smooth="yes"/>
      <point x="154" y="772"/>
      <point x="-72" y="688"/>
    </contour>
    <contour>
      <point x="357" y="359" type="line" smooth="yes"/>
      <point x="373" y="340"/>
      <point x="408" y="389"/>
      <point x="385" y="405" type="curve" smooth="yes"/>
      <point x="372" y="414" type="line"/>
      <point x="348" y="370" type="line"/>
    </contour>
    <contour>
      <point x="408" y="421" type="curve" smooth="yes"/>
      <point x="418" y="421"/>
      <point x="426" y="429"/>
      <point x="426" y="439" type="curve" smooth="yes"/>
      <point x="426" y="449"/>
      <point x="418" y="457"/>
      <point x="408" y="457" type="curve" smooth="yes"/>
      <point x="398" y="457"/>
      <point x="390" y="449"/>
      <point x="390" y="439" type="curve" smooth="yes"/>
      <point x="390" y="429"/>
      <point x="398" y="421"/>
    </contour>
    <contour>
      <point x="318" y="64" type="curve" smooth="yes"/>
      <point x="338" y="67" type="line"/>
      <point x="339" y="117" type="line"/>
      <point x="315" y="114" type="line" smooth="yes"/>
      <point x="287" y="111"/>
      <point x="291" y="60"/>
    </contour>
    <contour>
      <point x="310" y="142" type="curve" smooth="yes"/>
      <point x="327" y="137" type="line"/>
      <point x="330" y="190" type="line"/>
      <point x="321" y="191" type="line" smooth="yes"/>
      <point x="294" y="194"/>
      <point x="289" y="148"/>
    </contour>
  </outline>
</glyph>
<glyph name="Z" format="2">
  <advance width="512"/>
  <unicode hex="005A"/>
  <anchor x="251" y="-50" name="bottom"/>
  <anchor x="274" y="710" name="top"/>
  <outline>
    <contour>
      <point x="31" y="155" type="line" smooth="yes"/>
      <point x="-4" y="95"/>
      <point x="15" y="47"/>
      <point x="67" y="39" type="curve" smooth="yes"/>
      <point x="436" y="-15" type="line" smooth="yes"/>
      <point x="493" y="-23"/>
      <point x="503" y="53"/>
      <point x="439" y="60" type="curve" smooth="yes"/>
      <point x="161" y="92" type="line" smooth="yes"/>
      <point x="133" y="95"/>
      <point x="128" y="118"/>
      <point x="142" y="135" type="curve" smooth="yes"/>
      <point x="474" y="515" type="line" smooth="yes"/>
      <point x="552" y="604"/>
      <point x="508" y="727"/>
      <point x="372" y="723" type="curve" smooth="yes"/>
      <point x="63" y="713" type="line" smooth="yes"/>
      <point x="11" y="711"/>
      <point x="18" y="638"/>
      <point x="69" y="641" type="curve" smooth="yes"/>
      <point x="260" y="653" type="line" smooth="yes"/>
      <point x="298" y="655"/>
      <point x="303" y="616"/>
      <point x="281" y="579" type="curve" smooth="yes"/>
    </contour>
    <contour>
      <point x="143" y="492" type="curve" smooth="yes"/>
      <point x="171" y="492"/>
      <point x="194" y="516"/>
      <point x="194" y="544" type="curve" smooth="yes"/>
      <point x="194" y="572"/>
      <point x="171" y="595"/>
      <point x="143" y="595" type="curve" smooth="yes"/>
      <point x="115" y="595"/>
      <point x="91" y="572"/>
      <point x="91" y="544" type="curve" smooth="yes"/>
      <point x="91" y="516"/>
      <point x="115" y="492"/>
    </contour>
    <contour>
      <point x="339" y="-60" type="line" smooth="yes"/>
      <point x="338" y="-101"/>
      <point x="396" y="-104"/>
      <point x="398" y="-64" type="curve" smooth="yes"/>
      <point x="410" y="159" type="line" smooth="yes"/>
      <point x="412" y="204"/>
      <point x="343" y="210"/>
      <point x="342" y="161" type="curve" smooth="yes"/>
    </contour>
    <contour>
      <point x="201" y="-16" type="line" smooth="yes"/>
      <point x="186" y="-63"/>
      <point x="256" y="-75"/>
      <point x="267" y="-34" type="curve" smooth="yes"/>
      <point x="303" y="99" type="line" smooth="yes"/>
      <point x="316" y="149"/>
      <point x="259" y="158"/>
      <point x="246" y="120" type="curve" smooth="yes"/>
    </contour>
    <contour>
      <point x="450" y="487" type="line"/>
      <point x="412" y="444" type="line"/>
      <point x="355" y="497" type="line" smooth="yes"/>
      <point x="327" y="523"/>
      <point x="358" y="568"/>
      <point x="389" y="541" type="curve" smooth="yes"/>
    </contour>
    <contour>
      <point x="376" y="403" type="line"/>
      <point x="342" y="364" type="line"/>
      <point x="306" y="390" type="line" smooth="yes"/>
      <point x="270" y="416"/>
      <point x="303" y="461"/>
      <point x="340" y="432" type="curve" smooth="yes"/>
    </contour>
    <contour>
      <point x="278" y="38" type="line" smooth="yes"/>
      <point x="270" y="11"/>
      <point x="328" y="-5"/>
      <point x="341" y="24" type="curve" smooth="yes"/>
      <point x="345" y="33" type="line" smooth="yes"/>
      <point x="361" y="69"/>
      <point x="291" y="84"/>
      <point x="280" y="45" type="curve" smooth="yes"/>
    </contour>
    <contour>
      <point x="201" y="358" type="line" smooth="yes"/>
      <point x="162" y="371"/>
      <point x="140" y="309"/>
      <point x="173" y="298" type="curve" smooth="yes"/>
      <point x="215" y="284" type="line" smooth="yes"/>
      <point x="258" y="270"/>
      <point x="276" y="333"/>
      <point x="237" y="346" type="curve" smooth="yes"/>
    </contour>
    <contour>
      <point x="456" y="558" type="line"/>
      <point x="430" y="527" type="line"/>
      <point x="386" y="592" type="line" smooth="yes"/>
      <point x="372" y="613"/>
      <point x="405" y="637"/>
      <point x="420" y="614" type="curve" smooth="yes"/>
    </contour>
  </outline>
</glyph>
